<svg width="469" height="135" viewBox="0 0 469 135" fill="none" xmlns="http://www.w3.org/2000/svg">
<g id="Plugin icon - 1">
<g id="SecureCloud" filter="url(#filter0_d_31_3)">
<path d="M39.63 97.77C37.7633 97.77 36.06 97.4667 34.52 96.86C33.0267 96.2533 31.6733 95.6467 30.46 95.04C29.4333 94.48 28.57 94.06 27.87 93.78C27.2167 93.5 26.6333 93.36 26.12 93.36C25.4667 93.36 25 93.64 24.72 94.2C24.4867 94.7133 24.3 95.2967 24.16 95.95L23.95 97H22.2L22.55 88.74L22.34 79.71H24.09L24.86 83C25.3733 85.0533 26.2833 87.06 27.59 89.02C28.9433 90.98 30.6233 92.59 32.63 93.85C34.6833 95.11 37.0167 95.74 39.63 95.74C41.0767 95.74 42.4533 95.4367 43.76 94.83C45.1133 94.1767 46.21 93.1967 47.05 91.89C47.9367 90.5833 48.38 88.88 48.38 86.78C48.38 83.6533 47.3533 81.1333 45.3 79.22C43.2933 77.3067 40.4933 75.4867 36.9 73.76L33.96 72.36C30.46 70.68 27.8467 68.8367 26.12 66.83C24.44 64.7767 23.6 62.1633 23.6 58.99C23.6 56.5167 24.2067 54.3233 25.42 52.41C26.6333 50.4967 28.29 49.0033 30.39 47.93C32.5367 46.8567 34.9867 46.32 37.74 46.32C39.6533 46.32 41.2633 46.5767 42.57 47.09C43.8767 47.6033 44.9033 48.0467 45.65 48.42C46.8633 49.0267 47.82 49.33 48.52 49.33C49.2667 49.33 49.71 48.6067 49.85 47.16H51.6L51.39 53.88L51.53 60.67H49.78C49.5 58.0567 48.7767 55.84 47.61 54.02C46.4433 52.1533 45.02 50.73 43.34 49.75C41.7067 48.77 39.9567 48.28 38.09 48.28C35.3367 48.28 33.0967 49.0733 31.37 50.66C29.69 52.2467 28.85 54.2767 28.85 56.75C28.85 59.41 29.7133 61.51 31.44 63.05C33.1667 64.5433 35.4067 65.9667 38.16 67.32L41.03 68.72C43.5967 69.98 45.79 71.2867 47.61 72.64C49.4767 73.9467 50.9 75.4867 51.88 77.26C52.9067 79.0333 53.42 81.25 53.42 83.91C53.42 86.6633 52.79 89.09 51.53 91.19C50.3167 93.29 48.66 94.9233 46.56 96.09C44.5067 97.21 42.1967 97.77 39.63 97.77ZM59.2683 97.21V95.6L60.3883 95.46C61.7416 95.2733 62.7683 95.0633 63.4683 94.83C64.2149 94.55 64.7283 93.9667 65.0083 93.08C65.2883 92.1467 65.4283 90.63 65.4283 88.53V73.62C65.4283 71.52 65.2883 70.0267 65.0083 69.14C64.7749 68.2067 64.2849 67.6 63.5383 67.32C62.8383 67.04 61.8116 66.83 60.4583 66.69L59.3383 66.55V64.94L67.9483 65.15H86.3583V68.23L86.7783 72.99H85.3083C84.8416 71.5433 84.3516 70.3767 83.8383 69.49C83.3716 68.6033 82.6249 67.95 81.5983 67.53C80.5716 67.11 78.9849 66.9 76.8383 66.9H70.3283V79.78H76.1383C76.9316 79.78 77.6083 79.4067 78.1683 78.66C78.7283 77.8667 79.0549 76.3733 79.1483 74.18H80.6183L80.4083 80.62L80.6183 87.62H79.1483C79.1483 85.3333 78.8683 83.7233 78.3083 82.79C77.7483 81.8567 76.9549 81.39 75.9283 81.39H70.3283V91.54C70.3283 92.7067 70.6316 93.6167 71.2383 94.27C71.8916 94.9233 73.1283 95.25 74.9483 95.25H79.5683C81.3883 95.25 82.7416 94.9233 83.6283 94.27C84.5616 93.6167 85.2383 92.66 85.6583 91.4C86.1249 90.14 86.5449 88.6467 86.9183 86.92H88.3883L87.8983 92.59V97H67.8783L59.2683 97.21ZM109.208 97.77C106.174 97.77 103.538 97 101.298 95.46C99.0578 93.92 97.3311 91.9367 96.1178 89.51C94.9045 87.0367 94.2978 84.4467 94.2978 81.74C94.2978 78.3333 94.9978 75.3233 96.3978 72.71C97.8445 70.05 99.7578 67.9733 102.138 66.48C104.564 64.94 107.248 64.17 110.188 64.17C111.028 64.17 112.031 64.2867 113.198 64.52C114.411 64.7533 115.531 65.1267 116.558 65.64C117.351 66.0133 118.004 66.3167 118.518 66.55C119.031 66.7367 119.451 66.83 119.778 66.83C120.104 66.83 120.361 66.69 120.548 66.41C120.734 66.13 120.851 65.6167 120.898 64.87H122.648L122.438 69.91L122.508 75.58H120.828C120.268 72.5 119.031 70.19 117.118 68.65C115.204 67.0633 112.988 66.27 110.468 66.27C107.901 66.27 105.848 66.9933 104.308 68.44C102.768 69.8867 101.648 71.8 100.948 74.18C100.248 76.5133 99.8978 79.0333 99.8978 81.74C99.8978 84.26 100.248 86.5933 100.948 88.74C101.694 90.84 102.814 92.52 104.308 93.78C105.848 95.04 107.808 95.67 110.188 95.67C112.241 95.67 114.038 95.18 115.578 94.2C117.118 93.22 118.354 91.9133 119.288 90.28C120.221 88.6 120.781 86.7567 120.968 84.75H122.648L122.508 90.84L122.718 97H121.458C121.411 96.5333 121.271 96.02 121.038 95.46C120.804 94.9 120.384 94.62 119.778 94.62C119.544 94.62 119.218 94.7133 118.798 94.9C118.378 95.0867 117.888 95.32 117.328 95.6C116.394 96.0667 115.251 96.5333 113.898 97C112.544 97.5133 110.981 97.77 109.208 97.77ZM148.111 97.7C145.545 97.7 143.211 97.3033 141.111 96.51C139.058 95.67 137.425 94.34 136.211 92.52C134.998 90.7 134.391 88.3433 134.391 85.45V73.62C134.391 71.52 134.251 70.0267 133.971 69.14C133.691 68.2067 133.178 67.6 132.431 67.32C131.731 67.04 130.705 66.83 129.351 66.69L128.231 66.55V64.94L136.841 65.15L145.451 64.94V66.55L144.331 66.69C142.978 66.83 141.928 67.04 141.181 67.32C140.481 67.6 139.991 68.2067 139.711 69.14C139.431 70.0267 139.291 71.52 139.291 73.62V85.45C139.291 88.67 140.131 91.1667 141.811 92.94C143.538 94.7133 145.895 95.6 148.881 95.6C151.588 95.6 153.781 94.7833 155.461 93.15C157.141 91.5167 157.981 88.88 157.981 85.24V73.69C157.981 71.59 157.841 70.0967 157.561 69.21C157.281 68.2767 156.768 67.67 156.021 67.39C155.321 67.11 154.295 66.9 152.941 66.76L151.821 66.62V65.01L158.891 65.15L165.961 65.01V66.62L164.841 66.76C163.488 66.9 162.438 67.11 161.691 67.39C160.991 67.67 160.501 68.2767 160.221 69.21C159.941 70.0967 159.801 71.59 159.801 73.69V85.24C159.801 89.3933 158.728 92.52 156.581 94.62C154.481 96.6733 151.658 97.7 148.111 97.7ZM198.135 97.77C196.501 97.77 195.148 97.3033 194.075 96.37C193.001 95.39 192.161 93.4067 191.555 90.42C191.321 89.1133 190.948 87.8067 190.435 86.5C189.921 85.1933 189.081 84.12 187.915 83.28C186.748 82.3933 185.021 81.95 182.735 81.95H178.675V88.6C178.675 90.6533 178.815 92.1467 179.095 93.08C179.375 93.9667 179.865 94.55 180.565 94.83C181.311 95.0633 182.361 95.2733 183.715 95.46L184.835 95.6V97.21L176.295 97L167.755 97.21V95.6L168.875 95.46C170.228 95.2733 171.255 95.0633 171.955 94.83C172.701 94.55 173.215 93.9667 173.495 93.08C173.775 92.1467 173.915 90.6533 173.915 88.6V73.62C173.915 71.7533 173.775 70.3533 173.495 69.42C173.261 68.4867 172.795 67.8333 172.095 67.46C171.441 67.0867 170.508 66.8533 169.295 66.76L167.755 66.62V65.01L176.365 65.15H186.025C188.125 65.15 190.061 65.4067 191.835 65.92C193.608 66.3867 195.031 67.2267 196.105 68.44C197.178 69.6067 197.715 71.2633 197.715 73.41C197.715 75.37 197.178 76.9333 196.105 78.1C195.078 79.22 193.795 80.06 192.255 80.62C190.715 81.18 189.198 81.5533 187.705 81.74C190.178 81.9733 192.185 82.72 193.725 83.98C195.311 85.24 196.361 87.4567 196.875 90.63C197.248 92.8233 197.785 94.1767 198.485 94.69C199.231 95.1567 200.141 95.39 201.215 95.39C201.541 95.39 201.868 95.3433 202.195 95.25C202.521 95.1567 202.801 95.0633 203.035 94.97L203.385 96.58C202.778 96.8133 202.031 97.07 201.145 97.35C200.258 97.63 199.255 97.77 198.135 97.77ZM185.325 66.83H178.675V80.27H184.275C187.121 80.27 189.151 79.7333 190.365 78.66C191.578 77.54 192.185 75.79 192.185 73.41C192.185 71.4967 191.718 69.9333 190.785 68.72C189.898 67.46 188.078 66.83 185.325 66.83ZM204.532 97.21V95.6L205.652 95.46C207.005 95.2733 208.032 95.0633 208.732 94.83C209.479 94.55 209.992 93.9667 210.272 93.08C210.552 92.1467 210.692 90.63 210.692 88.53V73.62C210.692 71.52 210.552 70.0267 210.272 69.14C210.039 68.2067 209.549 67.6 208.802 67.32C208.102 67.04 207.075 66.83 205.722 66.69L204.602 66.55V64.94L213.212 65.15H231.622V68.23L232.042 72.99H230.572C230.105 71.5433 229.615 70.3767 229.102 69.49C228.635 68.6033 227.889 67.95 226.862 67.53C225.835 67.11 224.249 66.9 222.102 66.9H215.592V79.78H221.402C222.195 79.78 222.872 79.4067 223.432 78.66C223.992 77.8667 224.319 76.3733 224.412 74.18H225.882L225.672 80.62L225.882 87.62H224.412C224.412 85.3333 224.132 83.7233 223.572 82.79C223.012 81.8567 222.219 81.39 221.192 81.39H215.592V91.54C215.592 92.7067 215.895 93.6167 216.502 94.27C217.155 94.9233 218.392 95.25 220.212 95.25H224.832C226.652 95.25 228.005 94.9233 228.892 94.27C229.825 93.6167 230.502 92.66 230.922 91.4C231.389 90.14 231.809 88.6467 232.182 86.92H233.652L233.162 92.59V97H213.142L204.532 97.21ZM274.579 97.21V95.6L275.699 95.46C277.052 95.2733 278.079 95.0633 278.779 94.83C279.525 94.55 280.039 93.9667 280.319 93.08C280.599 92.1467 280.739 90.63 280.739 88.53V73.62C280.739 71.52 280.599 70.0267 280.319 69.14C280.039 68.2067 279.525 67.6 278.779 67.32C278.079 67.04 277.052 66.83 275.699 66.69L274.579 66.55V64.94L283.189 65.15L291.799 64.94V66.55L290.679 66.69C289.325 66.83 288.275 67.04 287.529 67.32C286.829 67.6 286.339 68.2067 286.059 69.14C285.779 70.0267 285.639 71.52 285.639 73.62V88.67C285.639 90.7233 285.872 92.3333 286.339 93.5C286.852 94.6667 288.089 95.25 290.049 95.25H293.899C296.652 95.25 298.635 94.4333 299.849 92.8C301.109 91.12 301.879 88.7167 302.159 85.59H303.769L303.279 97.14L283.189 97L274.579 97.21ZM326.915 97.77C324.628 97.77 322.411 97.3733 320.265 96.58C318.118 95.74 316.181 94.5733 314.455 93.08C312.775 91.5867 311.421 89.8133 310.395 87.76C309.415 85.7067 308.925 83.4667 308.925 81.04C308.925 78.4267 309.438 76.0933 310.465 74.04C311.491 71.9867 312.868 70.2133 314.595 68.72C316.368 67.2267 318.305 66.1067 320.405 65.36C322.551 64.5667 324.721 64.17 326.915 64.17C328.968 64.17 331.045 64.5433 333.145 65.29C335.245 65.99 337.158 67.0633 338.885 68.51C340.658 69.9567 342.058 71.73 343.085 73.83C344.158 75.8833 344.695 78.2867 344.695 81.04C344.695 83.4667 344.181 85.7067 343.155 87.76C342.128 89.7667 340.751 91.5167 339.025 93.01C337.345 94.5033 335.455 95.67 333.355 96.51C331.255 97.35 329.108 97.77 326.915 97.77ZM326.915 95.67C329.808 95.67 332.141 95.0167 333.915 93.71C335.688 92.3567 336.995 90.5833 337.835 88.39C338.675 86.15 339.095 83.7 339.095 81.04C339.095 76.6067 338.138 73.0367 336.225 70.33C334.358 67.6233 331.255 66.27 326.915 66.27C323.835 66.27 321.385 66.9467 319.565 68.3C317.745 69.6067 316.438 71.38 315.645 73.62C314.898 75.8133 314.525 78.2867 314.525 81.04C314.525 83.7467 314.968 86.22 315.855 88.46C316.788 90.6533 318.165 92.4033 319.985 93.71C321.805 95.0167 324.115 95.67 326.915 95.67ZM369.438 97.7C366.871 97.7 364.538 97.3033 362.438 96.51C360.384 95.67 358.751 94.34 357.538 92.52C356.324 90.7 355.718 88.3433 355.718 85.45V73.62C355.718 71.52 355.578 70.0267 355.298 69.14C355.018 68.2067 354.504 67.6 353.758 67.32C353.058 67.04 352.031 66.83 350.678 66.69L349.558 66.55V64.94L358.168 65.15L366.778 64.94V66.55L365.658 66.69C364.304 66.83 363.254 67.04 362.508 67.32C361.808 67.6 361.318 68.2067 361.038 69.14C360.758 70.0267 360.618 71.52 360.618 73.62V85.45C360.618 88.67 361.458 91.1667 363.138 92.94C364.864 94.7133 367.221 95.6 370.208 95.6C372.914 95.6 375.108 94.7833 376.788 93.15C378.468 91.5167 379.308 88.88 379.308 85.24V73.69C379.308 71.59 379.168 70.0967 378.888 69.21C378.608 68.2767 378.094 67.67 377.348 67.39C376.648 67.11 375.621 66.9 374.268 66.76L373.148 66.62V65.01L380.218 65.15L387.288 65.01V66.62L386.168 66.76C384.814 66.9 383.764 67.11 383.018 67.39C382.318 67.67 381.828 68.2767 381.548 69.21C381.268 70.0967 381.128 71.59 381.128 73.69V85.24C381.128 89.3933 380.054 92.52 377.908 94.62C375.808 96.6733 372.984 97.7 369.438 97.7ZM389.711 97.21V95.81L390.691 95.67C391.904 95.53 392.837 95.3433 393.491 95.11C394.144 94.8767 394.587 94.34 394.821 93.5C395.101 92.66 395.241 91.3067 395.241 89.44V73.62C395.241 71.52 395.101 70.0267 394.821 69.14C394.541 68.2067 394.027 67.6 393.281 67.32C392.581 67.04 391.554 66.83 390.201 66.69L389.081 66.55V64.94L397.691 65.15H404.621C405.414 65.15 406.581 65.22 408.121 65.36C409.661 65.4533 411.341 65.7567 413.161 66.27C415.027 66.7367 416.801 67.53 418.481 68.65C420.161 69.7233 421.537 71.24 422.611 73.2C423.684 75.16 424.221 77.68 424.221 80.76C424.221 84.0733 423.567 86.8033 422.261 88.95C421.001 91.05 419.391 92.6833 417.431 93.85C415.471 95.0167 413.417 95.8333 411.271 96.3C409.171 96.7667 407.257 97 405.531 97H397.411L389.711 97.21ZM403.431 95.25H405.741C406.161 95.25 406.861 95.2033 407.841 95.11C408.867 94.97 409.987 94.69 411.201 94.27C412.414 93.8033 413.581 93.0567 414.701 92.03C415.867 91.0033 416.801 89.58 417.501 87.76C418.247 85.94 418.621 83.6067 418.621 80.76C418.621 77.7267 418.224 75.3 417.431 73.48C416.637 71.6133 415.611 70.2133 414.351 69.28C413.091 68.3467 411.714 67.7167 410.221 67.39C408.727 67.0633 407.281 66.9 405.881 66.9H400.141V89.79C400.141 91.61 400.374 92.9867 400.841 93.92C401.354 94.8067 402.217 95.25 403.431 95.25Z" fill="white"/>
<path d="M257.065 93.892C258.841 93.596 260.543 93.0533 262.171 92.264C263.849 91.4747 265.353 90.4633 266.685 89.23C266.784 89.1807 266.981 89.008 267.277 88.712C267.573 88.416 267.771 88.3173 267.869 88.416C267.968 88.5147 267.943 88.6627 267.795 88.86C267.647 89.0573 267.524 89.23 267.425 89.378C266.439 90.8087 265.131 91.9927 263.503 92.93C261.925 93.818 260.272 94.5333 258.545 95.076C257.115 95.4707 255.585 95.6187 253.957 95.52C252.329 95.372 250.8 94.9527 249.369 94.262C248.925 94.0647 248.654 93.9167 248.555 93.818C248.457 93.67 248.457 93.5713 248.555 93.522C248.654 93.4727 248.802 93.448 248.999 93.448C249.246 93.448 249.468 93.4727 249.665 93.522C250.208 93.6207 250.825 93.7193 251.515 93.818C252.255 93.8673 252.971 93.9167 253.661 93.966C254.401 93.966 255.067 93.966 255.659 93.966C256.251 93.966 256.72 93.9413 257.065 93.892ZM247.149 72.136C246.903 73.8627 246.779 75.5647 246.779 77.242C246.779 78.87 246.878 80.424 247.075 81.904C247.322 83.3347 247.667 84.6173 248.111 85.752C248.605 86.8867 249.197 87.824 249.887 88.564C250.677 89.3533 251.639 89.97 252.773 90.414C253.957 90.8087 255.215 91.006 256.547 91.006C257.929 91.006 259.359 90.8087 260.839 90.414C262.369 90.0193 263.873 89.4027 265.353 88.564C265.649 88.3667 265.847 88.3173 265.945 88.416C266.044 88.5147 265.995 88.638 265.797 88.786C265.649 88.8847 265.501 88.9833 265.353 89.082C264.071 90.0687 262.714 90.858 261.283 91.45C259.853 92.042 258.397 92.412 256.917 92.56C255.487 92.708 254.081 92.634 252.699 92.338C251.367 91.9927 250.159 91.376 249.073 90.488C248.037 89.6 247.199 88.5393 246.557 87.306C245.916 86.0233 245.423 84.642 245.077 83.162C244.781 81.6327 244.609 80.054 244.559 78.426C244.51 76.798 244.559 75.1947 244.707 73.616C244.905 71.1 245.398 68.5593 246.187 65.994C246.977 63.4287 248.013 61.0607 249.295 58.89C250.627 56.7193 252.206 54.82 254.031 53.192C255.857 51.564 257.904 50.4293 260.173 49.788C261.308 49.492 262.467 49.3687 263.651 49.418C264.835 49.4673 265.921 49.6893 266.907 50.084C267.943 50.4787 268.831 51.0707 269.571 51.86C270.311 52.6 270.805 53.5127 271.051 54.598C271.298 55.782 271.199 56.9413 270.755 58.076C270.311 59.1613 269.695 60.1233 268.905 60.962C268.116 61.7513 267.228 62.3187 266.241 62.664C265.255 63.0093 264.317 63.0093 263.429 62.664C263.38 62.664 263.331 62.59 263.281 62.442C263.281 62.294 263.38 62.2447 263.577 62.294C264.169 62.3927 264.835 62.2693 265.575 61.924C266.365 61.5293 267.055 61.0113 267.647 60.37C268.289 59.7287 268.782 58.964 269.127 58.076C269.522 57.188 269.645 56.2753 269.497 55.338C269.349 54.6473 269.029 54.0553 268.535 53.562C268.091 53.0193 267.499 52.6 266.759 52.304C266.019 51.9587 265.181 51.7367 264.243 51.638C263.355 51.5393 262.418 51.5887 261.431 51.786C259.557 52.1313 257.805 52.97 256.177 54.302C254.599 55.5847 253.193 57.1633 251.959 59.038C250.726 60.9127 249.69 63.0093 248.851 65.328C248.013 67.5973 247.445 69.8667 247.149 72.136ZM252.995 96.63C253.538 96.6793 254.081 96.704 254.623 96.704C255.215 96.704 255.511 96.778 255.511 96.926C255.511 96.9753 255.413 97 255.215 97C255.018 97.0493 254.796 97.074 254.549 97.074C254.352 97.074 254.13 97.074 253.883 97.074C253.637 97.074 253.489 97.074 253.439 97.074C251.91 97.074 250.405 96.852 248.925 96.408C247.445 95.964 246.064 95.3473 244.781 94.558C243.548 93.7193 242.438 92.708 241.451 91.524C240.465 90.34 239.725 88.9833 239.231 87.454C238.245 84.4447 237.677 81.5093 237.529 78.648C237.381 75.7867 237.505 72.9747 237.899 70.212C238.097 68.6333 238.467 66.8573 239.009 64.884C239.601 62.8613 240.366 60.814 241.303 58.742C242.29 56.67 243.499 54.6227 244.929 52.6C246.409 50.5773 248.161 48.7273 250.183 47.05C252.305 45.274 254.648 44.09 257.213 43.498C259.828 42.906 262.319 42.8073 264.687 43.202C267.055 43.5967 269.152 44.4353 270.977 45.718C272.803 46.9513 274.011 48.53 274.603 50.454C274.653 50.5527 274.702 50.7747 274.751 51.12C274.801 51.416 274.776 51.6133 274.677 51.712C274.628 51.7613 274.554 51.638 274.455 51.342C274.357 51.046 274.258 50.8487 274.159 50.75C272.087 47.938 269.744 46.162 267.129 45.422C264.515 44.6327 261.925 44.5587 259.359 45.2C256.794 45.792 254.377 46.9267 252.107 48.604C249.838 50.232 248.037 52.0573 246.705 54.08C244.387 57.5827 242.611 61.3073 241.377 65.254C240.193 69.2007 239.651 73.2707 239.749 77.464C239.799 79.388 239.996 81.4107 240.341 83.532C240.736 85.6533 241.476 87.676 242.561 89.6C243.647 91.5733 245.127 93.226 247.001 94.558C248.925 95.8407 250.923 96.5313 252.995 96.63ZM242.339 68.806C242.734 66.1913 243.351 63.6507 244.189 61.184C245.077 58.7173 246.212 56.4727 247.593 54.45C249.024 52.378 250.775 50.602 252.847 49.122C254.919 47.642 257.361 46.606 260.173 46.014C261.16 45.8167 262.27 45.7427 263.503 45.792C264.737 45.792 265.97 46.014 267.203 46.458C268.437 46.8527 269.571 47.4693 270.607 48.308C271.693 49.1467 272.581 50.306 273.271 51.786C273.913 53.2167 274.135 54.6227 273.937 56.004C273.74 57.3853 273.321 58.6433 272.679 59.778C272.038 60.8633 271.249 61.776 270.311 62.516C269.374 63.256 268.461 63.6753 267.573 63.774C267.031 63.8727 266.735 63.8727 266.685 63.774C266.636 63.626 266.907 63.4533 267.499 63.256C268.437 62.96 269.374 62.22 270.311 61.036C271.298 59.8027 271.89 58.2487 272.087 56.374C272.186 55.4367 272.063 54.524 271.717 53.636C271.372 52.6987 270.879 51.8847 270.237 51.194C269.596 50.5033 268.831 49.9113 267.943 49.418C267.055 48.9247 266.118 48.604 265.131 48.456C263.01 48.16 261.061 48.308 259.285 48.9C257.509 49.492 255.955 50.2567 254.623 51.194C253.341 52.082 252.28 52.97 251.441 53.858C250.652 54.746 250.159 55.338 249.961 55.634C248.432 57.558 247.1 59.6547 245.965 61.924C244.831 64.144 243.893 66.4873 243.153 68.954C243.153 69.0033 243.104 69.176 243.005 69.472C242.956 69.768 242.882 70.0887 242.783 70.434C242.734 70.73 242.66 71.026 242.561 71.322C242.463 71.5687 242.389 71.692 242.339 71.692C242.241 71.692 242.191 71.544 242.191 71.248C242.191 70.952 242.191 70.656 242.191 70.36C242.191 70.0147 242.216 69.694 242.265 69.398C242.315 69.102 242.339 68.9047 242.339 68.806Z" fill="#77B0DD"/>
</g>
<path id="IT" d="M429.64 73.048V72.648L429.96 72.616C430.333 72.5733 430.616 72.52 430.808 72.456C431.011 72.3813 431.149 72.232 431.224 72.008C431.299 71.7733 431.336 71.3947 431.336 70.872V63.768C431.336 63.2347 431.299 62.856 431.224 62.632C431.149 62.408 431.011 62.264 430.808 62.2C430.616 62.1253 430.333 62.0667 429.96 62.024L429.64 61.992V61.592L432.008 61.64H432.024L434.392 61.592V61.992L434.072 62.024C433.709 62.0667 433.427 62.1253 433.224 62.2C433.021 62.264 432.883 62.408 432.808 62.632C432.733 62.856 432.696 63.2347 432.696 63.768V70.872C432.696 71.3947 432.733 71.7733 432.808 72.008C432.883 72.232 433.021 72.3813 433.224 72.456C433.427 72.52 433.709 72.5733 434.072 72.616L434.392 72.648V73.048L432.024 73H432.008L429.64 73.048ZM438.327 73.048V72.648L438.679 72.616C439.117 72.5733 439.447 72.52 439.671 72.456C439.906 72.3813 440.066 72.232 440.151 72.008C440.247 71.7733 440.295 71.3947 440.295 70.872V62.072H438.039C437.549 62.072 437.159 62.168 436.871 62.36C436.594 62.5413 436.349 62.84 436.135 63.256C435.933 63.672 435.693 64.2267 435.415 64.92L435.079 64.84L435.479 62.872L435.655 61.592L440.215 61.64H441.735L446.311 61.592L446.487 62.872L446.887 64.84L446.535 64.936C446.29 64.3173 446.061 63.7947 445.847 63.368C445.645 62.9413 445.405 62.6213 445.127 62.408C444.85 62.184 444.482 62.072 444.023 62.072H441.655V70.872C441.655 71.3947 441.698 71.7733 441.783 72.008C441.879 72.232 442.045 72.3813 442.279 72.456C442.514 72.52 442.845 72.5733 443.271 72.616L443.623 72.648V73.048L441.015 73L438.327 73.048Z" fill="white"/>
</g>
<defs>
<filter id="filter0_d_31_3" x="18.2" y="42.61" width="410.021" height="63.16" filterUnits="userSpaceOnUse" color-interpolation-filters="sRGB">
<feFlood flood-opacity="0" result="BackgroundImageFix"/>
<feColorMatrix in="SourceAlpha" type="matrix" values="0 0 0 0 0 0 0 0 0 0 0 0 0 0 0 0 0 0 127 0" result="hardAlpha"/>
<feOffset dy="4"/>
<feGaussianBlur stdDeviation="2"/>
<feComposite in2="hardAlpha" operator="out"/>
<feColorMatrix type="matrix" values="0 0 0 0 0 0 0 0 0 0 0 0 0 0 0 0 0 0 0.25 0"/>
<feBlend mode="normal" in2="BackgroundImageFix" result="effect1_dropShadow_31_3"/>
<feBlend mode="normal" in="SourceGraphic" in2="effect1_dropShadow_31_3" result="shape"/>
</filter>
</defs>
</svg>
