<svg width="477" height="134" viewBox="0 0 477 134" fill="none" xmlns="http://www.w3.org/2000/svg">
<rect width="477" height="134" fill="#1E1E1E"/>
<g filter="url(#filter0_d_0_1)">
<path d="M51.2 42.752C52.0533 42.752 53.0347 42.9227 54.144 43.264C55.2533 43.5627 56.1493 44.0747 56.832 44.8C57.3013 45.2267 57.2373 45.3547 56.64 45.184C56.0427 45.0987 55.424 44.9707 54.784 44.8C54.1867 44.5867 53.5253 44.48 52.8 44.48C50.1547 44.4373 48.2347 45.2053 47.04 46.784C45.8453 48.32 45.1627 50.2827 44.992 52.672C44.864 54.336 44.8853 56 45.056 57.664C45.2693 59.2853 45.504 60.9067 45.76 62.528C46.016 64.1493 46.2293 65.7707 46.4 67.392C46.6133 69.0133 46.6347 70.656 46.464 72.32C46.4213 72.7893 46.3573 73.0667 46.272 73.152C46.2293 73.2373 46.1653 73.216 46.08 73.088C46.0373 72.96 45.9733 72.7893 45.888 72.576C45.8453 72.32 45.8027 72.1067 45.76 71.936C45.504 70.2293 45.184 68.5227 44.8 66.816C44.416 65.0667 44.0533 63.3173 43.712 61.568C43.3707 59.8187 43.0933 58.0693 42.88 56.32C42.7093 54.5707 42.7093 52.8 42.88 51.008C43.008 49.856 43.2853 48.7893 43.712 47.808C44.1387 46.784 44.6933 45.9093 45.376 45.184C46.1013 44.416 46.9547 43.8187 47.936 43.392C48.9173 42.9653 50.0053 42.752 51.2 42.752ZM39.808 51.2C39.936 50.048 40.2347 48.896 40.704 47.744C41.1733 46.5493 41.792 45.4827 42.56 44.544C43.3707 43.5627 44.3307 42.7947 45.44 42.24C46.592 41.6427 47.872 41.344 49.28 41.344C49.3227 41.344 49.4293 41.3653 49.6 41.408C49.8133 41.408 49.984 41.4293 50.112 41.472C50.2827 41.5147 50.3467 41.5573 50.304 41.6C50.304 41.6427 50.1547 41.6853 49.856 41.728C48.704 41.9413 47.6373 42.3253 46.656 42.88C45.6747 43.4347 44.8213 44.1173 44.096 44.928C43.3707 45.7387 42.7733 46.656 42.304 47.68C41.8773 48.6613 41.6213 49.6853 41.536 50.752C41.3653 52.8 41.4507 54.8693 41.792 56.96C42.1333 59.008 42.5173 61.056 42.944 63.104C43.4133 65.152 43.7973 67.2213 44.096 69.312C44.4373 71.36 44.5227 73.408 44.352 75.456C44.2667 76.2667 44.0747 77.12 43.776 78.016C43.4773 78.912 43.072 79.744 42.56 80.512C42.0907 81.28 41.4933 81.9413 40.768 82.496C40.0427 83.008 39.232 83.328 38.336 83.456C37.6533 83.5413 37.3547 83.52 37.44 83.392C37.568 83.2213 37.824 83.0293 38.208 82.816C39.744 81.9627 40.7893 80.96 41.344 79.808C41.9413 78.656 42.3253 77.2267 42.496 75.52C42.6667 73.5573 42.5813 71.552 42.24 69.504C41.9413 67.456 41.5787 65.408 41.152 63.36C40.7253 61.312 40.3413 59.2853 40 57.28C39.7013 55.232 39.6373 53.2053 39.808 51.2ZM38.08 86.656C39.872 86.656 41.3867 86.336 42.624 85.696C43.8613 85.0133 44.8853 84.1387 45.696 83.072C46.5067 81.9627 47.1253 80.704 47.552 79.296C47.9787 77.8453 48.256 76.352 48.384 74.816C48.5547 72.896 48.512 70.976 48.256 69.056C48 67.136 47.7013 65.2373 47.36 63.36C47.0613 61.44 46.784 59.52 46.528 57.6C46.272 55.68 46.2293 53.7387 46.4 51.776C46.5707 49.8133 47.168 48.256 48.192 47.104C49.2587 45.952 50.8373 45.376 52.928 45.376C53.6533 45.376 54.5707 45.504 55.68 45.76C56.832 46.016 57.7707 46.3787 58.496 46.848C59.264 47.36 59.2 47.5093 58.304 47.296C57.792 47.168 57.1307 47.0187 56.32 46.848C55.5093 46.6773 54.8907 46.592 54.464 46.592C52.8 46.592 51.3707 46.9547 50.176 47.68C48.9813 48.4053 48.2987 49.6853 48.128 51.52C47.9147 53.4827 47.9573 55.4453 48.256 57.408C48.5547 59.328 48.896 61.2693 49.28 63.232C49.664 65.1947 49.984 67.1573 50.24 69.12C50.5387 71.0827 50.6027 73.0453 50.432 75.008C50.304 76.6293 49.984 78.208 49.472 79.744C48.96 81.28 48.2347 82.6667 47.296 83.904C46.3573 85.1413 45.184 86.144 43.776 86.912C42.4107 87.6373 40.7893 88 38.912 88C38.4 88 37.7387 87.9147 36.928 87.744C36.1173 87.5733 35.3067 87.36 34.496 87.104C33.6853 86.8053 32.9173 86.464 32.192 86.08C31.5093 85.6533 30.9973 85.2053 30.656 84.736C30.272 84.3093 30.4 84.2027 31.04 84.416C31.7653 84.8 32.64 85.2693 33.664 85.824C34.7307 86.3787 36.2027 86.656 38.08 86.656ZM37.696 84.416C38.7627 84.416 39.744 84.2453 40.64 83.904C41.536 83.5627 42.4533 83.1147 43.392 82.56V82.752C43.392 83.136 43.1787 83.52 42.752 83.904C42.368 84.2453 41.8773 84.5653 41.28 84.864C40.6827 85.1627 40 85.3973 39.232 85.568C38.5067 85.7387 37.76 85.824 36.992 85.824C36.6933 85.824 36.288 85.7813 35.776 85.696C35.264 85.568 34.7307 85.4187 34.176 85.248C33.664 85.0347 33.1733 84.8 32.704 84.544C32.2347 84.288 31.9147 83.9893 31.744 83.648C31.2747 83.136 31.1253 82.8587 31.296 82.816C31.4667 82.7307 31.7013 82.7947 32 83.008C32.6827 83.2213 33.4507 83.52 34.304 83.904C35.2 84.2453 36.3307 84.416 37.696 84.416ZM84.9295 68.544C84.8442 66.624 84.3962 65.0027 83.5855 63.68C82.8175 62.3147 81.7295 61.2693 80.3215 60.544C78.9135 59.776 77.2922 59.392 75.4575 59.392C73.4095 59.392 71.6175 59.8613 70.0815 60.8C68.5882 61.7387 67.4148 63.0613 66.5615 64.768C65.7082 66.432 65.2815 68.3947 65.2815 70.656C65.2815 73.088 65.7295 75.2 66.6255 76.992C67.5642 78.784 68.8442 80.1707 70.4655 81.152C72.1295 82.1333 74.0282 82.624 76.1615 82.624C79.9588 82.624 83.1588 81.28 85.7615 78.592L89.6655 82.496C88.0015 84.3307 85.9748 85.76 83.5855 86.784C81.1962 87.7653 78.5295 88.256 75.5855 88.256C72.0868 88.256 69.0362 87.5307 66.4335 86.08C63.8308 84.6293 61.8042 82.624 60.3535 80.064C58.9028 77.4613 58.1775 74.4533 58.1775 71.04C58.1775 67.6267 58.9028 64.64 60.3535 62.08C61.8042 59.4773 63.8308 57.4507 66.4335 56C69.0362 54.5493 72.0228 53.8027 75.3935 53.76C79.4042 53.76 82.6255 54.592 85.0575 56.256C87.4895 57.8773 89.2175 60.1813 90.2415 63.168C91.2655 66.1547 91.6282 69.696 91.3295 73.792H64.1295V68.544H84.9295ZM123.003 63.744C121.808 62.5067 120.4 61.5467 118.779 60.864C117.157 60.1813 115.323 59.84 113.275 59.84C111.312 59.84 109.563 60.3093 108.027 61.248C106.491 62.1867 105.296 63.5093 104.443 65.216C103.589 66.88 103.163 68.8213 103.163 71.04C103.163 73.2587 103.589 75.2213 104.443 76.928C105.296 78.592 106.491 79.9147 108.027 80.896C109.563 81.8347 111.312 82.304 113.275 82.304C115.408 82.304 117.328 81.9627 119.035 81.28C120.741 80.5547 122.171 79.5093 123.323 78.144L127.419 82.176C125.883 84.096 123.877 85.5893 121.403 86.656C118.971 87.7227 116.155 88.256 112.955 88.256C109.584 88.256 106.597 87.5307 103.995 86.08C101.435 84.6293 99.4292 82.624 97.9785 80.064C96.5278 77.4613 95.8025 74.4533 95.8025 71.04C95.8025 67.6267 96.5278 64.64 97.9785 62.08C99.4292 59.4773 101.435 57.4507 103.995 56C106.597 54.5067 109.584 53.76 112.955 53.76C116.027 53.76 118.736 54.2293 121.083 55.168C123.472 56.064 125.456 57.344 127.035 59.008L123.003 63.744ZM141.4 73.216C141.4 75.8613 142.104 77.952 143.512 79.488C144.92 80.9813 146.861 81.728 149.336 81.728C152.28 81.6427 154.562 80.5547 156.184 78.464C157.848 76.3733 158.68 73.792 158.68 70.72H160.664C160.664 74.9013 160.088 78.272 158.936 80.832C157.784 83.392 156.141 85.2693 154.008 86.464C151.917 87.616 149.421 88.2133 146.52 88.256C143.917 88.256 141.677 87.7227 139.8 86.656C137.965 85.5893 136.536 84.0747 135.512 82.112C134.53 80.1493 134.04 77.824 134.04 75.136V54.016H141.4V73.216ZM158.68 54.016H166.04V88H158.68V54.016ZM196.076 60.416C193.644 60.288 191.532 60.7147 189.74 61.696C187.991 62.6347 186.625 63.9573 185.644 65.664C184.705 67.3707 184.236 69.3333 184.236 71.552L182.188 71.296C182.188 67.4987 182.743 64.2987 183.852 61.696C184.961 59.0933 186.561 57.1307 188.652 55.808C190.743 54.4427 193.217 53.76 196.076 53.76V60.416ZM176.94 54.016H184.3V88H176.94V54.016ZM225.68 68.544C225.594 66.624 225.146 65.0027 224.336 63.68C223.568 62.3147 222.48 61.2693 221.072 60.544C219.664 59.776 218.042 59.392 216.208 59.392C214.16 59.392 212.368 59.8613 210.832 60.8C209.338 61.7387 208.165 63.0613 207.312 64.768C206.458 66.432 206.032 68.3947 206.032 70.656C206.032 73.088 206.48 75.2 207.376 76.992C208.314 78.784 209.594 80.1707 211.216 81.152C212.88 82.1333 214.778 82.624 216.912 82.624C220.709 82.624 223.909 81.28 226.512 78.592L230.416 82.496C228.752 84.3307 226.725 85.76 224.336 86.784C221.946 87.7653 219.28 88.256 216.336 88.256C212.837 88.256 209.786 87.5307 207.184 86.08C204.581 84.6293 202.554 82.624 201.104 80.064C199.653 77.4613 198.928 74.4533 198.928 71.04C198.928 67.6267 199.653 64.64 201.104 62.08C202.554 59.4773 204.581 57.4507 207.184 56C209.786 54.5493 212.773 53.8027 216.144 53.76C220.154 53.76 223.376 54.592 225.808 56.256C228.24 57.8773 229.968 60.1813 230.992 63.168C232.016 66.1547 232.378 69.696 232.08 73.792H204.88V68.544H225.68Z" fill="#E0D3E9"/>
<path d="M265.172 85.312C266.708 85.056 268.18 84.5867 269.588 83.904C271.038 83.2213 272.34 82.3467 273.492 81.28C273.577 81.2373 273.748 81.088 274.004 80.832C274.26 80.576 274.43 80.4907 274.516 80.576C274.601 80.6613 274.58 80.7893 274.452 80.96C274.324 81.1307 274.217 81.28 274.132 81.408C273.278 82.6453 272.148 83.6693 270.74 84.48C269.374 85.248 267.945 85.8667 266.452 86.336C265.214 86.6773 263.892 86.8053 262.484 86.72C261.076 86.592 259.753 86.2293 258.516 85.632C258.132 85.4613 257.897 85.3333 257.812 85.248C257.726 85.12 257.726 85.0347 257.812 84.992C257.897 84.9493 258.025 84.928 258.196 84.928C258.409 84.928 258.601 84.9493 258.772 84.992C259.241 85.0773 259.774 85.1627 260.372 85.248C261.012 85.2907 261.63 85.3333 262.228 85.376C262.868 85.376 263.444 85.376 263.956 85.376C264.468 85.376 264.873 85.3547 265.172 85.312ZM256.595 66.496C256.382 67.9893 256.276 69.4613 256.276 70.912C256.276 72.32 256.361 73.664 256.532 74.944C256.745 76.1813 257.044 77.2907 257.428 78.272C257.854 79.2533 258.366 80.064 258.964 80.704C259.646 81.3867 260.478 81.92 261.46 82.304C262.484 82.6453 263.572 82.816 264.724 82.816C265.918 82.816 267.156 82.6453 268.436 82.304C269.758 81.9627 271.06 81.4293 272.34 80.704C272.596 80.5333 272.766 80.4907 272.852 80.576C272.937 80.6613 272.894 80.768 272.724 80.896C272.596 80.9813 272.468 81.0667 272.34 81.152C271.23 82.0053 270.057 82.688 268.82 83.2C267.582 83.712 266.324 84.032 265.044 84.16C263.806 84.288 262.59 84.224 261.396 83.968C260.244 83.6693 259.198 83.136 258.26 82.368C257.364 81.6 256.638 80.6827 256.084 79.616C255.529 78.5067 255.102 77.312 254.804 76.032C254.548 74.7093 254.398 73.344 254.356 71.936C254.313 70.528 254.356 69.1413 254.484 67.776C254.654 65.6 255.081 63.4027 255.764 61.184C256.446 58.9653 257.342 56.9173 258.452 55.04C259.604 53.1627 260.969 51.52 262.548 50.112C264.126 48.704 265.897 47.7227 267.86 47.168C268.841 46.912 269.844 46.8053 270.868 46.848C271.892 46.8907 272.83 47.0827 273.684 47.424C274.58 47.7653 275.348 48.2773 275.988 48.96C276.628 49.6 277.054 50.3893 277.268 51.328C277.481 52.352 277.396 53.3547 277.012 54.336C276.628 55.2747 276.094 56.1067 275.412 56.832C274.729 57.5147 273.961 58.0053 273.108 58.304C272.254 58.6027 271.444 58.6027 270.676 58.304C270.633 58.304 270.59 58.24 270.548 58.112C270.548 57.984 270.633 57.9413 270.804 57.984C271.316 58.0693 271.892 57.9627 272.532 57.664C273.214 57.3227 273.812 56.8747 274.324 56.32C274.878 55.7653 275.305 55.104 275.604 54.336C275.945 53.568 276.052 52.7787 275.924 51.968C275.796 51.3707 275.518 50.8587 275.092 50.432C274.708 49.9627 274.196 49.6 273.556 49.344C272.916 49.0453 272.19 48.8533 271.38 48.768C270.612 48.6827 269.801 48.7253 268.948 48.896C267.326 49.1947 265.812 49.92 264.404 51.072C263.038 52.1813 261.822 53.5467 260.756 55.168C259.689 56.7893 258.793 58.6027 258.068 60.608C257.342 62.5707 256.852 64.5333 256.595 66.496ZM261.652 87.68C262.121 87.7227 262.59 87.744 263.06 87.744C263.572 87.744 263.828 87.808 263.828 87.936C263.828 87.9787 263.742 88 263.572 88C263.401 88.0427 263.209 88.064 262.996 88.064C262.825 88.064 262.633 88.064 262.42 88.064C262.206 88.064 262.078 88.064 262.036 88.064C260.713 88.064 259.412 87.872 258.132 87.488C256.852 87.104 255.657 86.5707 254.548 85.888C253.481 85.1627 252.521 84.288 251.668 83.264C250.814 82.24 250.174 81.0667 249.748 79.744C248.894 77.1413 248.404 74.6027 248.276 72.128C248.148 69.6533 248.254 67.2213 248.596 64.832C248.766 63.4667 249.086 61.9307 249.556 60.224C250.068 58.4747 250.729 56.704 251.54 54.912C252.393 53.12 253.438 51.3493 254.676 49.6C255.956 47.8507 257.47 46.2507 259.22 44.8C261.054 43.264 263.081 42.24 265.3 41.728C267.561 41.216 269.716 41.1307 271.764 41.472C273.812 41.8133 275.625 42.5387 277.204 43.648C278.782 44.7147 279.828 46.08 280.34 47.744C280.382 47.8293 280.425 48.0213 280.468 48.32C280.51 48.576 280.489 48.7467 280.404 48.832C280.361 48.8747 280.297 48.768 280.212 48.512C280.126 48.256 280.041 48.0853 279.956 48C278.164 45.568 276.137 44.032 273.876 43.392C271.614 42.7093 269.374 42.6453 267.156 43.2C264.937 43.712 262.846 44.6933 260.884 46.144C258.921 47.552 257.364 49.1307 256.212 50.88C254.206 53.9093 252.67 57.1307 251.604 60.544C250.58 63.9573 250.11 67.4773 250.196 71.104C250.238 72.768 250.409 74.5173 250.708 76.352C251.049 78.1867 251.689 79.936 252.628 81.6C253.566 83.3067 254.846 84.736 256.468 85.888C258.132 86.9973 259.86 87.5947 261.652 87.68ZM252.436 63.616C252.777 61.3547 253.31 59.1573 254.036 57.024C254.804 54.8907 255.785 52.9493 256.98 51.2C258.217 49.408 259.732 47.872 261.524 46.592C263.316 45.312 265.428 44.416 267.86 43.904C268.713 43.7333 269.673 43.6693 270.74 43.712C271.806 43.712 272.873 43.904 273.94 44.288C275.006 44.6293 275.988 45.1627 276.884 45.888C277.822 46.6133 278.59 47.616 279.188 48.896C279.742 50.1333 279.934 51.3493 279.764 52.544C279.593 53.7387 279.23 54.8267 278.676 55.808C278.121 56.7467 277.438 57.536 276.628 58.176C275.817 58.816 275.028 59.1787 274.26 59.264C273.79 59.3493 273.534 59.3493 273.492 59.264C273.449 59.136 273.684 58.9867 274.196 58.816C275.006 58.56 275.817 57.92 276.628 56.896C277.481 55.8293 277.993 54.4853 278.164 52.864C278.249 52.0533 278.142 51.264 277.844 50.496C277.545 49.6853 277.118 48.9813 276.564 48.384C276.009 47.7867 275.348 47.2747 274.58 46.848C273.812 46.4213 273.001 46.144 272.148 46.016C270.313 45.76 268.628 45.888 267.092 46.4C265.556 46.912 264.212 47.5733 263.06 48.384C261.95 49.152 261.033 49.92 260.308 50.688C259.625 51.456 259.198 51.968 259.028 52.224C257.705 53.888 256.553 55.7013 255.572 57.664C254.59 59.584 253.78 61.6107 253.14 63.744C253.14 63.7867 253.097 63.936 253.012 64.192C252.969 64.448 252.905 64.7253 252.82 65.024C252.777 65.28 252.713 65.536 252.628 65.792C252.542 66.0053 252.478 66.112 252.436 66.112C252.35 66.112 252.308 65.984 252.308 65.728C252.308 65.472 252.308 65.216 252.308 64.96C252.308 64.6613 252.329 64.384 252.372 64.128C252.414 63.872 252.436 63.7013 252.436 63.616ZM284.323 40.512H291.683V88H284.323V40.512ZM317.47 53.76C320.968 53.76 324.04 54.4853 326.686 55.936C329.374 57.3867 331.464 59.4133 332.958 62.016C334.451 64.576 335.198 67.5627 335.198 70.976C335.198 74.3893 334.451 77.3973 332.958 80C331.464 82.6027 329.374 84.6293 326.686 86.08C324.04 87.5307 320.968 88.256 317.47 88.256C313.971 88.256 310.878 87.5307 308.19 86.08C305.502 84.6293 303.411 82.6027 301.918 80C300.424 77.3973 299.678 74.3893 299.678 70.976C299.678 67.5627 300.424 64.576 301.918 62.016C303.411 59.4133 305.502 57.3867 308.19 55.936C310.878 54.4853 313.971 53.76 317.47 53.76ZM317.47 59.712C315.422 59.712 313.608 60.2027 312.03 61.184C310.451 62.1227 309.214 63.4453 308.318 65.152C307.464 66.8587 307.038 68.8213 307.038 71.04C307.038 73.3013 307.464 75.2853 308.318 76.992C309.214 78.6987 310.451 80.0427 312.03 81.024C313.608 81.9627 315.422 82.432 317.47 82.432C319.518 82.432 321.31 81.9627 322.846 81.024C324.424 80.0427 325.64 78.6987 326.494 76.992C327.39 75.2853 327.838 73.3013 327.838 71.04C327.838 68.8213 327.39 66.8587 326.494 65.152C325.64 63.4453 324.424 62.1227 322.846 61.184C321.31 60.2027 319.518 59.712 317.47 59.712ZM349.15 73.216C349.15 75.8613 349.854 77.952 351.262 79.488C352.67 80.9813 354.611 81.728 357.086 81.728C360.03 81.6427 362.312 80.5547 363.934 78.464C365.598 76.3733 366.43 73.792 366.43 70.72H368.414C368.414 74.9013 367.838 78.272 366.686 80.832C365.534 83.392 363.891 85.2693 361.758 86.464C359.667 87.616 357.171 88.2133 354.27 88.256C351.667 88.256 349.427 87.7227 347.55 86.656C345.715 85.5893 344.286 84.0747 343.262 82.112C342.28 80.1493 341.79 77.824 341.79 75.136V54.016H349.15V73.216ZM366.43 54.016H373.79V88H366.43V54.016ZM397.682 53.696C400.839 53.696 403.506 54.4 405.682 55.808C407.901 57.1733 409.586 59.1573 410.738 61.76C411.933 64.32 412.509 67.392 412.466 70.976C412.509 74.56 411.954 77.6533 410.802 80.256C409.65 82.8587 407.965 84.864 405.746 86.272C403.57 87.6373 400.925 88.32 397.81 88.32C394.567 88.32 391.709 87.5947 389.234 86.144C386.802 84.6507 384.903 82.6027 383.538 80C382.173 77.3547 381.49 74.3253 381.49 70.912C381.49 67.4987 382.173 64.512 383.538 61.952C384.903 59.3493 386.802 57.3227 389.234 55.872C391.666 54.4213 394.482 53.696 397.682 53.696ZM399.346 59.648C397.298 59.648 395.485 60.1387 393.906 61.12C392.327 62.1013 391.09 63.4667 390.194 65.216C389.341 66.9227 388.893 68.8853 388.85 71.104C388.893 73.3227 389.341 75.2853 390.194 76.992C391.09 78.6987 392.327 80.0427 393.906 81.024C395.485 82.0053 397.298 82.496 399.346 82.496C401.394 82.496 403.207 82.0053 404.786 81.024C406.365 80.0427 407.581 78.6987 408.434 76.992C409.33 75.2853 409.778 73.3227 409.778 71.104C409.778 68.8427 409.33 66.8587 408.434 65.152C407.581 63.4453 406.365 62.1013 404.786 61.12C403.207 60.1387 401.394 59.648 399.346 59.648ZM409.778 40.512H417.138V88H409.778V40.512Z" fill="#6878DC"/>
</g>
<path d="M426.84 42H429.2V56H426.84V42ZM431.215 42H442.435V44.02H437.995V56H435.635V44.02H431.215V42Z" fill="white"/>
<defs>
<filter id="filter0_d_0_1" x="26.08" y="40.512" width="395.058" height="55.808" filterUnits="userSpaceOnUse" color-interpolation-filters="sRGB">
<feFlood flood-opacity="0" result="BackgroundImageFix"/>
<feColorMatrix in="SourceAlpha" type="matrix" values="0 0 0 0 0 0 0 0 0 0 0 0 0 0 0 0 0 0 127 0" result="hardAlpha"/>
<feOffset dy="4"/>
<feGaussianBlur stdDeviation="2"/>
<feComposite in2="hardAlpha" operator="out"/>
<feColorMatrix type="matrix" values="0 0 0 0 0 0 0 0 0 0 0 0 0 0 0 0 0 0 0.25 0"/>
<feBlend mode="normal" in2="BackgroundImageFix" result="effect1_dropShadow_0_1"/>
<feBlend mode="normal" in="SourceGraphic" in2="effect1_dropShadow_0_1" result="shape"/>
</filter>
</defs>
</svg>
