<svg width="501" height="112" viewBox="0 0 501 112" fill="none" xmlns="http://www.w3.org/2000/svg">
<g clip-path="url(#clip0_1_2)">
<path d="M470.944 40.6H474.72V63H470.944V40.6ZM477.944 40.6H495.896V43.832H488.792V63H485.016V43.832H477.944V40.6Z" fill="#6878DC"/>
<g filter="url(#filter0_d_1_2)">
<path d="M58.26 53.34C56.4867 52.22 54.7367 51.3333 53.01 50.68C51.2833 50.0267 49.65 49.56 48.11 49.28C46.57 49 45.17 48.86 43.91 48.86C41.4833 48.86 39.5467 49.3267 38.1 50.26C36.6533 51.1933 35.93 52.5467 35.93 54.32C35.93 55.9067 36.3967 57.2133 37.33 58.24C38.31 59.22 39.57 60.0367 41.11 60.69C42.6967 61.2967 44.4233 61.88 46.29 62.44C48.2033 63 50.0933 63.63 51.96 64.33C53.8267 64.9833 55.5533 65.8467 57.14 66.92C58.7267 67.9933 59.9867 69.37 60.92 71.05C61.8533 72.6833 62.32 74.76 62.32 77.28C62.32 80.1733 61.5267 82.6933 59.94 84.84C58.3533 86.94 56.16 88.5733 53.36 89.74C50.6067 90.9067 47.4333 91.49 43.84 91.49C41.2733 91.49 38.7767 91.1633 36.35 90.51C33.9233 89.81 31.6367 88.8767 29.49 87.71C27.39 86.5433 25.5 85.19 23.82 83.65L27.39 76.86C29.07 78.4 30.8433 79.7067 32.71 80.78C34.6233 81.8533 36.5367 82.67 38.45 83.23C40.41 83.79 42.2533 84.07 43.98 84.07C46.8733 84.07 49.1133 83.51 50.7 82.39C52.3333 81.27 53.15 79.7067 53.15 77.7C53.15 76.0667 52.66 74.76 51.68 73.78C50.7467 72.7533 49.4867 71.9133 47.9 71.26C46.36 70.6067 44.6333 70.0233 42.72 69.51C40.8533 68.9967 38.9633 68.4133 37.05 67.76C35.1833 67.06 33.4567 66.1967 31.87 65.17C30.33 64.1433 29.07 62.8133 28.09 61.18C27.1567 59.5467 26.69 57.47 26.69 54.95C26.69 52.1967 27.4367 49.8167 28.93 47.81C30.4233 45.7567 32.5 44.17 35.16 43.05C37.8667 41.93 40.9933 41.37 44.54 41.37C47.7133 41.37 50.7933 41.8367 53.78 42.77C56.7667 43.7033 59.4033 44.9167 61.69 46.41L58.26 53.34ZM97.2549 69.72C97.1616 67.62 96.6716 65.8467 95.7849 64.4C94.9449 62.9067 93.7549 61.7633 92.2149 60.97C90.6749 60.13 88.9016 59.71 86.8949 59.71C84.6549 59.71 82.6949 60.2233 81.0149 61.25C79.3816 62.2767 78.0983 63.7233 77.1649 65.59C76.2316 67.41 75.7649 69.5567 75.7649 72.03C75.7649 74.69 76.2549 77 77.2349 78.96C78.2616 80.92 79.6616 82.4367 81.4349 83.51C83.2549 84.5833 85.3316 85.12 87.6649 85.12C91.8183 85.12 95.3183 83.65 98.1649 80.71L102.435 84.98C100.615 86.9867 98.3983 88.55 95.7849 89.67C93.1716 90.7433 90.2549 91.28 87.0349 91.28C83.2083 91.28 79.8716 90.4867 77.0249 88.9C74.1783 87.3133 71.9616 85.12 70.3749 82.32C68.7883 79.4733 67.9949 76.1833 67.9949 72.45C67.9949 68.7167 68.7883 65.45 70.3749 62.65C71.9616 59.8033 74.1783 57.5867 77.0249 56C79.8716 54.4133 83.1383 53.5967 86.8249 53.55C91.2116 53.55 94.7349 54.46 97.3949 56.28C100.055 58.0533 101.945 60.5733 103.065 63.84C104.185 67.1067 104.582 70.98 104.255 75.46H74.5049V69.72H97.2549ZM138.897 64.47C137.591 63.1167 136.051 62.0667 134.277 61.32C132.504 60.5733 130.497 60.2 128.257 60.2C126.111 60.2 124.197 60.7133 122.517 61.74C120.837 62.7667 119.531 64.2133 118.597 66.08C117.664 67.9 117.197 70.0233 117.197 72.45C117.197 74.8767 117.664 77.0233 118.597 78.89C119.531 80.71 120.837 82.1567 122.517 83.23C124.197 84.2567 126.111 84.77 128.257 84.77C130.591 84.77 132.691 84.3967 134.557 83.65C136.424 82.8567 137.987 81.7133 139.247 80.22L143.727 84.63C142.047 86.73 139.854 88.3633 137.147 89.53C134.487 90.6967 131.407 91.28 127.907 91.28C124.221 91.28 120.954 90.4867 118.107 88.9C115.307 87.3133 113.114 85.12 111.527 82.32C109.941 79.4733 109.147 76.1833 109.147 72.45C109.147 68.7167 109.941 65.45 111.527 62.65C113.114 59.8033 115.307 57.5867 118.107 56C120.954 54.3667 124.221 53.55 127.907 53.55C131.267 53.55 134.231 54.0633 136.797 55.09C139.411 56.07 141.581 57.47 143.307 59.29L138.897 64.47ZM159.019 74.83C159.019 77.7233 159.789 80.01 161.329 81.69C162.869 83.3233 164.992 84.14 167.699 84.14C170.919 84.0467 173.416 82.8567 175.189 80.57C177.009 78.2833 177.919 75.46 177.919 72.1H180.089C180.089 76.6733 179.459 80.36 178.199 83.16C176.939 85.96 175.142 88.0133 172.809 89.32C170.522 90.58 167.792 91.2333 164.619 91.28C161.772 91.28 159.322 90.6967 157.269 89.53C155.262 88.3633 153.699 86.7067 152.579 84.56C151.506 82.4133 150.969 79.87 150.969 76.93V53.83H159.019V74.83ZM177.919 53.83H185.969V91H177.919V53.83ZM218.821 60.83C216.161 60.69 213.851 61.1567 211.891 62.23C209.978 63.2567 208.485 64.7033 207.411 66.57C206.385 68.4367 205.871 70.5833 205.871 73.01L203.631 72.73C203.631 68.5767 204.238 65.0767 205.451 62.23C206.665 59.3833 208.415 57.2367 210.701 55.79C212.988 54.2967 215.695 53.55 218.821 53.55V60.83ZM197.891 53.83H205.941V91H197.891V53.83ZM251.2 69.72C251.107 67.62 250.617 65.8467 249.73 64.4C248.89 62.9067 247.7 61.7633 246.16 60.97C244.62 60.13 242.847 59.71 240.84 59.71C238.6 59.71 236.64 60.2233 234.96 61.25C233.327 62.2767 232.044 63.7233 231.11 65.59C230.177 67.41 229.71 69.5567 229.71 72.03C229.71 74.69 230.2 77 231.18 78.96C232.207 80.92 233.607 82.4367 235.38 83.51C237.2 84.5833 239.277 85.12 241.61 85.12C245.764 85.12 249.264 83.65 252.11 80.71L256.38 84.98C254.56 86.9867 252.344 88.55 249.73 89.67C247.117 90.7433 244.2 91.28 240.98 91.28C237.154 91.28 233.817 90.4867 230.97 88.9C228.124 87.3133 225.907 85.12 224.32 82.32C222.734 79.4733 221.94 76.1833 221.94 72.45C221.94 68.7167 222.734 65.45 224.32 62.65C225.907 59.8033 228.124 57.5867 230.97 56C233.817 54.4133 237.084 53.5967 240.77 53.55C245.157 53.55 248.68 54.46 251.34 56.28C254 58.0533 255.89 60.5733 257.01 63.84C258.13 67.1067 258.527 70.98 258.2 75.46H228.45V69.72H251.2Z" fill="#E0D3E9"/>
<path d="M294.395 88.06C296.075 87.78 297.685 87.2667 299.225 86.52C300.811 85.7733 302.235 84.8167 303.495 83.65C303.588 83.6033 303.775 83.44 304.055 83.16C304.335 82.88 304.521 82.7867 304.615 82.88C304.708 82.9733 304.685 83.1133 304.545 83.3C304.405 83.4867 304.288 83.65 304.195 83.79C303.261 85.1433 302.025 86.2633 300.485 87.15C298.991 87.99 297.428 88.6667 295.795 89.18C294.441 89.5533 292.995 89.6933 291.455 89.6C289.915 89.46 288.468 89.0633 287.115 88.41C286.695 88.2233 286.438 88.0833 286.345 87.99C286.251 87.85 286.251 87.7567 286.345 87.71C286.438 87.6633 286.578 87.64 286.765 87.64C286.998 87.64 287.208 87.6633 287.395 87.71C287.908 87.8033 288.491 87.8967 289.145 87.99C289.845 88.0367 290.521 88.0833 291.175 88.13C291.875 88.13 292.505 88.13 293.065 88.13C293.625 88.13 294.068 88.1067 294.395 88.06ZM285.015 67.48C284.781 69.1133 284.665 70.7233 284.665 72.31C284.665 73.85 284.758 75.32 284.945 76.72C285.178 78.0733 285.505 79.2867 285.925 80.36C286.391 81.4333 286.951 82.32 287.605 83.02C288.351 83.7667 289.261 84.35 290.335 84.77C291.455 85.1433 292.645 85.33 293.905 85.33C295.211 85.33 296.565 85.1433 297.965 84.77C299.411 84.3967 300.835 83.8133 302.235 83.02C302.515 82.8333 302.701 82.7867 302.795 82.88C302.888 82.9733 302.841 83.09 302.655 83.23C302.515 83.3233 302.375 83.4167 302.235 83.51C301.021 84.4433 299.738 85.19 298.385 85.75C297.031 86.31 295.655 86.66 294.255 86.8C292.901 86.94 291.571 86.87 290.265 86.59C289.005 86.2633 287.861 85.68 286.835 84.84C285.855 84 285.061 82.9967 284.455 81.83C283.848 80.6167 283.381 79.31 283.055 77.91C282.775 76.4633 282.611 74.97 282.565 73.43C282.518 71.89 282.565 70.3733 282.705 68.88C282.891 66.5 283.358 64.0967 284.105 61.67C284.851 59.2433 285.831 57.0033 287.045 54.95C288.305 52.8967 289.798 51.1 291.525 49.56C293.251 48.02 295.188 46.9467 297.335 46.34C298.408 46.06 299.505 45.9433 300.625 45.99C301.745 46.0367 302.771 46.2467 303.705 46.62C304.685 46.9933 305.525 47.5533 306.225 48.3C306.925 49 307.391 49.8633 307.625 50.89C307.858 52.01 307.765 53.1067 307.345 54.18C306.925 55.2067 306.341 56.1167 305.595 56.91C304.848 57.6567 304.008 58.1933 303.075 58.52C302.141 58.8467 301.255 58.8467 300.415 58.52C300.368 58.52 300.321 58.45 300.275 58.31C300.275 58.17 300.368 58.1233 300.555 58.17C301.115 58.2633 301.745 58.1467 302.445 57.82C303.191 57.4467 303.845 56.9567 304.405 56.35C305.011 55.7433 305.478 55.02 305.805 54.18C306.178 53.34 306.295 52.4767 306.155 51.59C306.015 50.9367 305.711 50.3767 305.245 49.91C304.825 49.3967 304.265 49 303.565 48.72C302.865 48.3933 302.071 48.1833 301.185 48.09C300.345 47.9967 299.458 48.0433 298.525 48.23C296.751 48.5567 295.095 49.35 293.555 50.61C292.061 51.8233 290.731 53.3167 289.565 55.09C288.398 56.8633 287.418 58.8467 286.625 61.04C285.831 63.1867 285.295 65.3333 285.015 67.48ZM290.545 90.65C291.058 90.6967 291.571 90.72 292.085 90.72C292.645 90.72 292.925 90.79 292.925 90.93C292.925 90.9767 292.831 91 292.645 91C292.458 91.0467 292.248 91.07 292.015 91.07C291.828 91.07 291.618 91.07 291.385 91.07C291.151 91.07 291.011 91.07 290.965 91.07C289.518 91.07 288.095 90.86 286.695 90.44C285.295 90.02 283.988 89.4367 282.775 88.69C281.608 87.8967 280.558 86.94 279.625 85.82C278.691 84.7 277.991 83.4167 277.525 81.97C276.591 79.1233 276.055 76.3467 275.915 73.64C275.775 70.9333 275.891 68.2733 276.265 65.66C276.451 64.1667 276.801 62.4867 277.315 60.62C277.875 58.7067 278.598 56.77 279.485 54.81C280.418 52.85 281.561 50.9133 282.915 49C284.315 47.0867 285.971 45.3367 287.885 43.75C289.891 42.07 292.108 40.95 294.535 40.39C297.008 39.83 299.365 39.7367 301.605 40.11C303.845 40.4833 305.828 41.2767 307.555 42.49C309.281 43.6567 310.425 45.15 310.985 46.97C311.031 47.0633 311.078 47.2733 311.125 47.6C311.171 47.88 311.148 48.0667 311.055 48.16C311.008 48.2067 310.938 48.09 310.845 47.81C310.751 47.53 310.658 47.3433 310.565 47.25C308.605 44.59 306.388 42.91 303.915 42.21C301.441 41.4633 298.991 41.3933 296.565 42C294.138 42.56 291.851 43.6333 289.705 45.22C287.558 46.76 285.855 48.4867 284.595 50.4C282.401 53.7133 280.721 57.2367 279.555 60.97C278.435 64.7033 277.921 68.5533 278.015 72.52C278.061 74.34 278.248 76.2533 278.575 78.26C278.948 80.2667 279.648 82.18 280.675 84C281.701 85.8667 283.101 87.43 284.875 88.69C286.695 89.9033 288.585 90.5567 290.545 90.65ZM280.465 64.33C280.838 61.8567 281.421 59.4533 282.215 57.12C283.055 54.7867 284.128 52.6633 285.435 50.75C286.788 48.79 288.445 47.11 290.405 45.71C292.365 44.31 294.675 43.33 297.335 42.77C298.268 42.5833 299.318 42.5133 300.485 42.56C301.651 42.56 302.818 42.77 303.985 43.19C305.151 43.5633 306.225 44.1467 307.205 44.94C308.231 45.7333 309.071 46.83 309.725 48.23C310.331 49.5833 310.541 50.9133 310.355 52.22C310.168 53.5267 309.771 54.7167 309.165 55.79C308.558 56.8167 307.811 57.68 306.925 58.38C306.038 59.08 305.175 59.4767 304.335 59.57C303.821 59.6633 303.541 59.6633 303.495 59.57C303.448 59.43 303.705 59.2667 304.265 59.08C305.151 58.8 306.038 58.1 306.925 56.98C307.858 55.8133 308.418 54.3433 308.605 52.57C308.698 51.6833 308.581 50.82 308.255 49.98C307.928 49.0933 307.461 48.3233 306.855 47.67C306.248 47.0167 305.525 46.4567 304.685 45.99C303.845 45.5233 302.958 45.22 302.025 45.08C300.018 44.8 298.175 44.94 296.495 45.5C294.815 46.06 293.345 46.7833 292.085 47.67C290.871 48.51 289.868 49.35 289.075 50.19C288.328 51.03 287.861 51.59 287.675 51.87C286.228 53.69 284.968 55.6733 283.895 57.82C282.821 59.92 281.935 62.1367 281.235 64.47C281.235 64.5167 281.188 64.68 281.095 64.96C281.048 65.24 280.978 65.5433 280.885 65.87C280.838 66.15 280.768 66.43 280.675 66.71C280.581 66.9433 280.511 67.06 280.465 67.06C280.371 67.06 280.325 66.92 280.325 66.64C280.325 66.36 280.325 66.08 280.325 65.8C280.325 65.4733 280.348 65.17 280.395 64.89C280.441 64.61 280.465 64.4233 280.465 64.33ZM315.341 39.06H323.391V91H315.341V39.06ZM351.596 53.55C355.422 53.55 358.782 54.3433 361.676 55.93C364.616 57.5167 366.902 59.7333 368.536 62.58C370.169 65.38 370.986 68.6467 370.986 72.38C370.986 76.1133 370.169 79.4033 368.536 82.25C366.902 85.0967 364.616 87.3133 361.676 88.9C358.782 90.4867 355.422 91.28 351.596 91.28C347.769 91.28 344.386 90.4867 341.446 88.9C338.506 87.3133 336.219 85.0967 334.586 82.25C332.952 79.4033 332.136 76.1133 332.136 72.38C332.136 68.6467 332.952 65.38 334.586 62.58C336.219 59.7333 338.506 57.5167 341.446 55.93C344.386 54.3433 347.769 53.55 351.596 53.55ZM351.596 60.06C349.356 60.06 347.372 60.5967 345.646 61.67C343.919 62.6967 342.566 64.1433 341.586 66.01C340.652 67.8767 340.186 70.0233 340.186 72.45C340.186 74.9233 340.652 77.0933 341.586 78.96C342.566 80.8267 343.919 82.2967 345.646 83.37C347.372 84.3967 349.356 84.91 351.596 84.91C353.836 84.91 355.796 84.3967 357.476 83.37C359.202 82.2967 360.532 80.8267 361.466 78.96C362.446 77.0933 362.936 74.9233 362.936 72.45C362.936 70.0233 362.446 67.8767 361.466 66.01C360.532 64.1433 359.202 62.6967 357.476 61.67C355.796 60.5967 353.836 60.06 351.596 60.06ZM386.246 74.83C386.246 77.7233 387.016 80.01 388.556 81.69C390.096 83.3233 392.219 84.14 394.926 84.14C398.146 84.0467 400.642 82.8567 402.416 80.57C404.236 78.2833 405.146 75.46 405.146 72.1H407.316C407.316 76.6733 406.686 80.36 405.426 83.16C404.166 85.96 402.369 88.0133 400.036 89.32C397.749 90.58 395.019 91.2333 391.846 91.28C388.999 91.28 386.549 90.6967 384.496 89.53C382.489 88.3633 380.926 86.7067 379.806 84.56C378.732 82.4133 378.196 79.87 378.196 76.93V53.83H386.246V74.83ZM405.146 53.83H413.196V91H405.146V53.83ZM439.328 53.48C442.781 53.48 445.698 54.25 448.078 55.79C450.505 57.2833 452.348 59.4533 453.608 62.3C454.915 65.1 455.545 68.46 455.498 72.38C455.545 76.3 454.938 79.6833 453.678 82.53C452.418 85.3767 450.575 87.57 448.148 89.11C445.768 90.6033 442.875 91.35 439.468 91.35C435.921 91.35 432.795 90.5567 430.088 88.97C427.428 87.3367 425.351 85.0967 423.858 82.25C422.365 79.3567 421.618 76.0433 421.618 72.31C421.618 68.5767 422.365 65.31 423.858 62.51C425.351 59.6633 427.428 57.4467 430.088 55.86C432.748 54.2733 435.828 53.48 439.328 53.48ZM441.148 59.99C438.908 59.99 436.925 60.5267 435.198 61.6C433.471 62.6733 432.118 64.1667 431.138 66.08C430.205 67.9467 429.715 70.0933 429.668 72.52C429.715 74.9467 430.205 77.0933 431.138 78.96C432.118 80.8267 433.471 82.2967 435.198 83.37C436.925 84.4433 438.908 84.98 441.148 84.98C443.388 84.98 445.371 84.4433 447.098 83.37C448.825 82.2967 450.155 80.8267 451.088 78.96C452.068 77.0933 452.558 74.9467 452.558 72.52C452.558 70.0467 452.068 67.8767 451.088 66.01C450.155 64.1433 448.825 62.6733 447.098 61.6C445.371 60.5267 443.388 59.99 441.148 59.99ZM452.558 39.06H460.608V91H452.558V39.06Z" fill="#6878DC"/>
</g>
</g>
<defs>
<filter id="filter0_d_1_2" x="19.82" y="39.06" width="444.788" height="60.43" filterUnits="userSpaceOnUse" color-interpolation-filters="sRGB">
<feFlood flood-opacity="0" result="BackgroundImageFix"/>
<feColorMatrix in="SourceAlpha" type="matrix" values="0 0 0 0 0 0 0 0 0 0 0 0 0 0 0 0 0 0 127 0" result="hardAlpha"/>
<feOffset dy="4"/>
<feGaussianBlur stdDeviation="2"/>
<feComposite in2="hardAlpha" operator="out"/>
<feColorMatrix type="matrix" values="0 0 0 0 0 0 0 0 0 0 0 0 0 0 0 0 0 0 0.25 0"/>
<feBlend mode="normal" in2="BackgroundImageFix" result="effect1_dropShadow_1_2"/>
<feBlend mode="normal" in="SourceGraphic" in2="effect1_dropShadow_1_2" result="shape"/>
</filter>
<clipPath id="clip0_1_2">
<rect width="501" height="112" fill="white"/>
</clipPath>
</defs>
</svg>
