<svg width="499" height="114" viewBox="0 0 499 114" fill="none" xmlns="http://www.w3.org/2000/svg">
<g filter="url(#filter0_d_31_3)">
<path d="M35.866 82.814C33.8927 82.814 32.092 82.4933 30.464 81.852C28.8853 81.2107 27.4547 80.5693 26.172 79.928C25.0867 79.336 24.174 78.892 23.434 78.596C22.7433 78.3 22.1267 78.152 21.584 78.152C20.8933 78.152 20.4 78.448 20.104 79.04C19.8573 79.5827 19.66 80.1993 19.512 80.89L19.29 82H17.44L17.81 73.268L17.588 63.722H19.438L20.252 67.2C20.7947 69.3707 21.7567 71.492 23.138 73.564C24.5687 75.636 26.3447 77.338 28.466 78.67C30.6367 80.002 33.1033 80.668 35.866 80.668C37.3953 80.668 38.8507 80.3473 40.232 79.706C41.6627 79.0153 42.822 77.9793 43.71 76.598C44.6473 75.2167 45.116 73.416 45.116 71.196C45.116 67.8907 44.0307 65.2267 41.86 63.204C39.7387 61.1813 36.7787 59.2573 32.98 57.432L29.872 55.952C26.172 54.176 23.4093 52.2273 21.584 50.106C19.808 47.9353 18.92 45.1727 18.92 41.818C18.92 39.2033 19.5613 36.8847 20.844 34.862C22.1267 32.8393 23.878 31.2607 26.098 30.126C28.3673 28.9913 30.9573 28.424 33.868 28.424C35.8907 28.424 37.5927 28.6953 38.974 29.238C40.3553 29.7807 41.4407 30.2493 42.23 30.644C43.5127 31.2853 44.524 31.606 45.264 31.606C46.0533 31.606 46.522 30.8413 46.67 29.312H48.52L48.298 36.416L48.446 43.594H46.596C46.3 40.8313 45.5353 38.488 44.302 36.564C43.0687 34.5907 41.564 33.086 39.788 32.05C38.0613 31.014 36.2113 30.496 34.238 30.496C31.3273 30.496 28.9593 31.3347 27.134 33.012C25.358 34.6893 24.47 36.8353 24.47 39.45C24.47 42.262 25.3827 44.482 27.208 46.11C29.0333 47.6887 31.4013 49.1933 34.312 50.624L37.346 52.104C40.0593 53.436 42.378 54.8173 44.302 56.248C46.2753 57.6293 47.78 59.2573 48.816 61.132C49.9013 63.0067 50.444 65.35 50.444 68.162C50.444 71.0727 49.778 73.638 48.446 75.858C47.1633 78.078 45.412 79.8047 43.192 81.038C41.0213 82.222 38.5793 82.814 35.866 82.814ZM56.6265 82.222V80.52L57.8105 80.372C59.2411 80.1747 60.3265 79.9527 61.0665 79.706C61.8558 79.41 62.3985 78.7933 62.6945 77.856C62.9905 76.8693 63.1385 75.266 63.1385 73.046V57.284C63.1385 55.064 62.9905 53.4853 62.6945 52.548C62.4478 51.5613 61.9298 50.92 61.1405 50.624C60.4005 50.328 59.3151 50.106 57.8845 49.958L56.7005 49.81V48.108L65.8025 48.33H85.2645V51.586L85.7085 56.618H84.1545C83.6611 55.0887 83.1431 53.8553 82.6005 52.918C82.1071 51.9807 81.3178 51.29 80.2325 50.846C79.1471 50.402 77.4698 50.18 75.2005 50.18H68.3185V63.796H74.4605C75.2991 63.796 76.0145 63.4013 76.6065 62.612C77.1985 61.7733 77.5438 60.1947 77.6425 57.876H79.1965L78.9745 64.684L79.1965 72.084H77.6425C77.6425 69.6667 77.3465 67.9647 76.7545 66.978C76.1625 65.9913 75.3238 65.498 74.2385 65.498H68.3185V76.228C68.3185 77.4613 68.6391 78.4233 69.2805 79.114C69.9711 79.8047 71.2785 80.15 73.2025 80.15H78.0865C80.0105 80.15 81.4411 79.8047 82.3785 79.114C83.3651 78.4233 84.0805 77.412 84.5245 76.08C85.0178 74.748 85.4618 73.1693 85.8565 71.344H87.4105L86.8925 77.338V82H65.7285L56.6265 82.222ZM109.42 82.814C106.213 82.814 103.426 82 101.058 80.372C98.6897 78.744 96.8644 76.6473 95.5817 74.082C94.299 71.4673 93.6577 68.7293 93.6577 65.868C93.6577 62.2667 94.3977 59.0847 95.8777 56.322C97.407 53.51 99.4297 51.3147 101.946 49.736C104.511 48.108 107.348 47.294 110.456 47.294C111.344 47.294 112.404 47.4173 113.638 47.664C114.92 47.9107 116.104 48.3053 117.19 48.848C118.028 49.2427 118.719 49.5633 119.262 49.81C119.804 50.0073 120.248 50.106 120.594 50.106C120.939 50.106 121.21 49.958 121.408 49.662C121.605 49.366 121.728 48.8233 121.778 48.034H123.628L123.406 53.362L123.48 59.356H121.704C121.112 56.1 119.804 53.658 117.782 52.03C115.759 50.3527 113.416 49.514 110.752 49.514C108.038 49.514 105.868 50.2787 104.24 51.808C102.612 53.3373 101.428 55.36 100.688 57.876C99.9477 60.3427 99.5777 63.0067 99.5777 65.868C99.5777 68.532 99.9477 70.9987 100.688 73.268C101.477 75.488 102.661 77.264 104.24 78.596C105.868 79.928 107.94 80.594 110.456 80.594C112.626 80.594 114.526 80.076 116.154 79.04C117.782 78.004 119.089 76.6227 120.076 74.896C121.062 73.12 121.654 71.1713 121.852 69.05H123.628L123.48 75.488L123.702 82H122.37C122.32 81.5067 122.172 80.964 121.926 80.372C121.679 79.78 121.235 79.484 120.594 79.484C120.347 79.484 120.002 79.5827 119.558 79.78C119.114 79.9773 118.596 80.224 118.004 80.52C117.017 81.0133 115.808 81.5067 114.378 82C112.947 82.5427 111.294 82.814 109.42 82.814ZM150.546 82.74C147.833 82.74 145.366 82.3207 143.146 81.482C140.976 80.594 139.249 79.188 137.966 77.264C136.684 75.34 136.042 72.8487 136.042 69.79V57.284C136.042 55.064 135.894 53.4853 135.598 52.548C135.302 51.5613 134.76 50.92 133.97 50.624C133.23 50.328 132.145 50.106 130.714 49.958L129.53 49.81V48.108L138.632 48.33L147.734 48.108V49.81L146.55 49.958C145.12 50.106 144.01 50.328 143.22 50.624C142.48 50.92 141.962 51.5613 141.666 52.548C141.37 53.4853 141.222 55.064 141.222 57.284V69.79C141.222 73.194 142.11 75.8333 143.886 77.708C145.712 79.5827 148.203 80.52 151.36 80.52C154.222 80.52 156.54 79.6567 158.316 77.93C160.092 76.2033 160.98 73.416 160.98 69.568V57.358C160.98 55.138 160.832 53.5593 160.536 52.622C160.24 51.6353 159.698 50.994 158.908 50.698C158.168 50.402 157.083 50.18 155.652 50.032L154.468 49.884V48.182L161.942 48.33L169.416 48.182V49.884L168.232 50.032C166.802 50.18 165.692 50.402 164.902 50.698C164.162 50.994 163.644 51.6353 163.348 52.622C163.052 53.5593 162.904 55.138 162.904 57.358V69.568C162.904 73.9587 161.77 77.264 159.5 79.484C157.28 81.6547 154.296 82.74 150.546 82.74ZM203.428 82.814C201.701 82.814 200.271 82.3207 199.136 81.334C198.001 80.298 197.113 78.2013 196.472 75.044C196.225 73.6627 195.831 72.2813 195.288 70.9C194.745 69.5187 193.857 68.384 192.624 67.496C191.391 66.5587 189.565 66.09 187.148 66.09H182.856V73.12C182.856 75.2907 183.004 76.8693 183.3 77.856C183.596 78.7933 184.114 79.41 184.854 79.706C185.643 79.9527 186.753 80.1747 188.184 80.372L189.368 80.52V82.222L180.34 82L171.312 82.222V80.52L172.496 80.372C173.927 80.1747 175.012 79.9527 175.752 79.706C176.541 79.41 177.084 78.7933 177.38 77.856C177.676 76.8693 177.824 75.2907 177.824 73.12V57.284C177.824 55.3107 177.676 53.8307 177.38 52.844C177.133 51.8573 176.64 51.1667 175.9 50.772C175.209 50.3773 174.223 50.1307 172.94 50.032L171.312 49.884V48.182L180.414 48.33H190.626C192.846 48.33 194.893 48.6013 196.768 49.144C198.643 49.6373 200.147 50.5253 201.282 51.808C202.417 53.0413 202.984 54.7927 202.984 57.062C202.984 59.134 202.417 60.7867 201.282 62.02C200.197 63.204 198.84 64.092 197.212 64.684C195.584 65.276 193.981 65.6707 192.402 65.868C195.017 66.1147 197.138 66.904 198.766 68.236C200.443 69.568 201.553 71.9113 202.096 75.266C202.491 77.5847 203.058 79.0153 203.798 79.558C204.587 80.0513 205.549 80.298 206.684 80.298C207.029 80.298 207.375 80.2487 207.72 80.15C208.065 80.0513 208.361 79.9527 208.608 79.854L208.978 81.556C208.337 81.8027 207.547 82.074 206.61 82.37C205.673 82.666 204.612 82.814 203.428 82.814ZM189.886 50.106H182.856V64.314H188.776C191.785 64.314 193.931 63.7467 195.214 62.612C196.497 61.428 197.138 59.578 197.138 57.062C197.138 55.0393 196.645 53.3867 195.658 52.104C194.721 50.772 192.797 50.106 189.886 50.106ZM210.191 82.222V80.52L211.375 80.372C212.806 80.1747 213.891 79.9527 214.631 79.706C215.42 79.41 215.963 78.7933 216.259 77.856C216.555 76.8693 216.703 75.266 216.703 73.046V57.284C216.703 55.064 216.555 53.4853 216.259 52.548C216.012 51.5613 215.494 50.92 214.705 50.624C213.965 50.328 212.88 50.106 211.449 49.958L210.265 49.81V48.108L219.367 48.33H238.829V51.586L239.273 56.618H237.719C237.226 55.0887 236.708 53.8553 236.165 52.918C235.672 51.9807 234.882 51.29 233.797 50.846C232.712 50.402 231.034 50.18 228.765 50.18H221.883V63.796H228.025C228.864 63.796 229.579 63.4013 230.171 62.612C230.763 61.7733 231.108 60.1947 231.207 57.876H232.761L232.539 64.684L232.761 72.084H231.207C231.207 69.6667 230.911 67.9647 230.319 66.978C229.727 65.9913 228.888 65.498 227.803 65.498H221.883V76.228C221.883 77.4613 222.204 78.4233 222.845 79.114C223.536 79.8047 224.843 80.15 226.767 80.15H231.651C233.575 80.15 235.006 79.8047 235.943 79.114C236.93 78.4233 237.645 77.412 238.089 76.08C238.582 74.748 239.026 73.1693 239.421 71.344H240.975L240.457 77.338V82H219.293L210.191 82.222ZM285.867 82.222V80.52L287.051 80.372C288.482 80.1747 289.567 79.9527 290.307 79.706C291.097 79.41 291.639 78.7933 291.935 77.856C292.231 76.8693 292.379 75.266 292.379 73.046V57.284C292.379 55.064 292.231 53.4853 291.935 52.548C291.639 51.5613 291.097 50.92 290.307 50.624C289.567 50.328 288.482 50.106 287.051 49.958L285.867 49.81V48.108L294.969 48.33L304.071 48.108V49.81L302.887 49.958C301.457 50.106 300.347 50.328 299.557 50.624C298.817 50.92 298.299 51.5613 298.003 52.548C297.707 53.4853 297.559 55.064 297.559 57.284V73.194C297.559 75.3647 297.806 77.0667 298.299 78.3C298.842 79.5333 300.149 80.15 302.221 80.15H306.291C309.202 80.15 311.299 79.2867 312.581 77.56C313.913 75.784 314.727 73.2433 315.023 69.938H316.725L316.207 82.148L294.969 82L285.867 82.222ZM341.194 82.814C338.777 82.814 336.433 82.3947 334.164 81.556C331.895 80.668 329.847 79.4347 328.022 77.856C326.246 76.2773 324.815 74.4027 323.73 72.232C322.694 70.0613 322.176 67.6933 322.176 65.128C322.176 62.3653 322.719 59.8987 323.804 57.728C324.889 55.5573 326.345 53.6827 328.17 52.104C330.045 50.5253 332.092 49.3413 334.312 48.552C336.581 47.7133 338.875 47.294 341.194 47.294C343.365 47.294 345.56 47.6887 347.78 48.478C350 49.218 352.023 50.3527 353.848 51.882C355.723 53.4113 357.203 55.286 358.288 57.506C359.423 59.6767 359.99 62.2173 359.99 65.128C359.99 67.6933 359.447 70.0613 358.362 72.232C357.277 74.3533 355.821 76.2033 353.996 77.782C352.22 79.3607 350.222 80.594 348.002 81.482C345.782 82.37 343.513 82.814 341.194 82.814ZM341.194 80.594C344.253 80.594 346.719 79.9033 348.594 78.522C350.469 77.0913 351.85 75.2167 352.738 72.898C353.626 70.53 354.07 67.94 354.07 65.128C354.07 60.4413 353.059 56.6673 351.036 53.806C349.063 50.9447 345.782 49.514 341.194 49.514C337.938 49.514 335.348 50.2293 333.424 51.66C331.5 53.0413 330.119 54.916 329.28 57.284C328.491 59.6027 328.096 62.2173 328.096 65.128C328.096 67.9893 328.565 70.604 329.502 72.972C330.489 75.2907 331.944 77.1407 333.868 78.522C335.792 79.9033 338.234 80.594 341.194 80.594ZM386.147 82.74C383.433 82.74 380.967 82.3207 378.747 81.482C376.576 80.594 374.849 79.188 373.567 77.264C372.284 75.34 371.643 72.8487 371.643 69.79V57.284C371.643 55.064 371.495 53.4853 371.199 52.548C370.903 51.5613 370.36 50.92 369.571 50.624C368.831 50.328 367.745 50.106 366.315 49.958L365.131 49.81V48.108L374.233 48.33L383.335 48.108V49.81L382.151 49.958C380.72 50.106 379.61 50.328 378.821 50.624C378.081 50.92 377.563 51.5613 377.267 52.548C376.971 53.4853 376.823 55.064 376.823 57.284V69.79C376.823 73.194 377.711 75.8333 379.487 77.708C381.312 79.5827 383.803 80.52 386.961 80.52C389.822 80.52 392.141 79.6567 393.917 77.93C395.693 76.2033 396.581 73.416 396.581 69.568V57.358C396.581 55.138 396.433 53.5593 396.137 52.622C395.841 51.6353 395.298 50.994 394.509 50.698C393.769 50.402 392.683 50.18 391.253 50.032L390.069 49.884V48.182L397.543 48.33L405.017 48.182V49.884L403.833 50.032C402.402 50.18 401.292 50.402 400.503 50.698C399.763 50.994 399.245 51.6353 398.949 52.622C398.653 53.5593 398.505 55.138 398.505 57.358V69.568C398.505 73.9587 397.37 77.264 395.101 79.484C392.881 81.6547 389.896 82.74 386.147 82.74ZM407.578 82.222V80.742L408.614 80.594C409.897 80.446 410.884 80.2487 411.574 80.002C412.265 79.7553 412.734 79.188 412.98 78.3C413.276 77.412 413.424 75.9813 413.424 74.008V57.284C413.424 55.064 413.276 53.4853 412.98 52.548C412.684 51.5613 412.142 50.92 411.352 50.624C410.612 50.328 409.527 50.106 408.096 49.958L406.912 49.81V48.108L416.014 48.33H423.34C424.179 48.33 425.412 48.404 427.04 48.552C428.668 48.6507 430.444 48.9713 432.368 49.514C434.342 50.0073 436.216 50.846 437.992 52.03C439.768 53.1647 441.224 54.768 442.358 56.84C443.493 58.912 444.06 61.576 444.06 64.832C444.06 68.3347 443.37 71.2207 441.988 73.49C440.656 75.71 438.954 77.4367 436.882 78.67C434.81 79.9033 432.64 80.7667 430.37 81.26C428.15 81.7533 426.128 82 424.302 82H415.718L407.578 82.222ZM422.082 80.15H424.524C424.968 80.15 425.708 80.1007 426.744 80.002C427.83 79.854 429.014 79.558 430.296 79.114C431.579 78.6207 432.812 77.8313 433.996 76.746C435.23 75.6607 436.216 74.156 436.956 72.232C437.746 70.308 438.14 67.8413 438.14 64.832C438.14 61.6253 437.721 59.06 436.882 57.136C436.044 55.1627 434.958 53.6827 433.626 52.696C432.294 51.7093 430.839 51.0433 429.26 50.698C427.682 50.3527 426.152 50.18 424.672 50.18H418.604V74.378C418.604 76.302 418.851 77.7573 419.344 78.744C419.887 79.6813 420.8 80.15 422.082 80.15Z" fill="white"/>
<path d="M268.238 78.892C270.014 78.596 271.716 78.0533 273.344 77.264C275.021 76.4747 276.526 75.4633 277.858 74.23C277.957 74.1807 278.154 74.008 278.45 73.712C278.746 73.416 278.943 73.3173 279.042 73.416C279.141 73.5147 279.116 73.6627 278.968 73.86C278.82 74.0573 278.697 74.23 278.598 74.378C277.611 75.8087 276.304 76.9927 274.676 77.93C273.097 78.818 271.445 79.5333 269.718 80.076C268.287 80.4707 266.758 80.6187 265.13 80.52C263.502 80.372 261.973 79.9527 260.542 79.262C260.098 79.0647 259.827 78.9167 259.728 78.818C259.629 78.67 259.629 78.5713 259.728 78.522C259.827 78.4727 259.975 78.448 260.172 78.448C260.419 78.448 260.641 78.4727 260.838 78.522C261.381 78.6207 261.997 78.7193 262.688 78.818C263.428 78.8673 264.143 78.9167 264.834 78.966C265.574 78.966 266.24 78.966 266.832 78.966C267.424 78.966 267.893 78.9413 268.238 78.892ZM258.322 57.136C258.075 58.8627 257.952 60.5647 257.952 62.242C257.952 63.87 258.051 65.424 258.248 66.904C258.495 68.3347 258.84 69.6173 259.284 70.752C259.777 71.8867 260.369 72.824 261.06 73.564C261.849 74.3533 262.811 74.97 263.946 75.414C265.13 75.8087 266.388 76.006 267.72 76.006C269.101 76.006 270.532 75.8087 272.012 75.414C273.541 75.0193 275.046 74.4027 276.526 73.564C276.822 73.3667 277.019 73.3173 277.118 73.416C277.217 73.5147 277.167 73.638 276.97 73.786C276.822 73.8847 276.674 73.9833 276.526 74.082C275.243 75.0687 273.887 75.858 272.456 76.45C271.025 77.042 269.57 77.412 268.09 77.56C266.659 77.708 265.253 77.634 263.872 77.338C262.54 76.9927 261.331 76.376 260.246 75.488C259.21 74.6 258.371 73.5393 257.73 72.306C257.089 71.0233 256.595 69.642 256.25 68.162C255.954 66.6327 255.781 65.054 255.732 63.426C255.683 61.798 255.732 60.1947 255.88 58.616C256.077 56.1 256.571 53.5593 257.36 50.994C258.149 48.4287 259.185 46.0607 260.468 43.89C261.8 41.7193 263.379 39.82 265.204 38.192C267.029 36.564 269.077 35.4293 271.346 34.788C272.481 34.492 273.64 34.3687 274.824 34.418C276.008 34.4673 277.093 34.6893 278.08 35.084C279.116 35.4787 280.004 36.0707 280.744 36.86C281.484 37.6 281.977 38.5127 282.224 39.598C282.471 40.782 282.372 41.9413 281.928 43.076C281.484 44.1613 280.867 45.1233 280.078 45.962C279.289 46.7513 278.401 47.3187 277.414 47.664C276.427 48.0093 275.49 48.0093 274.602 47.664C274.553 47.664 274.503 47.59 274.454 47.442C274.454 47.294 274.553 47.2447 274.75 47.294C275.342 47.3927 276.008 47.2693 276.748 46.924C277.537 46.5293 278.228 46.0113 278.82 45.37C279.461 44.7287 279.955 43.964 280.3 43.076C280.695 42.188 280.818 41.2753 280.67 40.338C280.522 39.6473 280.201 39.0553 279.708 38.562C279.264 38.0193 278.672 37.6 277.932 37.304C277.192 36.9587 276.353 36.7367 275.416 36.638C274.528 36.5393 273.591 36.5887 272.604 36.786C270.729 37.1313 268.978 37.97 267.35 39.302C265.771 40.5847 264.365 42.1633 263.132 44.038C261.899 45.9127 260.863 48.0093 260.024 50.328C259.185 52.5973 258.618 54.8667 258.322 57.136ZM264.168 81.63C264.711 81.6793 265.253 81.704 265.796 81.704C266.388 81.704 266.684 81.778 266.684 81.926C266.684 81.9753 266.585 82 266.388 82C266.191 82.0493 265.969 82.074 265.722 82.074C265.525 82.074 265.303 82.074 265.056 82.074C264.809 82.074 264.661 82.074 264.612 82.074C263.083 82.074 261.578 81.852 260.098 81.408C258.618 80.964 257.237 80.3473 255.954 79.558C254.721 78.7193 253.611 77.708 252.624 76.524C251.637 75.34 250.897 73.9833 250.404 72.454C249.417 69.4447 248.85 66.5093 248.702 63.648C248.554 60.7867 248.677 57.9747 249.072 55.212C249.269 53.6333 249.639 51.8573 250.182 49.884C250.774 47.8613 251.539 45.814 252.476 43.742C253.463 41.67 254.671 39.6227 256.102 37.6C257.582 35.5773 259.333 33.7273 261.356 32.05C263.477 30.274 265.821 29.09 268.386 28.498C271.001 27.906 273.492 27.8073 275.86 28.202C278.228 28.5967 280.325 29.4353 282.15 30.718C283.975 31.9513 285.184 33.53 285.776 35.454C285.825 35.5527 285.875 35.7747 285.924 36.12C285.973 36.416 285.949 36.6133 285.85 36.712C285.801 36.7613 285.727 36.638 285.628 36.342C285.529 36.046 285.431 35.8487 285.332 35.75C283.26 32.938 280.917 31.162 278.302 30.422C275.687 29.6327 273.097 29.5587 270.532 30.2C267.967 30.792 265.549 31.9267 263.28 33.604C261.011 35.232 259.21 37.0573 257.878 39.08C255.559 42.5827 253.783 46.3073 252.55 50.254C251.366 54.2007 250.823 58.2707 250.922 62.464C250.971 64.388 251.169 66.4107 251.514 68.532C251.909 70.6533 252.649 72.676 253.734 74.6C254.819 76.5733 256.299 78.226 258.174 79.558C260.098 80.8407 262.096 81.5313 264.168 81.63ZM253.512 53.806C253.907 51.1913 254.523 48.6507 255.362 46.184C256.25 43.7173 257.385 41.4727 258.766 39.45C260.197 37.378 261.948 35.602 264.02 34.122C266.092 32.642 268.534 31.606 271.346 31.014C272.333 30.8167 273.443 30.7427 274.676 30.792C275.909 30.792 277.143 31.014 278.376 31.458C279.609 31.8527 280.744 32.4693 281.78 33.308C282.865 34.1467 283.753 35.306 284.444 36.786C285.085 38.2167 285.307 39.6227 285.11 41.004C284.913 42.3853 284.493 43.6433 283.852 44.778C283.211 45.8633 282.421 46.776 281.484 47.516C280.547 48.256 279.634 48.6753 278.746 48.774C278.203 48.8727 277.907 48.8727 277.858 48.774C277.809 48.626 278.08 48.4533 278.672 48.256C279.609 47.96 280.547 47.22 281.484 46.036C282.471 44.8027 283.063 43.2487 283.26 41.374C283.359 40.4367 283.235 39.524 282.89 38.636C282.545 37.6987 282.051 36.8847 281.41 36.194C280.769 35.5033 280.004 34.9113 279.116 34.418C278.228 33.9247 277.291 33.604 276.304 33.456C274.183 33.16 272.234 33.308 270.458 33.9C268.682 34.492 267.128 35.2567 265.796 36.194C264.513 37.082 263.453 37.97 262.614 38.858C261.825 39.746 261.331 40.338 261.134 40.634C259.605 42.558 258.273 44.6547 257.138 46.924C256.003 49.144 255.066 51.4873 254.326 53.954C254.326 54.0033 254.277 54.176 254.178 54.472C254.129 54.768 254.055 55.0887 253.956 55.434C253.907 55.73 253.833 56.026 253.734 56.322C253.635 56.5687 253.561 56.692 253.512 56.692C253.413 56.692 253.364 56.544 253.364 56.248C253.364 55.952 253.364 55.656 253.364 55.36C253.364 55.0147 253.389 54.694 253.438 54.398C253.487 54.102 253.512 53.9047 253.512 53.806Z" fill="#77B0DD"/>
</g>
<path d="M452.96 63.072V62.472L453.44 62.424C454 62.36 454.424 62.28 454.712 62.184C455.016 62.072 455.224 61.848 455.336 61.512C455.448 61.16 455.504 60.592 455.504 59.808V49.152C455.504 48.352 455.448 47.784 455.336 47.448C455.224 47.112 455.016 46.896 454.712 46.8C454.424 46.688 454 46.6 453.44 46.536L452.96 46.488V45.888L456.512 45.96H456.536L460.088 45.888V46.488L459.608 46.536C459.064 46.6 458.64 46.688 458.336 46.8C458.032 46.896 457.824 47.112 457.712 47.448C457.6 47.784 457.544 48.352 457.544 49.152V59.808C457.544 60.592 457.6 61.16 457.712 61.512C457.824 61.848 458.032 62.072 458.336 62.184C458.64 62.28 459.064 62.36 459.608 62.424L460.088 62.472V63.072L456.536 63H456.512L452.96 63.072ZM465.991 63.072V62.472L466.519 62.424C467.175 62.36 467.671 62.28 468.007 62.184C468.359 62.072 468.599 61.848 468.727 61.512C468.871 61.16 468.943 60.592 468.943 59.808V46.608H465.559C464.823 46.608 464.239 46.752 463.807 47.04C463.391 47.312 463.023 47.76 462.703 48.384C462.399 49.008 462.039 49.84 461.623 50.88L461.119 50.76L461.719 47.808L461.983 45.888L468.823 45.96H471.103L477.967 45.888L478.231 47.808L478.831 50.76L478.303 50.904C477.935 49.976 477.591 49.192 477.271 48.552C476.967 47.912 476.607 47.432 476.191 47.112C475.775 46.776 475.223 46.608 474.535 46.608H470.983V59.808C470.983 60.592 471.047 61.16 471.175 61.512C471.319 61.848 471.567 62.072 471.919 62.184C472.271 62.28 472.767 62.36 473.407 62.424L473.935 62.472V63.072L470.023 63L465.991 63.072Z" fill="white"/>
<defs>
<filter id="filter0_d_31_3" x="13.44" y="27.61" width="434.62" height="63.204" filterUnits="userSpaceOnUse" color-interpolation-filters="sRGB">
<feFlood flood-opacity="0" result="BackgroundImageFix"/>
<feColorMatrix in="SourceAlpha" type="matrix" values="0 0 0 0 0 0 0 0 0 0 0 0 0 0 0 0 0 0 127 0" result="hardAlpha"/>
<feOffset dy="4"/>
<feGaussianBlur stdDeviation="2"/>
<feComposite in2="hardAlpha" operator="out"/>
<feColorMatrix type="matrix" values="0 0 0 0 0 0 0 0 0 0 0 0 0 0 0 0 0 0 0.25 0"/>
<feBlend mode="normal" in2="BackgroundImageFix" result="effect1_dropShadow_31_3"/>
<feBlend mode="normal" in="SourceGraphic" in2="effect1_dropShadow_31_3" result="shape"/>
</filter>
</defs>
</svg>
