<svg width="396" height="57" viewBox="0 0 396 57" fill="none" xmlns="http://www.w3.org/2000/svg">
<g filter="url(#filter0_d_1_3)">
<path d="M25.2 2.752C26.0533 2.752 27.0347 2.92266 28.144 3.264C29.2533 3.56266 30.1493 4.07467 30.832 4.8C31.3013 5.22667 31.2373 5.35467 30.64 5.184C30.0427 5.09867 29.424 4.97067 28.784 4.8C28.1867 4.58667 27.5253 4.48 26.8 4.48C24.1547 4.43733 22.2347 5.20533 21.04 6.784C19.8453 8.32 19.1627 10.2827 18.992 12.672C18.864 14.336 18.8853 16 19.056 17.664C19.2693 19.2853 19.504 20.9067 19.76 22.528C20.016 24.1493 20.2293 25.7707 20.4 27.392C20.6133 29.0133 20.6347 30.656 20.464 32.32C20.4213 32.7893 20.3573 33.0667 20.272 33.152C20.2293 33.2373 20.1653 33.216 20.08 33.088C20.0373 32.96 19.9733 32.7893 19.888 32.576C19.8453 32.32 19.8027 32.1067 19.76 31.936C19.504 30.2293 19.184 28.5227 18.8 26.816C18.416 25.0667 18.0533 23.3173 17.712 21.568C17.3707 19.8187 17.0933 18.0693 16.88 16.32C16.7093 14.5707 16.7093 12.8 16.88 11.008C17.008 9.856 17.2853 8.78933 17.712 7.808C18.1387 6.784 18.6933 5.90933 19.376 5.184C20.1013 4.416 20.9547 3.81866 21.936 3.392C22.9173 2.96533 24.0053 2.752 25.2 2.752ZM13.808 11.2C13.936 10.048 14.2347 8.896 14.704 7.744C15.1733 6.54933 15.792 5.48267 16.56 4.544C17.3707 3.56267 18.3307 2.79467 19.44 2.24C20.592 1.64266 21.872 1.344 23.28 1.344C23.3227 1.344 23.4293 1.36533 23.6 1.408C23.8133 1.408 23.984 1.42933 24.112 1.472C24.2827 1.51466 24.3467 1.55733 24.304 1.6C24.304 1.64266 24.1547 1.68533 23.856 1.728C22.704 1.94133 21.6373 2.32533 20.656 2.88C19.6747 3.43466 18.8213 4.11733 18.096 4.928C17.3707 5.73866 16.7733 6.656 16.304 7.68C15.8773 8.66133 15.6213 9.68533 15.536 10.752C15.3653 12.8 15.4507 14.8693 15.792 16.96C16.1333 19.008 16.5173 21.056 16.944 23.104C17.4133 25.152 17.7973 27.2213 18.096 29.312C18.4373 31.36 18.5227 33.408 18.352 35.456C18.2667 36.2667 18.0747 37.12 17.776 38.016C17.4773 38.912 17.072 39.744 16.56 40.512C16.0907 41.28 15.4933 41.9413 14.768 42.496C14.0427 43.008 13.232 43.328 12.336 43.456C11.6533 43.5413 11.3547 43.52 11.44 43.392C11.568 43.2213 11.824 43.0293 12.208 42.816C13.744 41.9627 14.7893 40.96 15.344 39.808C15.9413 38.656 16.3253 37.2267 16.496 35.52C16.6667 33.5573 16.5813 31.552 16.24 29.504C15.9413 27.456 15.5787 25.408 15.152 23.36C14.7253 21.312 14.3413 19.2853 14 17.28C13.7013 15.232 13.6373 13.2053 13.808 11.2ZM12.08 46.656C13.872 46.656 15.3867 46.336 16.624 45.696C17.8613 45.0133 18.8853 44.1387 19.696 43.072C20.5067 41.9627 21.1253 40.704 21.552 39.296C21.9787 37.8453 22.256 36.352 22.384 34.816C22.5547 32.896 22.512 30.976 22.256 29.056C22 27.136 21.7013 25.2373 21.36 23.36C21.0613 21.44 20.784 19.52 20.528 17.6C20.272 15.68 20.2293 13.7387 20.4 11.776C20.5707 9.81333 21.168 8.256 22.192 7.104C23.2587 5.952 24.8373 5.376 26.928 5.376C27.6533 5.376 28.5707 5.504 29.68 5.76C30.832 6.016 31.7707 6.37866 32.496 6.848C33.264 7.36 33.2 7.50933 32.304 7.296C31.792 7.168 31.1307 7.01866 30.32 6.848C29.5093 6.67733 28.8907 6.592 28.464 6.592C26.8 6.592 25.3707 6.95466 24.176 7.68C22.9813 8.40533 22.2987 9.68533 22.128 11.52C21.9147 13.4827 21.9573 15.4453 22.256 17.408C22.5547 19.328 22.896 21.2693 23.28 23.232C23.664 25.1947 23.984 27.1573 24.24 29.12C24.5387 31.0827 24.6027 33.0453 24.432 35.008C24.304 36.6293 23.984 38.208 23.472 39.744C22.96 41.28 22.2347 42.6667 21.296 43.904C20.3573 45.1413 19.184 46.144 17.776 46.912C16.4107 47.6373 14.7893 48 12.912 48C12.4 48 11.7387 47.9147 10.928 47.744C10.1173 47.5733 9.30667 47.36 8.496 47.104C7.68533 46.8053 6.91733 46.464 6.192 46.08C5.50933 45.6533 4.99733 45.2053 4.656 44.736C4.272 44.3093 4.4 44.2027 5.04 44.416C5.76533 44.8 6.64 45.2693 7.664 45.824C8.73067 46.3787 10.2027 46.656 12.08 46.656ZM11.696 44.416C12.7627 44.416 13.744 44.2453 14.64 43.904C15.536 43.5627 16.4533 43.1147 17.392 42.56V42.752C17.392 43.136 17.1787 43.52 16.752 43.904C16.368 44.2453 15.8773 44.5653 15.28 44.864C14.6827 45.1627 14 45.3973 13.232 45.568C12.5067 45.7387 11.76 45.824 10.992 45.824C10.6933 45.824 10.288 45.7813 9.776 45.696C9.264 45.568 8.73067 45.4187 8.176 45.248C7.664 45.0347 7.17333 44.8 6.704 44.544C6.23467 44.288 5.91467 43.9893 5.744 43.648C5.27467 43.136 5.12533 42.8587 5.296 42.816C5.46667 42.7307 5.70133 42.7947 6 43.008C6.68267 43.2213 7.45067 43.52 8.304 43.904C9.2 44.2453 10.3307 44.416 11.696 44.416ZM58.9295 28.544C58.8442 26.624 58.3962 25.0027 57.5855 23.68C56.8175 22.3147 55.7295 21.2693 54.3215 20.544C52.9135 19.776 51.2922 19.392 49.4575 19.392C47.4095 19.392 45.6175 19.8613 44.0815 20.8C42.5882 21.7387 41.4148 23.0613 40.5615 24.768C39.7082 26.432 39.2815 28.3947 39.2815 30.656C39.2815 33.088 39.7295 35.2 40.6255 36.992C41.5642 38.784 42.8442 40.1707 44.4655 41.152C46.1295 42.1333 48.0282 42.624 50.1615 42.624C53.9588 42.624 57.1588 41.28 59.7615 38.592L63.6655 42.496C62.0015 44.3307 59.9748 45.76 57.5855 46.784C55.1962 47.7653 52.5295 48.256 49.5855 48.256C46.0868 48.256 43.0362 47.5307 40.4335 46.08C37.8308 44.6293 35.8042 42.624 34.3535 40.064C32.9028 37.4613 32.1775 34.4533 32.1775 31.04C32.1775 27.6267 32.9028 24.64 34.3535 22.08C35.8042 19.4773 37.8308 17.4507 40.4335 16C43.0362 14.5493 46.0228 13.8027 49.3935 13.76C53.4042 13.76 56.6255 14.592 59.0575 16.256C61.4895 17.8773 63.2175 20.1813 64.2415 23.168C65.2655 26.1547 65.6282 29.696 65.3295 33.792H38.1295V28.544H58.9295ZM97.0025 23.744C95.8078 22.5067 94.3998 21.5467 92.7785 20.864C91.1572 20.1813 89.3225 19.84 87.2745 19.84C85.3118 19.84 83.5625 20.3093 82.0265 21.248C80.4905 22.1867 79.2958 23.5093 78.4425 25.216C77.5892 26.88 77.1625 28.8213 77.1625 31.04C77.1625 33.2587 77.5892 35.2213 78.4425 36.928C79.2958 38.592 80.4905 39.9147 82.0265 40.896C83.5625 41.8347 85.3118 42.304 87.2745 42.304C89.4078 42.304 91.3278 41.9627 93.0345 41.28C94.7412 40.5547 96.1705 39.5093 97.3225 38.144L101.419 42.176C99.8825 44.096 97.8772 45.5893 95.4025 46.656C92.9705 47.7227 90.1545 48.256 86.9545 48.256C83.5838 48.256 80.5972 47.5307 77.9945 46.08C75.4345 44.6293 73.4292 42.624 71.9785 40.064C70.5278 37.4613 69.8025 34.4533 69.8025 31.04C69.8025 27.6267 70.5278 24.64 71.9785 22.08C73.4292 19.4773 75.4345 17.4507 77.9945 16C80.5972 14.5067 83.5838 13.76 86.9545 13.76C90.0265 13.76 92.7358 14.2293 95.0825 15.168C97.4718 16.064 99.4558 17.344 101.035 19.008L97.0025 23.744ZM115.4 33.216C115.4 35.8613 116.104 37.952 117.512 39.488C118.92 40.9813 120.861 41.728 123.336 41.728C126.28 41.6427 128.562 40.5547 130.184 38.464C131.848 36.3733 132.68 33.792 132.68 30.72H134.664C134.664 34.9013 134.088 38.272 132.936 40.832C131.784 43.392 130.141 45.2693 128.008 46.464C125.917 47.616 123.421 48.2133 120.52 48.256C117.917 48.256 115.677 47.7227 113.8 46.656C111.965 45.5893 110.536 44.0747 109.512 42.112C108.53 40.1493 108.04 37.824 108.04 35.136V14.016H115.4V33.216ZM132.68 14.016H140.04V48H132.68V14.016ZM170.076 20.416C167.644 20.288 165.532 20.7147 163.74 21.696C161.991 22.6347 160.625 23.9573 159.644 25.664C158.705 27.3707 158.236 29.3333 158.236 31.552L156.188 31.296C156.188 27.4987 156.743 24.2987 157.852 21.696C158.961 19.0933 160.561 17.1307 162.652 15.808C164.743 14.4427 167.217 13.76 170.076 13.76V20.416ZM150.94 14.016H158.3V48H150.94V14.016ZM199.68 28.544C199.594 26.624 199.146 25.0027 198.336 23.68C197.568 22.3147 196.48 21.2693 195.072 20.544C193.664 19.776 192.042 19.392 190.208 19.392C188.16 19.392 186.368 19.8613 184.832 20.8C183.338 21.7387 182.165 23.0613 181.312 24.768C180.458 26.432 180.032 28.3947 180.032 30.656C180.032 33.088 180.48 35.2 181.376 36.992C182.314 38.784 183.594 40.1707 185.216 41.152C186.88 42.1333 188.778 42.624 190.912 42.624C194.709 42.624 197.909 41.28 200.512 38.592L204.416 42.496C202.752 44.3307 200.725 45.76 198.336 46.784C195.946 47.7653 193.28 48.256 190.336 48.256C186.837 48.256 183.786 47.5307 181.184 46.08C178.581 44.6293 176.554 42.624 175.104 40.064C173.653 37.4613 172.928 34.4533 172.928 31.04C172.928 27.6267 173.653 24.64 175.104 22.08C176.554 19.4773 178.581 17.4507 181.184 16C183.786 14.5493 186.773 13.8027 190.144 13.76C194.154 13.76 197.376 14.592 199.808 16.256C202.24 17.8773 203.968 20.1813 204.992 23.168C206.016 26.1547 206.378 29.696 206.08 33.792H178.88V28.544H199.68Z" fill="#E0D3E9"/>
<path d="M239.172 45.312C240.708 45.056 242.18 44.5867 243.588 43.904C245.038 43.2213 246.34 42.3467 247.492 41.28C247.577 41.2373 247.748 41.088 248.004 40.832C248.26 40.576 248.43 40.4907 248.516 40.576C248.601 40.6613 248.58 40.7893 248.452 40.96C248.324 41.1307 248.217 41.28 248.132 41.408C247.278 42.6453 246.148 43.6693 244.74 44.48C243.374 45.248 241.945 45.8667 240.452 46.336C239.214 46.6773 237.892 46.8053 236.484 46.72C235.076 46.592 233.753 46.2293 232.516 45.632C232.132 45.4613 231.897 45.3333 231.812 45.248C231.726 45.12 231.726 45.0347 231.812 44.992C231.897 44.9493 232.025 44.928 232.196 44.928C232.409 44.928 232.601 44.9493 232.772 44.992C233.241 45.0773 233.774 45.1627 234.372 45.248C235.012 45.2907 235.63 45.3333 236.228 45.376C236.868 45.376 237.444 45.376 237.956 45.376C238.468 45.376 238.873 45.3547 239.172 45.312ZM230.595 26.496C230.382 27.9893 230.276 29.4613 230.276 30.912C230.276 32.32 230.361 33.664 230.532 34.944C230.745 36.1813 231.044 37.2907 231.428 38.272C231.854 39.2533 232.366 40.064 232.964 40.704C233.646 41.3867 234.478 41.92 235.46 42.304C236.484 42.6453 237.572 42.816 238.724 42.816C239.918 42.816 241.156 42.6453 242.436 42.304C243.758 41.9627 245.06 41.4293 246.34 40.704C246.596 40.5333 246.766 40.4907 246.852 40.576C246.937 40.6613 246.894 40.768 246.724 40.896C246.596 40.9813 246.468 41.0667 246.34 41.152C245.23 42.0053 244.057 42.688 242.82 43.2C241.582 43.712 240.324 44.032 239.044 44.16C237.806 44.288 236.59 44.224 235.396 43.968C234.244 43.6693 233.198 43.136 232.26 42.368C231.364 41.6 230.638 40.6827 230.084 39.616C229.529 38.5067 229.102 37.312 228.804 36.032C228.548 34.7093 228.398 33.344 228.356 31.936C228.313 30.528 228.356 29.1413 228.484 27.776C228.654 25.6 229.081 23.4027 229.764 21.184C230.446 18.9653 231.342 16.9173 232.452 15.04C233.604 13.1627 234.969 11.52 236.548 10.112C238.126 8.704 239.897 7.72267 241.86 7.168C242.841 6.912 243.844 6.80533 244.868 6.848C245.892 6.89067 246.83 7.08267 247.684 7.424C248.58 7.76533 249.348 8.27733 249.988 8.96C250.628 9.6 251.054 10.3893 251.268 11.328C251.481 12.352 251.396 13.3547 251.012 14.336C250.628 15.2747 250.094 16.1067 249.412 16.832C248.729 17.5147 247.961 18.0053 247.108 18.304C246.254 18.6027 245.444 18.6027 244.676 18.304C244.633 18.304 244.59 18.24 244.548 18.112C244.548 17.984 244.633 17.9413 244.804 17.984C245.316 18.0693 245.892 17.9627 246.532 17.664C247.214 17.3227 247.812 16.8747 248.324 16.32C248.878 15.7653 249.305 15.104 249.604 14.336C249.945 13.568 250.052 12.7787 249.924 11.968C249.796 11.3707 249.518 10.8587 249.092 10.432C248.708 9.96266 248.196 9.6 247.556 9.344C246.916 9.04533 246.19 8.85333 245.38 8.768C244.612 8.68267 243.801 8.72533 242.948 8.896C241.326 9.19467 239.812 9.92 238.404 11.072C237.038 12.1813 235.822 13.5467 234.756 15.168C233.689 16.7893 232.793 18.6027 232.068 20.608C231.342 22.5707 230.852 24.5333 230.595 26.496ZM235.652 47.68C236.121 47.7227 236.59 47.744 237.06 47.744C237.572 47.744 237.828 47.808 237.828 47.936C237.828 47.9787 237.742 48 237.572 48C237.401 48.0427 237.209 48.064 236.996 48.064C236.825 48.064 236.633 48.064 236.42 48.064C236.206 48.064 236.078 48.064 236.036 48.064C234.713 48.064 233.412 47.872 232.132 47.488C230.852 47.104 229.657 46.5707 228.548 45.888C227.481 45.1627 226.521 44.288 225.668 43.264C224.814 42.24 224.174 41.0667 223.748 39.744C222.894 37.1413 222.404 34.6027 222.276 32.128C222.148 29.6533 222.254 27.2213 222.596 24.832C222.766 23.4667 223.086 21.9307 223.556 20.224C224.068 18.4747 224.729 16.704 225.54 14.912C226.393 13.12 227.438 11.3493 228.676 9.6C229.956 7.85066 231.47 6.25067 233.22 4.8C235.054 3.264 237.081 2.24 239.3 1.728C241.561 1.216 243.716 1.13066 245.764 1.472C247.812 1.81333 249.625 2.53866 251.204 3.648C252.782 4.71466 253.828 6.08 254.34 7.744C254.382 7.82933 254.425 8.02133 254.468 8.32C254.51 8.576 254.489 8.74666 254.404 8.832C254.361 8.87467 254.297 8.768 254.212 8.512C254.126 8.256 254.041 8.08533 253.956 8C252.164 5.568 250.137 4.032 247.876 3.392C245.614 2.70933 243.374 2.64533 241.156 3.2C238.937 3.712 236.846 4.69333 234.884 6.144C232.921 7.552 231.364 9.13066 230.212 10.88C228.206 13.9093 226.67 17.1307 225.604 20.544C224.58 23.9573 224.11 27.4773 224.196 31.104C224.238 32.768 224.409 34.5173 224.708 36.352C225.049 38.1867 225.689 39.936 226.628 41.6C227.566 43.3067 228.846 44.736 230.468 45.888C232.132 46.9973 233.86 47.5947 235.652 47.68ZM226.436 23.616C226.777 21.3547 227.31 19.1573 228.036 17.024C228.804 14.8907 229.785 12.9493 230.98 11.2C232.217 9.408 233.732 7.872 235.524 6.592C237.316 5.312 239.428 4.416 241.86 3.904C242.713 3.73333 243.673 3.66933 244.74 3.712C245.806 3.712 246.873 3.904 247.94 4.288C249.006 4.62933 249.988 5.16267 250.884 5.888C251.822 6.61333 252.59 7.616 253.188 8.896C253.742 10.1333 253.934 11.3493 253.764 12.544C253.593 13.7387 253.23 14.8267 252.676 15.808C252.121 16.7467 251.438 17.536 250.628 18.176C249.817 18.816 249.028 19.1787 248.26 19.264C247.79 19.3493 247.534 19.3493 247.492 19.264C247.449 19.136 247.684 18.9867 248.196 18.816C249.006 18.56 249.817 17.92 250.628 16.896C251.481 15.8293 251.993 14.4853 252.164 12.864C252.249 12.0533 252.142 11.264 251.844 10.496C251.545 9.68533 251.118 8.98133 250.564 8.384C250.009 7.78667 249.348 7.27467 248.58 6.848C247.812 6.42133 247.001 6.144 246.148 6.016C244.313 5.76 242.628 5.888 241.092 6.4C239.556 6.912 238.212 7.57333 237.06 8.384C235.95 9.152 235.033 9.92 234.308 10.688C233.625 11.456 233.198 11.968 233.028 12.224C231.705 13.888 230.553 15.7013 229.572 17.664C228.59 19.584 227.78 21.6107 227.14 23.744C227.14 23.7867 227.097 23.936 227.012 24.192C226.969 24.448 226.905 24.7253 226.82 25.024C226.777 25.28 226.713 25.536 226.628 25.792C226.542 26.0053 226.478 26.112 226.436 26.112C226.35 26.112 226.308 25.984 226.308 25.728C226.308 25.472 226.308 25.216 226.308 24.96C226.308 24.6613 226.329 24.384 226.372 24.128C226.414 23.872 226.436 23.7013 226.436 23.616ZM258.323 0.511997H265.683V48H258.323V0.511997ZM291.47 13.76C294.968 13.76 298.04 14.4853 300.686 15.936C303.374 17.3867 305.464 19.4133 306.958 22.016C308.451 24.576 309.198 27.5627 309.198 30.976C309.198 34.3893 308.451 37.3973 306.958 40C305.464 42.6027 303.374 44.6293 300.686 46.08C298.04 47.5307 294.968 48.256 291.47 48.256C287.971 48.256 284.878 47.5307 282.19 46.08C279.502 44.6293 277.411 42.6027 275.918 40C274.424 37.3973 273.678 34.3893 273.678 30.976C273.678 27.5627 274.424 24.576 275.918 22.016C277.411 19.4133 279.502 17.3867 282.19 15.936C284.878 14.4853 287.971 13.76 291.47 13.76ZM291.47 19.712C289.422 19.712 287.608 20.2027 286.03 21.184C284.451 22.1227 283.214 23.4453 282.318 25.152C281.464 26.8587 281.038 28.8213 281.038 31.04C281.038 33.3013 281.464 35.2853 282.318 36.992C283.214 38.6987 284.451 40.0427 286.03 41.024C287.608 41.9627 289.422 42.432 291.47 42.432C293.518 42.432 295.31 41.9627 296.846 41.024C298.424 40.0427 299.64 38.6987 300.494 36.992C301.39 35.2853 301.838 33.3013 301.838 31.04C301.838 28.8213 301.39 26.8587 300.494 25.152C299.64 23.4453 298.424 22.1227 296.846 21.184C295.31 20.2027 293.518 19.712 291.47 19.712ZM323.15 33.216C323.15 35.8613 323.854 37.952 325.262 39.488C326.67 40.9813 328.611 41.728 331.086 41.728C334.03 41.6427 336.312 40.5547 337.934 38.464C339.598 36.3733 340.43 33.792 340.43 30.72H342.414C342.414 34.9013 341.838 38.272 340.686 40.832C339.534 43.392 337.891 45.2693 335.758 46.464C333.667 47.616 331.171 48.2133 328.27 48.256C325.667 48.256 323.427 47.7227 321.55 46.656C319.715 45.5893 318.286 44.0747 317.262 42.112C316.28 40.1493 315.79 37.824 315.79 35.136V14.016H323.15V33.216ZM340.43 14.016H347.79V48H340.43V14.016ZM371.682 13.696C374.839 13.696 377.506 14.4 379.682 15.808C381.901 17.1733 383.586 19.1573 384.738 21.76C385.933 24.32 386.509 27.392 386.466 30.976C386.509 34.56 385.954 37.6533 384.802 40.256C383.65 42.8587 381.965 44.864 379.746 46.272C377.57 47.6373 374.925 48.32 371.81 48.32C368.567 48.32 365.709 47.5947 363.234 46.144C360.802 44.6507 358.903 42.6027 357.538 40C356.173 37.3547 355.49 34.3253 355.49 30.912C355.49 27.4987 356.173 24.512 357.538 21.952C358.903 19.3493 360.802 17.3227 363.234 15.872C365.666 14.4213 368.482 13.696 371.682 13.696ZM373.346 19.648C371.298 19.648 369.485 20.1387 367.906 21.12C366.327 22.1013 365.09 23.4667 364.194 25.216C363.341 26.9227 362.893 28.8853 362.85 31.104C362.893 33.3227 363.341 35.2853 364.194 36.992C365.09 38.6987 366.327 40.0427 367.906 41.024C369.485 42.0053 371.298 42.496 373.346 42.496C375.394 42.496 377.207 42.0053 378.786 41.024C380.365 40.0427 381.581 38.6987 382.434 36.992C383.33 35.2853 383.778 33.3227 383.778 31.104C383.778 28.8427 383.33 26.8587 382.434 25.152C381.581 23.4453 380.365 22.1013 378.786 21.12C377.207 20.1387 375.394 19.648 373.346 19.648ZM383.778 0.511997H391.138V48H383.778V0.511997Z" fill="#6878DC"/>
</g>
<defs>
<filter id="filter0_d_1_3" x="0.0800018" y="0.511997" width="395.058" height="55.808" filterUnits="userSpaceOnUse" color-interpolation-filters="sRGB">
<feFlood flood-opacity="0" result="BackgroundImageFix"/>
<feColorMatrix in="SourceAlpha" type="matrix" values="0 0 0 0 0 0 0 0 0 0 0 0 0 0 0 0 0 0 127 0" result="hardAlpha"/>
<feOffset dy="4"/>
<feGaussianBlur stdDeviation="2"/>
<feComposite in2="hardAlpha" operator="out"/>
<feColorMatrix type="matrix" values="0 0 0 0 0 0 0 0 0 0 0 0 0 0 0 0 0 0 0.25 0"/>
<feBlend mode="normal" in2="BackgroundImageFix" result="effect1_dropShadow_1_3"/>
<feBlend mode="normal" in="SourceGraphic" in2="effect1_dropShadow_1_3" result="shape"/>
</filter>
</defs>
</svg>
