<svg width="421" height="84" viewBox="0 0 421 84" fill="none" xmlns="http://www.w3.org/2000/svg">
<g clip-path="url(#clip0_31_3)">
<g filter="url(#filter0_d_31_3)">
<path d="M17 64.6973C14.5872 64.6973 12.3294 64.4538 10.2266 63.9668C8.12371 63.4798 5.88803 62.7272 3.51954 61.709L3.45313 53.1758H8.4004L9.62891 58.3223C11.9753 59.2962 14.4323 59.7832 17 59.7832C19.6563 59.7832 21.5599 59.2741 22.7109 58.2559C23.862 57.2376 24.4375 55.9759 24.4375 54.4707C24.4375 53.054 23.8509 51.8587 22.6777 50.8848C21.5267 49.8887 19.4238 49.0475 16.3691 48.3613C12.0306 47.3652 8.83204 46.0371 6.77345 44.377C4.73699 42.6947 3.71876 40.459 3.71876 37.6699C3.71876 35.722 4.28321 33.9733 5.41212 32.4238C6.54102 30.8965 8.11264 29.679 10.127 28.7715C12.1413 27.8639 14.4876 27.4102 17.166 27.4102C19.8887 27.4102 22.2129 27.7201 24.1387 28.3398C26.0866 28.9596 27.78 29.7897 29.2188 30.8301L29.5508 39.0312H24.6367L23.5742 34.25C21.9583 33.0547 19.8223 32.457 17.166 32.457C15.1296 32.457 13.4694 32.9329 12.1856 33.8848C10.9238 34.8366 10.293 36.0319 10.293 37.4707C10.293 38.2897 10.4811 39.0202 10.8574 39.6621C11.2559 40.3483 12.0527 40.946 13.2481 41.4551C14.4434 41.9642 15.8711 42.418 17.5313 42.8164C22.5339 43.9896 26.0202 45.4837 27.9902 47.2988C29.9824 49.1139 30.9785 51.3496 30.9785 54.0059C30.9785 57.0384 29.8496 59.584 27.5918 61.6426C25.3561 63.679 21.8255 64.6973 17 64.6973ZM235.302 61.06C236.982 60.78 238.592 60.2667 240.132 59.52C241.718 58.7733 243.142 57.8167 244.402 56.65C244.495 56.6033 244.682 56.44 244.962 56.16C245.242 55.88 245.428 55.7867 245.522 55.88C245.615 55.9733 245.592 56.1133 245.452 56.3C245.312 56.4867 245.195 56.65 245.102 56.79C244.168 58.1433 242.932 59.2633 241.392 60.15C239.898 60.99 238.335 61.6667 236.702 62.18C235.348 62.5533 233.902 62.6933 232.362 62.6C230.822 62.46 229.375 62.0633 228.022 61.41C227.602 61.2233 227.345 61.0833 227.252 60.99C227.158 60.85 227.158 60.7567 227.252 60.71C227.345 60.6633 227.485 60.64 227.672 60.64C227.905 60.64 228.115 60.6633 228.302 60.71C228.815 60.8033 229.398 60.8967 230.052 60.99C230.752 61.0367 231.428 61.0833 232.082 61.13C232.782 61.13 233.412 61.13 233.972 61.13C234.532 61.13 234.975 61.1067 235.302 61.06ZM225.922 40.48C225.688 42.1133 225.572 43.7233 225.572 45.31C225.572 46.85 225.665 48.32 225.852 49.72C226.085 51.0733 226.412 52.2867 226.832 53.36C227.298 54.4333 227.858 55.32 228.512 56.02C229.258 56.7667 230.168 57.35 231.242 57.77C232.362 58.1433 233.552 58.33 234.812 58.33C236.118 58.33 237.472 58.1433 238.872 57.77C240.318 57.3967 241.742 56.8133 243.142 56.02C243.422 55.8333 243.608 55.7867 243.702 55.88C243.795 55.9733 243.748 56.09 243.562 56.23C243.422 56.3233 243.282 56.4167 243.142 56.51C241.928 57.4433 240.645 58.19 239.292 58.75C237.938 59.31 236.562 59.66 235.162 59.8C233.808 59.94 232.478 59.87 231.172 59.59C229.912 59.2633 228.768 58.68 227.742 57.84C226.762 57 225.968 55.9967 225.362 54.83C224.755 53.6167 224.288 52.31 223.962 50.91C223.682 49.4633 223.518 47.97 223.472 46.43C223.425 44.89 223.472 43.3733 223.612 41.88C223.798 39.5 224.265 37.0967 225.012 34.67C225.758 32.2433 226.738 30.0033 227.952 27.95C229.212 25.8967 230.705 24.1 232.432 22.56C234.158 21.02 236.095 19.9467 238.242 19.34C239.315 19.06 240.412 18.9433 241.532 18.99C242.652 19.0367 243.678 19.2467 244.612 19.62C245.592 19.9933 246.432 20.5533 247.132 21.3C247.832 22 248.298 22.8633 248.532 23.89C248.765 25.01 248.672 26.1067 248.252 27.18C247.832 28.2067 247.248 29.1167 246.502 29.91C245.755 30.6567 244.915 31.1933 243.982 31.52C243.048 31.8467 242.162 31.8467 241.322 31.52C241.275 31.52 241.228 31.45 241.182 31.31C241.182 31.17 241.275 31.1233 241.462 31.17C242.022 31.2633 242.652 31.1467 243.352 30.82C244.098 30.4467 244.752 29.9567 245.312 29.35C245.918 28.7433 246.385 28.02 246.712 27.18C247.085 26.34 247.202 25.4767 247.062 24.59C246.922 23.9367 246.618 23.3767 246.152 22.91C245.732 22.3967 245.172 22 244.472 21.72C243.772 21.3933 242.978 21.1833 242.092 21.09C241.252 20.9967 240.365 21.0433 239.432 21.23C237.658 21.5567 236.002 22.35 234.462 23.61C232.968 24.8233 231.638 26.3167 230.472 28.09C229.305 29.8633 228.325 31.8467 227.532 34.04C226.738 36.1867 226.202 38.3333 225.922 40.48ZM231.452 63.65C231.965 63.6967 232.478 63.72 232.992 63.72C233.552 63.72 233.832 63.79 233.832 63.93C233.832 63.9767 233.738 64 233.552 64C233.365 64.0467 233.155 64.07 232.922 64.07C232.735 64.07 232.525 64.07 232.292 64.07C232.058 64.07 231.918 64.07 231.872 64.07C230.425 64.07 229.002 63.86 227.602 63.44C226.202 63.02 224.895 62.4367 223.682 61.69C222.515 60.8967 221.465 59.94 220.532 58.82C219.598 57.7 218.898 56.4167 218.432 54.97C217.498 52.1233 216.962 49.3467 216.822 46.64C216.682 43.9333 216.798 41.2733 217.172 38.66C217.358 37.1667 217.708 35.4867 218.222 33.62C218.782 31.7067 219.505 29.77 220.392 27.81C221.325 25.85 222.468 23.9133 223.822 22C225.222 20.0867 226.878 18.3367 228.792 16.75C230.798 15.07 233.015 13.95 235.442 13.39C237.915 12.83 240.272 12.7367 242.512 13.11C244.752 13.4833 246.735 14.2767 248.462 15.49C250.188 16.6567 251.332 18.15 251.892 19.97C251.938 20.0633 251.985 20.2733 252.032 20.6C252.078 20.88 252.055 21.0667 251.962 21.16C251.915 21.2067 251.845 21.09 251.752 20.81C251.658 20.53 251.565 20.3433 251.472 20.25C249.512 17.59 247.295 15.91 244.822 15.21C242.348 14.4633 239.898 14.3933 237.472 15C235.045 15.56 232.758 16.6333 230.612 18.22C228.465 19.76 226.762 21.4867 225.502 23.4C223.308 26.7133 221.628 30.2367 220.462 33.97C219.342 37.7033 218.828 41.5533 218.922 45.52C218.968 47.34 219.155 49.2533 219.482 51.26C219.855 53.2667 220.555 55.18 221.582 57C222.608 58.8667 224.008 60.43 225.782 61.69C227.602 62.9033 229.492 63.5567 231.452 63.65ZM221.372 37.33C221.745 34.8567 222.328 32.4533 223.122 30.12C223.962 27.7867 225.035 25.6633 226.342 23.75C227.695 21.79 229.352 20.11 231.312 18.71C233.272 17.31 235.582 16.33 238.242 15.77C239.175 15.5833 240.225 15.5133 241.392 15.56C242.558 15.56 243.725 15.77 244.892 16.19C246.058 16.5633 247.132 17.1467 248.112 17.94C249.138 18.7333 249.978 19.83 250.632 21.23C251.238 22.5833 251.448 23.9133 251.262 25.22C251.075 26.5267 250.678 27.7167 250.072 28.79C249.465 29.8167 248.718 30.68 247.832 31.38C246.945 32.08 246.082 32.4767 245.242 32.57C244.728 32.6633 244.448 32.6633 244.402 32.57C244.355 32.43 244.612 32.2667 245.172 32.08C246.058 31.8 246.945 31.1 247.832 29.98C248.765 28.8133 249.325 27.3433 249.512 25.57C249.605 24.6833 249.488 23.82 249.162 22.98C248.835 22.0933 248.368 21.3233 247.762 20.67C247.155 20.0167 246.432 19.4567 245.592 18.99C244.752 18.5233 243.865 18.22 242.932 18.08C240.925 17.8 239.082 17.94 237.402 18.5C235.722 19.06 234.252 19.7833 232.992 20.67C231.778 21.51 230.775 22.35 229.982 23.19C229.235 24.03 228.768 24.59 228.582 24.87C227.135 26.69 225.875 28.6733 224.802 30.82C223.728 32.92 222.842 35.1367 222.142 37.47C222.142 37.5167 222.095 37.68 222.002 37.96C221.955 38.24 221.885 38.5433 221.792 38.87C221.745 39.15 221.675 39.43 221.582 39.71C221.488 39.9433 221.418 40.06 221.372 40.06C221.278 40.06 221.232 39.92 221.232 39.64C221.232 39.36 221.232 39.08 221.232 38.8C221.232 38.4733 221.255 38.17 221.302 37.89C221.348 37.61 221.372 37.4233 221.372 37.33Z" fill="#77B0DD"/>
<path d="M52.7598 64.6973C49.4395 64.6973 46.5508 63.9336 44.0938 62.4062C41.6367 60.901 39.7331 58.7982 38.3828 56.0977C37.0547 53.3971 36.3906 50.276 36.3906 46.7344V45.2734C36.3906 41.8424 37.099 38.7878 38.5156 36.1094C39.9102 33.4089 41.7695 31.2839 44.0938 29.7344C46.4401 28.1849 48.9968 27.4102 51.7637 27.4102C54.9955 27.4102 57.707 28.0742 59.8984 29.4023C62.0677 30.7305 63.7057 32.6009 64.8125 35.0137C65.9193 37.4043 66.4727 40.2266 66.4727 43.4805V47.5645H43.1641L43.0645 47.7305C43.0866 49.9883 43.4961 52.0247 44.293 53.8398C45.0677 55.6328 46.1634 57.0384 47.5801 58.0566C49.0189 59.0749 50.7455 59.584 52.7598 59.584C54.9733 59.584 56.9102 59.2741 58.5703 58.6543C60.2526 58.0124 61.7025 57.138 62.9199 56.0312L65.4766 60.2812C64.1927 61.5208 62.4883 62.5723 60.3633 63.4355C58.2604 64.2767 55.7259 64.6973 52.7598 64.6973ZM43.2969 42.2852L43.3633 42.4512H59.9316V41.5879C59.9316 39.8392 59.6328 38.2897 59.0352 36.9395C58.4154 35.5671 57.4968 34.4935 56.2793 33.7188C55.084 32.944 53.5788 32.5566 51.7637 32.5566C50.3249 32.5566 48.9968 32.9772 47.7793 33.8184C45.3001 35.6113 43.806 38.4336 43.2969 42.2852ZM87.8223 64.6973C84.5905 64.6973 81.7572 63.9336 79.3223 62.4062C76.9095 60.901 75.0391 58.7982 73.7109 56.0977C72.3828 53.3971 71.7188 50.276 71.7188 46.7344V45.3398C71.7188 41.8867 72.3607 38.832 73.6445 36.1758C74.9284 33.4753 76.7767 31.3392 79.1895 29.7676C81.6022 28.196 84.4798 27.4102 87.8223 27.4102C90.722 27.4102 93.2565 27.8861 95.4258 28.8379C97.6172 29.7897 99.4544 31.0957 100.938 32.7559L101.104 41.3887H95.9902L94.8613 35.1133C94.1087 34.3385 93.168 33.7188 92.0391 33.2539C90.9102 32.7891 89.582 32.5566 88.0547 32.5566C86.0846 32.5566 84.3802 33.1322 82.9414 34.2832C81.4583 35.4342 80.3073 36.9727 79.4883 38.8984C78.6693 40.8242 78.2598 42.9714 78.2598 45.3398V46.7344C78.2598 49.3242 78.6471 51.5931 79.4219 53.541C80.1966 55.4668 81.2923 56.9609 82.709 58.0234C84.1257 59.0638 85.819 59.584 87.7891 59.584C90.0026 59.584 91.8399 58.9753 93.3008 57.7578C94.7617 56.5404 95.6582 54.8691 95.9902 52.7441H101.867L101.934 52.9434C101.845 54.9577 101.236 56.8835 100.107 58.7207C99.0007 60.5137 97.418 61.9635 95.3594 63.0703C93.3229 64.1549 90.8106 64.6973 87.8223 64.6973ZM122.852 64.6973C118.956 64.6973 115.912 63.4466 113.721 60.9453C111.529 58.444 110.434 54.5482 110.434 49.2578V33.2207L106.316 32.291V28.0742H116.975V49.3242C116.975 53.1536 117.539 55.7878 118.668 57.2266C119.797 58.6654 121.557 59.3848 123.947 59.3848C126.271 59.3848 128.186 58.9199 129.691 57.9902C131.219 57.0384 132.37 55.6992 133.145 53.9727V33.2207L128.33 32.291V28.0742H139.686V58.8867L143.803 59.8164V64H133.809L133.377 58.6875C132.248 60.6133 130.787 62.0964 128.994 63.1367C127.223 64.1771 125.176 64.6973 122.852 64.6973ZM160.305 38.5332V58.8867L165.717 59.8164V64H148.352V59.8164L153.764 58.8867V33.2207L148.352 32.291V28.0742H159.607L160.172 32.6562L160.238 33.2871C161.257 31.4499 162.507 30.0111 163.99 28.9707C165.495 27.9303 167.211 27.4102 169.137 27.4102C169.823 27.4102 170.52 27.4766 171.229 27.6094C171.959 27.7201 172.479 27.8307 172.789 27.9414L171.926 34.0176L167.377 33.752C165.65 33.6413 164.201 34.0397 163.027 34.9473C161.854 35.8327 160.947 37.028 160.305 38.5332ZM193.143 64.6973C189.822 64.6973 186.934 63.9336 184.477 62.4062C182.02 60.901 180.116 58.7982 178.766 56.0977C177.438 53.3971 176.773 50.276 176.773 46.7344V45.2734C176.773 41.8424 177.482 38.7878 178.898 36.1094C180.293 33.4089 182.152 31.2839 184.477 29.7344C186.823 28.1849 189.38 27.4102 192.146 27.4102C195.378 27.4102 198.09 28.0742 200.281 29.4023C202.451 30.7305 204.089 32.6009 205.195 35.0137C206.302 37.4043 206.855 40.2266 206.855 43.4805V47.5645H183.547L183.447 47.7305C183.469 49.9883 183.879 52.0247 184.676 53.8398C185.451 55.6328 186.546 57.0384 187.963 58.0566C189.402 59.0749 191.128 59.584 193.143 59.584C195.356 59.584 197.293 59.2741 198.953 58.6543C200.635 58.0124 202.085 57.138 203.303 56.0312L205.859 60.2812C204.576 61.5208 202.871 62.5723 200.746 63.4355C198.643 64.2767 196.109 64.6973 193.143 64.6973ZM183.68 42.2852L183.746 42.4512H200.314V41.5879C200.314 39.8392 200.016 38.2897 199.418 36.9395C198.798 35.5671 197.88 34.4935 196.662 33.7188C195.467 32.944 193.962 32.5566 192.146 32.5566C190.708 32.5566 189.38 32.9772 188.162 33.8184C185.683 35.6113 184.189 38.4336 183.68 42.2852ZM259.042 59.1875V20.0938L253.948 19.2188V15.25H265.198V59.1875L270.292 60.0625V64H253.948V60.0625L259.042 59.1875ZM289.979 64.6562C286.875 64.6562 284.188 63.9167 281.917 62.4375C279.646 60.9583 277.896 58.9271 276.667 56.3438C275.438 53.7604 274.823 50.8021 274.823 47.4688V46.7812C274.823 43.4688 275.438 40.5 276.667 37.875C277.896 35.2708 279.636 33.2396 281.886 31.7812C284.156 30.3021 286.834 29.5625 289.917 29.5625C293.021 29.5625 295.719 30.3021 298.011 31.7812C300.261 33.2604 302 35.2917 303.229 37.875C304.459 40.4583 305.073 43.4271 305.073 46.7812V47.4688C305.073 50.7812 304.459 53.75 303.229 56.375C302 58.9583 300.261 60.9896 298.011 62.4688C295.761 63.9271 293.084 64.6562 289.979 64.6562ZM289.979 59.8438C291.938 59.8438 293.584 59.3021 294.917 58.2188C296.229 57.1562 297.219 55.6979 297.886 53.8438C298.573 51.9688 298.917 49.8438 298.917 47.4688V46.7812C298.917 44.4271 298.584 42.3021 297.917 40.4062C297.229 38.5521 296.219 37.0938 294.886 36.0312C293.552 34.9479 291.896 34.4062 289.917 34.4062C287.979 34.4062 286.334 34.9375 284.979 36C283.646 37.0833 282.646 38.5625 281.979 40.4375C281.313 42.2917 280.979 44.4062 280.979 46.7812V47.4688C280.979 49.8229 281.313 51.9375 281.979 53.8125C282.646 55.6875 283.646 57.1667 284.979 58.25C286.334 59.3125 288 59.8438 289.979 59.8438ZM324.698 64.6562C321.031 64.6562 318.167 63.4792 316.104 61.125C314.042 58.7708 313.011 55.1042 313.011 50.125V35.0312L309.136 34.1562V30.1875H319.167V50.1875C319.167 53.7917 319.698 56.2708 320.761 57.625C321.823 58.9792 323.479 59.6562 325.729 59.6562C327.917 59.6562 329.719 59.2188 331.136 58.3438C332.573 57.4479 333.656 56.1875 334.386 54.5625V35.0312L329.854 34.1562V30.1875H340.542V59.1875L344.417 60.0625V64H335.011L334.604 59C333.542 60.8125 332.167 62.2083 330.479 63.1875C328.813 64.1667 326.886 64.6562 324.698 64.6562ZM362.042 64.6562C359.313 64.6562 356.959 63.9688 354.979 62.5938C353.021 61.2396 351.511 59.3438 350.448 56.9062C349.406 54.4688 348.886 51.625 348.886 48.375V47.7188C348.886 44.1146 349.406 40.9375 350.448 38.1875C351.49 35.4583 353 33.3438 354.979 31.8438C356.959 30.3229 359.334 29.5625 362.104 29.5625C364.104 29.5625 365.865 29.9375 367.386 30.6875C368.927 31.4167 370.24 32.4792 371.323 33.875V20.0938L366.229 19.2188V15.25H377.479V59.1875L382.573 60.0625V64H372.136L371.636 59.9688C369.386 63.0938 366.188 64.6562 362.042 64.6562ZM363.604 59.6562C365.438 59.6562 366.979 59.2396 368.229 58.4062C369.479 57.5729 370.511 56.3958 371.323 54.875V39.1875C370.531 37.7708 369.5 36.6458 368.229 35.8125C366.959 34.9792 365.438 34.5625 363.667 34.5625C361.729 34.5625 360.115 35.1146 358.823 36.2188C357.552 37.3438 356.604 38.8958 355.979 40.875C355.354 42.8333 355.042 45.1146 355.042 47.7188V48.375C355.042 51.7708 355.74 54.5 357.136 56.5625C358.531 58.625 360.688 59.6562 363.604 59.6562Z" fill="white"/>
</g>
<path d="M384.949 16.4258V14.9375H391.078V16.4258L389.168 16.7539V30.1953L391.078 30.5234V32H384.949V30.5234L386.859 30.1953V16.7539L384.949 16.4258ZM407.344 14.9375V19.0508H405.633L405.281 16.6836H401.414V30.1953L403.324 30.5234V32H397.195V30.5234L399.105 30.1953V16.6836H395.238L394.898 19.0508H393.164V14.9375H407.344Z" fill="#77B0DD"/>
</g>
<defs>
<filter id="filter0_d_31_3" x="-0.546867" y="12.55" width="387.12" height="60.1473" filterUnits="userSpaceOnUse" color-interpolation-filters="sRGB">
<feFlood flood-opacity="0" result="BackgroundImageFix"/>
<feColorMatrix in="SourceAlpha" type="matrix" values="0 0 0 0 0 0 0 0 0 0 0 0 0 0 0 0 0 0 127 0" result="hardAlpha"/>
<feOffset dy="4"/>
<feGaussianBlur stdDeviation="2"/>
<feComposite in2="hardAlpha" operator="out"/>
<feColorMatrix type="matrix" values="0 0 0 0 0 0 0 0 0 0 0 0 0 0 0 0 0 0 0.25 0"/>
<feBlend mode="normal" in2="BackgroundImageFix" result="effect1_dropShadow_31_3"/>
<feBlend mode="normal" in="SourceGraphic" in2="effect1_dropShadow_31_3" result="shape"/>
</filter>
<clipPath id="clip0_31_3">
<rect width="421" height="84" fill="white"/>
</clipPath>
</defs>
</svg>
