<svg width="475" height="141" viewBox="0 0 475 141" fill="none" xmlns="http://www.w3.org/2000/svg">
<g filter="url(#filter0_d_1_2)">
<path d="M55.152 51.568C53.5307 50.544 51.9307 49.7333 50.352 49.136C48.7733 48.5387 47.28 48.112 45.872 47.856C44.464 47.6 43.184 47.472 42.032 47.472C39.8133 47.472 38.0427 47.8987 36.72 48.752C35.3973 49.6053 34.736 50.8427 34.736 52.464C34.736 53.9147 35.1627 55.1093 36.016 56.048C36.912 56.944 38.064 57.6907 39.472 58.288C40.9227 58.8427 42.5013 59.376 44.208 59.888C45.9573 60.4 47.6853 60.976 49.392 61.616C51.0987 62.2133 52.6773 63.0027 54.128 63.984C55.5787 64.9653 56.7307 66.224 57.584 67.76C58.4373 69.2533 58.864 71.152 58.864 73.456C58.864 76.1013 58.1387 78.4053 56.688 80.368C55.2373 82.288 53.232 83.7813 50.672 84.848C48.1547 85.9147 45.2533 86.448 41.968 86.448C39.6213 86.448 37.3387 86.1493 35.12 85.552C32.9013 84.912 30.8107 84.0587 28.848 82.992C26.928 81.9253 25.2 80.688 23.664 79.28L26.928 73.072C28.464 74.48 30.0853 75.6747 31.792 76.656C33.5413 77.6373 35.2907 78.384 37.04 78.896C38.832 79.408 40.5173 79.664 42.096 79.664C44.7413 79.664 46.7893 79.152 48.24 78.128C49.7333 77.104 50.48 75.6747 50.48 73.84C50.48 72.3467 50.032 71.152 49.136 70.256C48.2827 69.3173 47.1307 68.5493 45.68 67.952C44.272 67.3547 42.6933 66.8213 40.944 66.352C39.2373 65.8827 37.5093 65.3493 35.76 64.752C34.0533 64.112 32.4747 63.3227 31.024 62.384C29.616 61.4453 28.464 60.2293 27.568 58.736C26.7147 57.2427 26.288 55.344 26.288 53.04C26.288 50.5227 26.9707 48.3467 28.336 46.512C29.7013 44.6347 31.6 43.184 34.032 42.16C36.5067 41.136 39.3653 40.624 42.608 40.624C45.5093 40.624 48.3253 41.0507 51.056 41.904C53.7867 42.7573 56.1973 43.8667 58.288 45.232L55.152 51.568ZM90.8045 66.544C90.7192 64.624 90.2712 63.0027 89.4605 61.68C88.6925 60.3147 87.6045 59.2693 86.1965 58.544C84.7885 57.776 83.1672 57.392 81.3325 57.392C79.2845 57.392 77.4925 57.8613 75.9565 58.8C74.4632 59.7387 73.2898 61.0613 72.4365 62.768C71.5832 64.432 71.1565 66.3947 71.1565 68.656C71.1565 71.088 71.6045 73.2 72.5005 74.992C73.4392 76.784 74.7192 78.1707 76.3405 79.152C78.0045 80.1333 79.9032 80.624 82.0365 80.624C85.8338 80.624 89.0338 79.28 91.6365 76.592L95.5405 80.496C93.8765 82.3307 91.8498 83.76 89.4605 84.784C87.0712 85.7653 84.4045 86.256 81.4605 86.256C77.9618 86.256 74.9112 85.5307 72.3085 84.08C69.7058 82.6293 67.6792 80.624 66.2285 78.064C64.7778 75.4613 64.0525 72.4533 64.0525 69.04C64.0525 65.6267 64.7778 62.64 66.2285 60.08C67.6792 57.4773 69.7058 55.4507 72.3085 54C74.9112 52.5493 77.8978 51.8027 81.2685 51.76C85.2792 51.76 88.5005 52.592 90.9325 54.256C93.3645 55.8773 95.0925 58.1813 96.1165 61.168C97.1405 64.1547 97.5032 67.696 97.2045 71.792H70.0045V66.544H90.8045ZM128.878 61.744C127.683 60.5067 126.275 59.5467 124.654 58.864C123.032 58.1813 121.198 57.84 119.15 57.84C117.187 57.84 115.438 58.3093 113.902 59.248C112.366 60.1867 111.171 61.5093 110.318 63.216C109.464 64.88 109.038 66.8213 109.038 69.04C109.038 71.2587 109.464 73.2213 110.318 74.928C111.171 76.592 112.366 77.9147 113.902 78.896C115.438 79.8347 117.187 80.304 119.15 80.304C121.283 80.304 123.203 79.9627 124.91 79.28C126.616 78.5547 128.046 77.5093 129.198 76.144L133.294 80.176C131.758 82.096 129.752 83.5893 127.278 84.656C124.846 85.7227 122.03 86.256 118.83 86.256C115.459 86.256 112.472 85.5307 109.87 84.08C107.31 82.6293 105.304 80.624 103.854 78.064C102.403 75.4613 101.678 72.4533 101.678 69.04C101.678 65.6267 102.403 62.64 103.854 60.08C105.304 57.4773 107.31 55.4507 109.87 54C112.472 52.5067 115.459 51.76 118.83 51.76C121.902 51.76 124.611 52.2293 126.958 53.168C129.347 54.064 131.331 55.344 132.91 57.008L128.878 61.744ZM147.275 71.216C147.275 73.8613 147.979 75.952 149.387 77.488C150.795 78.9813 152.736 79.728 155.211 79.728C158.155 79.6427 160.437 78.5547 162.059 76.464C163.723 74.3733 164.555 71.792 164.555 68.72H166.539C166.539 72.9013 165.963 76.272 164.811 78.832C163.659 81.392 162.016 83.2693 159.883 84.464C157.792 85.616 155.296 86.2133 152.395 86.256C149.792 86.256 147.552 85.7227 145.675 84.656C143.84 83.5893 142.411 82.0747 141.387 80.112C140.405 78.1493 139.915 75.824 139.915 73.136V52.016H147.275V71.216ZM164.555 52.016H171.915V86H164.555V52.016ZM201.951 58.416C199.519 58.288 197.407 58.7147 195.615 59.696C193.866 60.6347 192.5 61.9573 191.519 63.664C190.58 65.3707 190.111 67.3333 190.111 69.552L188.063 69.296C188.063 65.4987 188.618 62.2987 189.727 59.696C190.836 57.0933 192.436 55.1307 194.527 53.808C196.618 52.4427 199.092 51.76 201.951 51.76V58.416ZM182.815 52.016H190.175V86H182.815V52.016ZM231.555 66.544C231.469 64.624 231.021 63.0027 230.211 61.68C229.443 60.3147 228.355 59.2693 226.947 58.544C225.539 57.776 223.917 57.392 222.083 57.392C220.035 57.392 218.243 57.8613 216.707 58.8C215.213 59.7387 214.04 61.0613 213.187 62.768C212.333 64.432 211.907 66.3947 211.907 68.656C211.907 71.088 212.355 73.2 213.251 74.992C214.189 76.784 215.469 78.1707 217.091 79.152C218.755 80.1333 220.653 80.624 222.787 80.624C226.584 80.624 229.784 79.28 232.387 76.592L236.291 80.496C234.627 82.3307 232.6 83.76 230.211 84.784C227.821 85.7653 225.155 86.256 222.211 86.256C218.712 86.256 215.661 85.5307 213.059 84.08C210.456 82.6293 208.429 80.624 206.979 78.064C205.528 75.4613 204.803 72.4533 204.803 69.04C204.803 65.6267 205.528 62.64 206.979 60.08C208.429 57.4773 210.456 55.4507 213.059 54C215.661 52.5493 218.648 51.8027 222.019 51.76C226.029 51.76 229.251 52.592 231.683 54.256C234.115 55.8773 235.843 58.1813 236.867 61.168C237.891 64.1547 238.253 67.696 237.955 71.792H210.755V66.544H231.555Z" fill="#E0D3E9"/>
<path d="M271.047 83.312C272.583 83.056 274.055 82.5867 275.463 81.904C276.913 81.2213 278.215 80.3467 279.367 79.28C279.452 79.2373 279.623 79.088 279.879 78.832C280.135 78.576 280.305 78.4907 280.391 78.576C280.476 78.6613 280.455 78.7893 280.327 78.96C280.199 79.1307 280.092 79.28 280.007 79.408C279.153 80.6453 278.023 81.6693 276.615 82.48C275.249 83.248 273.82 83.8667 272.327 84.336C271.089 84.6773 269.767 84.8053 268.359 84.72C266.951 84.592 265.628 84.2293 264.391 83.632C264.007 83.4613 263.772 83.3333 263.687 83.248C263.601 83.12 263.601 83.0347 263.687 82.992C263.772 82.9493 263.9 82.928 264.071 82.928C264.284 82.928 264.476 82.9493 264.647 82.992C265.116 83.0773 265.649 83.1627 266.247 83.248C266.887 83.2907 267.505 83.3333 268.103 83.376C268.743 83.376 269.319 83.376 269.831 83.376C270.343 83.376 270.748 83.3547 271.047 83.312ZM262.47 64.496C262.257 65.9893 262.151 67.4613 262.151 68.912C262.151 70.32 262.236 71.664 262.407 72.944C262.62 74.1813 262.919 75.2907 263.303 76.272C263.729 77.2533 264.241 78.064 264.839 78.704C265.521 79.3867 266.353 79.92 267.335 80.304C268.359 80.6453 269.447 80.816 270.599 80.816C271.793 80.816 273.031 80.6453 274.311 80.304C275.633 79.9627 276.935 79.4293 278.215 78.704C278.471 78.5333 278.641 78.4907 278.727 78.576C278.812 78.6613 278.769 78.768 278.599 78.896C278.471 78.9813 278.343 79.0667 278.215 79.152C277.105 80.0053 275.932 80.688 274.695 81.2C273.457 81.712 272.199 82.032 270.919 82.16C269.681 82.288 268.465 82.224 267.271 81.968C266.119 81.6693 265.073 81.136 264.135 80.368C263.239 79.6 262.513 78.6827 261.959 77.616C261.404 76.5067 260.977 75.312 260.679 74.032C260.423 72.7093 260.273 71.344 260.231 69.936C260.188 68.528 260.231 67.1413 260.359 65.776C260.529 63.6 260.956 61.4027 261.639 59.184C262.321 56.9653 263.217 54.9173 264.327 53.04C265.479 51.1627 266.844 49.52 268.423 48.112C270.001 46.704 271.772 45.7227 273.735 45.168C274.716 44.912 275.719 44.8053 276.743 44.848C277.767 44.8907 278.705 45.0827 279.559 45.424C280.455 45.7653 281.223 46.2773 281.863 46.96C282.503 47.6 282.929 48.3893 283.143 49.328C283.356 50.352 283.271 51.3547 282.887 52.336C282.503 53.2747 281.969 54.1067 281.287 54.832C280.604 55.5147 279.836 56.0053 278.983 56.304C278.129 56.6027 277.319 56.6027 276.551 56.304C276.508 56.304 276.465 56.24 276.423 56.112C276.423 55.984 276.508 55.9413 276.679 55.984C277.191 56.0693 277.767 55.9627 278.407 55.664C279.089 55.3227 279.687 54.8747 280.199 54.32C280.753 53.7653 281.18 53.104 281.479 52.336C281.82 51.568 281.927 50.7787 281.799 49.968C281.671 49.3707 281.393 48.8587 280.967 48.432C280.583 47.9627 280.071 47.6 279.431 47.344C278.791 47.0453 278.065 46.8533 277.255 46.768C276.487 46.6827 275.676 46.7253 274.823 46.896C273.201 47.1947 271.687 47.92 270.279 49.072C268.913 50.1813 267.697 51.5467 266.631 53.168C265.564 54.7893 264.668 56.6027 263.943 58.608C263.217 60.5707 262.727 62.5333 262.47 64.496ZM267.527 85.68C267.996 85.7227 268.465 85.744 268.935 85.744C269.447 85.744 269.703 85.808 269.703 85.936C269.703 85.9787 269.617 86 269.447 86C269.276 86.0427 269.084 86.064 268.871 86.064C268.7 86.064 268.508 86.064 268.295 86.064C268.081 86.064 267.953 86.064 267.911 86.064C266.588 86.064 265.287 85.872 264.007 85.488C262.727 85.104 261.532 84.5707 260.423 83.888C259.356 83.1627 258.396 82.288 257.543 81.264C256.689 80.24 256.049 79.0667 255.623 77.744C254.769 75.1413 254.279 72.6027 254.151 70.128C254.023 67.6533 254.129 65.2213 254.471 62.832C254.641 61.4667 254.961 59.9307 255.431 58.224C255.943 56.4747 256.604 54.704 257.415 52.912C258.268 51.12 259.313 49.3493 260.551 47.6C261.831 45.8507 263.345 44.2507 265.095 42.8C266.929 41.264 268.956 40.24 271.175 39.728C273.436 39.216 275.591 39.1307 277.639 39.472C279.687 39.8133 281.5 40.5387 283.079 41.648C284.657 42.7147 285.703 44.08 286.215 45.744C286.257 45.8293 286.3 46.0213 286.343 46.32C286.385 46.576 286.364 46.7467 286.279 46.832C286.236 46.8747 286.172 46.768 286.087 46.512C286.001 46.256 285.916 46.0853 285.831 46C284.039 43.568 282.012 42.032 279.751 41.392C277.489 40.7093 275.249 40.6453 273.031 41.2C270.812 41.712 268.721 42.6933 266.759 44.144C264.796 45.552 263.239 47.1307 262.087 48.88C260.081 51.9093 258.545 55.1307 257.479 58.544C256.455 61.9573 255.985 65.4773 256.071 69.104C256.113 70.768 256.284 72.5173 256.583 74.352C256.924 76.1867 257.564 77.936 258.503 79.6C259.441 81.3067 260.721 82.736 262.343 83.888C264.007 84.9973 265.735 85.5947 267.527 85.68ZM258.311 61.616C258.652 59.3547 259.185 57.1573 259.911 55.024C260.679 52.8907 261.66 50.9493 262.855 49.2C264.092 47.408 265.607 45.872 267.399 44.592C269.191 43.312 271.303 42.416 273.735 41.904C274.588 41.7333 275.548 41.6693 276.615 41.712C277.681 41.712 278.748 41.904 279.815 42.288C280.881 42.6293 281.863 43.1627 282.759 43.888C283.697 44.6133 284.465 45.616 285.062 46.896C285.617 48.1333 285.809 49.3493 285.639 50.544C285.468 51.7387 285.105 52.8267 284.551 53.808C283.996 54.7467 283.313 55.536 282.503 56.176C281.692 56.816 280.903 57.1787 280.135 57.264C279.665 57.3493 279.409 57.3493 279.367 57.264C279.324 57.136 279.559 56.9867 280.071 56.816C280.881 56.56 281.692 55.92 282.503 54.896C283.356 53.8293 283.868 52.4853 284.039 50.864C284.124 50.0533 284.017 49.264 283.719 48.496C283.42 47.6853 282.993 46.9813 282.439 46.384C281.884 45.7867 281.223 45.2747 280.455 44.848C279.687 44.4213 278.876 44.144 278.023 44.016C276.188 43.76 274.503 43.888 272.967 44.4C271.431 44.912 270.087 45.5733 268.935 46.384C267.825 47.152 266.908 47.92 266.183 48.688C265.5 49.456 265.073 49.968 264.903 50.224C263.58 51.888 262.428 53.7013 261.447 55.664C260.465 57.584 259.655 59.6107 259.015 61.744C259.015 61.7867 258.972 61.936 258.887 62.192C258.844 62.448 258.78 62.7253 258.695 63.024C258.652 63.28 258.588 63.536 258.503 63.792C258.417 64.0053 258.353 64.112 258.311 64.112C258.225 64.112 258.183 63.984 258.183 63.728C258.183 63.472 258.183 63.216 258.183 62.96C258.183 62.6613 258.204 62.384 258.247 62.128C258.289 61.872 258.311 61.7013 258.311 61.616ZM290.198 38.512H297.558V86H290.198V38.512ZM323.345 51.76C326.843 51.76 329.915 52.4853 332.561 53.936C335.249 55.3867 337.339 57.4133 338.833 60.016C340.326 62.576 341.073 65.5627 341.073 68.976C341.073 72.3893 340.326 75.3973 338.833 78C337.339 80.6027 335.249 82.6293 332.561 84.08C329.915 85.5307 326.843 86.256 323.345 86.256C319.846 86.256 316.753 85.5307 314.065 84.08C311.377 82.6293 309.286 80.6027 307.793 78C306.299 75.3973 305.553 72.3893 305.553 68.976C305.553 65.5627 306.299 62.576 307.793 60.016C309.286 57.4133 311.377 55.3867 314.065 53.936C316.753 52.4853 319.846 51.76 323.345 51.76ZM323.345 57.712C321.297 57.712 319.483 58.2027 317.905 59.184C316.326 60.1227 315.089 61.4453 314.193 63.152C313.339 64.8587 312.913 66.8213 312.913 69.04C312.913 71.3013 313.339 73.2853 314.193 74.992C315.089 76.6987 316.326 78.0427 317.905 79.024C319.483 79.9627 321.297 80.432 323.345 80.432C325.393 80.432 327.185 79.9627 328.721 79.024C330.299 78.0427 331.515 76.6987 332.369 74.992C333.265 73.2853 333.713 71.3013 333.713 69.04C333.713 66.8213 333.265 64.8587 332.369 63.152C331.515 61.4453 330.299 60.1227 328.721 59.184C327.185 58.2027 325.393 57.712 323.345 57.712ZM355.025 71.216C355.025 73.8613 355.729 75.952 357.137 77.488C358.545 78.9813 360.486 79.728 362.961 79.728C365.905 79.6427 368.187 78.5547 369.809 76.464C371.473 74.3733 372.305 71.792 372.305 68.72H374.289C374.289 72.9013 373.713 76.272 372.561 78.832C371.409 81.392 369.766 83.2693 367.633 84.464C365.542 85.616 363.046 86.2133 360.145 86.256C357.542 86.256 355.302 85.7227 353.425 84.656C351.59 83.5893 350.161 82.0747 349.137 80.112C348.155 78.1493 347.665 75.824 347.665 73.136V52.016H355.025V71.216ZM372.305 52.016H379.665V86H372.305V52.016ZM403.557 51.696C406.714 51.696 409.381 52.4 411.557 53.808C413.776 55.1733 415.461 57.1573 416.613 59.76C417.808 62.32 418.384 65.392 418.341 68.976C418.384 72.56 417.829 75.6533 416.677 78.256C415.525 80.8587 413.84 82.864 411.621 84.272C409.445 85.6373 406.8 86.32 403.685 86.32C400.442 86.32 397.584 85.5947 395.109 84.144C392.677 82.6507 390.778 80.6027 389.413 78C388.048 75.3547 387.365 72.3253 387.365 68.912C387.365 65.4987 388.048 62.512 389.413 59.952C390.778 57.3493 392.677 55.3227 395.109 53.872C397.541 52.4213 400.357 51.696 403.557 51.696ZM405.221 57.648C403.173 57.648 401.36 58.1387 399.781 59.12C398.202 60.1013 396.965 61.4667 396.069 63.216C395.216 64.9227 394.768 66.8853 394.725 69.104C394.768 71.3227 395.216 73.2853 396.069 74.992C396.965 76.6987 398.202 78.0427 399.781 79.024C401.36 80.0053 403.173 80.496 405.221 80.496C407.269 80.496 409.082 80.0053 410.661 79.024C412.24 78.0427 413.456 76.6987 414.309 74.992C415.205 73.2853 415.653 71.3227 415.653 69.104C415.653 66.8427 415.205 64.8587 414.309 63.152C413.456 61.4453 412.24 60.1013 410.661 59.12C409.082 58.1387 407.269 57.648 405.221 57.648ZM415.653 38.512H423.013V86H415.653V38.512Z" fill="#6878DC"/>
</g>
<path d="M432.208 39.2H435.04V56H432.208V39.2ZM437.458 39.2H450.922V41.624H445.594V56H442.762V41.624H437.458V39.2Z" fill="#6878DC"/>
<defs>
<filter id="filter0_d_1_2" x="19.664" y="38.512" width="407.349" height="55.936" filterUnits="userSpaceOnUse" color-interpolation-filters="sRGB">
<feFlood flood-opacity="0" result="BackgroundImageFix"/>
<feColorMatrix in="SourceAlpha" type="matrix" values="0 0 0 0 0 0 0 0 0 0 0 0 0 0 0 0 0 0 127 0" result="hardAlpha"/>
<feOffset dy="4"/>
<feGaussianBlur stdDeviation="2"/>
<feComposite in2="hardAlpha" operator="out"/>
<feColorMatrix type="matrix" values="0 0 0 0 0 0 0 0 0 0 0 0 0 0 0 0 0 0 0.25 0"/>
<feBlend mode="normal" in2="BackgroundImageFix" result="effect1_dropShadow_1_2"/>
<feBlend mode="normal" in="SourceGraphic" in2="effect1_dropShadow_1_2" result="shape"/>
</filter>
</defs>
</svg>
