<svg width="597" height="174" viewBox="0 0 597 174" fill="none" xmlns="http://www.w3.org/2000/svg">
<g clip-path="url(#clip0_31_3)">
<g filter="url(#filter0_d_31_3)">
<path d="M35.866 147.814C33.8927 147.814 32.092 147.493 30.464 146.852C28.8853 146.211 27.4547 145.569 26.172 144.928C25.0867 144.336 24.174 143.892 23.434 143.596C22.7433 143.3 22.1267 143.152 21.584 143.152C20.8933 143.152 20.4 143.448 20.104 144.04C19.8573 144.583 19.66 145.199 19.512 145.89L19.29 147H17.44L17.81 138.268L17.588 128.722H19.438L20.252 132.2C20.7947 134.371 21.7567 136.492 23.138 138.564C24.5687 140.636 26.3447 142.338 28.466 143.67C30.6367 145.002 33.1033 145.668 35.866 145.668C37.3953 145.668 38.8507 145.347 40.232 144.706C41.6627 144.015 42.822 142.979 43.71 141.598C44.6473 140.217 45.116 138.416 45.116 136.196C45.116 132.891 44.0307 130.227 41.86 128.204C39.7387 126.181 36.7787 124.257 32.98 122.432L29.872 120.952C26.172 119.176 23.4093 117.227 21.584 115.106C19.808 112.935 18.92 110.173 18.92 106.818C18.92 104.203 19.5613 101.885 20.844 99.862C22.1267 97.8393 23.878 96.2607 26.098 95.126C28.3673 93.9913 30.9573 93.424 33.868 93.424C35.8907 93.424 37.5927 93.6953 38.974 94.238C40.3553 94.7807 41.4407 95.2493 42.23 95.644C43.5127 96.2853 44.524 96.606 45.264 96.606C46.0533 96.606 46.522 95.8413 46.67 94.312H48.52L48.298 101.416L48.446 108.594H46.596C46.3 105.831 45.5353 103.488 44.302 101.564C43.0687 99.5907 41.564 98.086 39.788 97.05C38.0613 96.014 36.2113 95.496 34.238 95.496C31.3273 95.496 28.9593 96.3347 27.134 98.012C25.358 99.6893 24.47 101.835 24.47 104.45C24.47 107.262 25.3827 109.482 27.208 111.11C29.0333 112.689 31.4013 114.193 34.312 115.624L37.346 117.104C40.0593 118.436 42.378 119.817 44.302 121.248C46.2753 122.629 47.78 124.257 48.816 126.132C49.9013 128.007 50.444 130.35 50.444 133.162C50.444 136.073 49.778 138.638 48.446 140.858C47.1633 143.078 45.412 144.805 43.192 146.038C41.0213 147.222 38.5793 147.814 35.866 147.814ZM56.6265 147.222V145.52L57.8105 145.372C59.2411 145.175 60.3265 144.953 61.0665 144.706C61.8558 144.41 62.3985 143.793 62.6945 142.856C62.9905 141.869 63.1385 140.266 63.1385 138.046V122.284C63.1385 120.064 62.9905 118.485 62.6945 117.548C62.4478 116.561 61.9298 115.92 61.1405 115.624C60.4005 115.328 59.3151 115.106 57.8845 114.958L56.7005 114.81V113.108L65.8025 113.33H85.2645V116.586L85.7085 121.618H84.1545C83.6611 120.089 83.1431 118.855 82.6005 117.918C82.1071 116.981 81.3178 116.29 80.2325 115.846C79.1471 115.402 77.4698 115.18 75.2005 115.18H68.3185V128.796H74.4605C75.2991 128.796 76.0145 128.401 76.6065 127.612C77.1985 126.773 77.5438 125.195 77.6425 122.876H79.1965L78.9745 129.684L79.1965 137.084H77.6425C77.6425 134.667 77.3465 132.965 76.7545 131.978C76.1625 130.991 75.3238 130.498 74.2385 130.498H68.3185V141.228C68.3185 142.461 68.6391 143.423 69.2805 144.114C69.9711 144.805 71.2785 145.15 73.2025 145.15H78.0865C80.0105 145.15 81.4411 144.805 82.3785 144.114C83.3651 143.423 84.0805 142.412 84.5245 141.08C85.0178 139.748 85.4618 138.169 85.8565 136.344H87.4105L86.8925 142.338V147H65.7285L56.6265 147.222ZM109.42 147.814C106.213 147.814 103.426 147 101.058 145.372C98.6897 143.744 96.8644 141.647 95.5817 139.082C94.299 136.467 93.6577 133.729 93.6577 130.868C93.6577 127.267 94.3977 124.085 95.8777 121.322C97.407 118.51 99.4297 116.315 101.946 114.736C104.511 113.108 107.348 112.294 110.456 112.294C111.344 112.294 112.404 112.417 113.638 112.664C114.92 112.911 116.104 113.305 117.19 113.848C118.028 114.243 118.719 114.563 119.262 114.81C119.804 115.007 120.248 115.106 120.594 115.106C120.939 115.106 121.21 114.958 121.408 114.662C121.605 114.366 121.728 113.823 121.778 113.034H123.628L123.406 118.362L123.48 124.356H121.704C121.112 121.1 119.804 118.658 117.782 117.03C115.759 115.353 113.416 114.514 110.752 114.514C108.038 114.514 105.868 115.279 104.24 116.808C102.612 118.337 101.428 120.36 100.688 122.876C99.9477 125.343 99.5777 128.007 99.5777 130.868C99.5777 133.532 99.9477 135.999 100.688 138.268C101.477 140.488 102.661 142.264 104.24 143.596C105.868 144.928 107.94 145.594 110.456 145.594C112.626 145.594 114.526 145.076 116.154 144.04C117.782 143.004 119.089 141.623 120.076 139.896C121.062 138.12 121.654 136.171 121.852 134.05H123.628L123.48 140.488L123.702 147H122.37C122.32 146.507 122.172 145.964 121.926 145.372C121.679 144.78 121.235 144.484 120.594 144.484C120.347 144.484 120.002 144.583 119.558 144.78C119.114 144.977 118.596 145.224 118.004 145.52C117.017 146.013 115.808 146.507 114.378 147C112.947 147.543 111.294 147.814 109.42 147.814ZM150.546 147.74C147.833 147.74 145.366 147.321 143.146 146.482C140.976 145.594 139.249 144.188 137.966 142.264C136.684 140.34 136.042 137.849 136.042 134.79V122.284C136.042 120.064 135.894 118.485 135.598 117.548C135.302 116.561 134.76 115.92 133.97 115.624C133.23 115.328 132.145 115.106 130.714 114.958L129.53 114.81V113.108L138.632 113.33L147.734 113.108V114.81L146.55 114.958C145.12 115.106 144.01 115.328 143.22 115.624C142.48 115.92 141.962 116.561 141.666 117.548C141.37 118.485 141.222 120.064 141.222 122.284V134.79C141.222 138.194 142.11 140.833 143.886 142.708C145.712 144.583 148.203 145.52 151.36 145.52C154.222 145.52 156.54 144.657 158.316 142.93C160.092 141.203 160.98 138.416 160.98 134.568V122.358C160.98 120.138 160.832 118.559 160.536 117.622C160.24 116.635 159.698 115.994 158.908 115.698C158.168 115.402 157.083 115.18 155.652 115.032L154.468 114.884V113.182L161.942 113.33L169.416 113.182V114.884L168.232 115.032C166.802 115.18 165.692 115.402 164.902 115.698C164.162 115.994 163.644 116.635 163.348 117.622C163.052 118.559 162.904 120.138 162.904 122.358V134.568C162.904 138.959 161.77 142.264 159.5 144.484C157.28 146.655 154.296 147.74 150.546 147.74ZM203.428 147.814C201.701 147.814 200.271 147.321 199.136 146.334C198.001 145.298 197.113 143.201 196.472 140.044C196.225 138.663 195.831 137.281 195.288 135.9C194.745 134.519 193.857 133.384 192.624 132.496C191.391 131.559 189.565 131.09 187.148 131.09H182.856V138.12C182.856 140.291 183.004 141.869 183.3 142.856C183.596 143.793 184.114 144.41 184.854 144.706C185.643 144.953 186.753 145.175 188.184 145.372L189.368 145.52V147.222L180.34 147L171.312 147.222V145.52L172.496 145.372C173.927 145.175 175.012 144.953 175.752 144.706C176.541 144.41 177.084 143.793 177.38 142.856C177.676 141.869 177.824 140.291 177.824 138.12V122.284C177.824 120.311 177.676 118.831 177.38 117.844C177.133 116.857 176.64 116.167 175.9 115.772C175.209 115.377 174.223 115.131 172.94 115.032L171.312 114.884V113.182L180.414 113.33H190.626C192.846 113.33 194.893 113.601 196.768 114.144C198.643 114.637 200.147 115.525 201.282 116.808C202.417 118.041 202.984 119.793 202.984 122.062C202.984 124.134 202.417 125.787 201.282 127.02C200.197 128.204 198.84 129.092 197.212 129.684C195.584 130.276 193.981 130.671 192.402 130.868C195.017 131.115 197.138 131.904 198.766 133.236C200.443 134.568 201.553 136.911 202.096 140.266C202.491 142.585 203.058 144.015 203.798 144.558C204.587 145.051 205.549 145.298 206.684 145.298C207.029 145.298 207.375 145.249 207.72 145.15C208.065 145.051 208.361 144.953 208.608 144.854L208.978 146.556C208.337 146.803 207.547 147.074 206.61 147.37C205.673 147.666 204.612 147.814 203.428 147.814ZM189.886 115.106H182.856V129.314H188.776C191.785 129.314 193.931 128.747 195.214 127.612C196.497 126.428 197.138 124.578 197.138 122.062C197.138 120.039 196.645 118.387 195.658 117.104C194.721 115.772 192.797 115.106 189.886 115.106ZM210.191 147.222V145.52L211.375 145.372C212.806 145.175 213.891 144.953 214.631 144.706C215.42 144.41 215.963 143.793 216.259 142.856C216.555 141.869 216.703 140.266 216.703 138.046V122.284C216.703 120.064 216.555 118.485 216.259 117.548C216.012 116.561 215.494 115.92 214.705 115.624C213.965 115.328 212.88 115.106 211.449 114.958L210.265 114.81V113.108L219.367 113.33H238.829V116.586L239.273 121.618H237.719C237.226 120.089 236.708 118.855 236.165 117.918C235.672 116.981 234.882 116.29 233.797 115.846C232.712 115.402 231.034 115.18 228.765 115.18H221.883V128.796H228.025C228.864 128.796 229.579 128.401 230.171 127.612C230.763 126.773 231.108 125.195 231.207 122.876H232.761L232.539 129.684L232.761 137.084H231.207C231.207 134.667 230.911 132.965 230.319 131.978C229.727 130.991 228.888 130.498 227.803 130.498H221.883V141.228C221.883 142.461 222.204 143.423 222.845 144.114C223.536 144.805 224.843 145.15 226.767 145.15H231.651C233.575 145.15 235.006 144.805 235.943 144.114C236.93 143.423 237.645 142.412 238.089 141.08C238.582 139.748 239.026 138.169 239.421 136.344H240.975L240.457 142.338V147H219.293L210.191 147.222ZM285.867 147.222V145.52L287.051 145.372C288.482 145.175 289.567 144.953 290.307 144.706C291.097 144.41 291.639 143.793 291.935 142.856C292.231 141.869 292.379 140.266 292.379 138.046V122.284C292.379 120.064 292.231 118.485 291.935 117.548C291.639 116.561 291.097 115.92 290.307 115.624C289.567 115.328 288.482 115.106 287.051 114.958L285.867 114.81V113.108L294.969 113.33L304.071 113.108V114.81L302.887 114.958C301.457 115.106 300.347 115.328 299.557 115.624C298.817 115.92 298.299 116.561 298.003 117.548C297.707 118.485 297.559 120.064 297.559 122.284V138.194C297.559 140.365 297.806 142.067 298.299 143.3C298.842 144.533 300.149 145.15 302.221 145.15H306.291C309.202 145.15 311.299 144.287 312.581 142.56C313.913 140.784 314.727 138.243 315.023 134.938H316.725L316.207 147.148L294.969 147L285.867 147.222ZM341.194 147.814C338.777 147.814 336.433 147.395 334.164 146.556C331.895 145.668 329.847 144.435 328.022 142.856C326.246 141.277 324.815 139.403 323.73 137.232C322.694 135.061 322.176 132.693 322.176 130.128C322.176 127.365 322.719 124.899 323.804 122.728C324.889 120.557 326.345 118.683 328.17 117.104C330.045 115.525 332.092 114.341 334.312 113.552C336.581 112.713 338.875 112.294 341.194 112.294C343.365 112.294 345.56 112.689 347.78 113.478C350 114.218 352.023 115.353 353.848 116.882C355.723 118.411 357.203 120.286 358.288 122.506C359.423 124.677 359.99 127.217 359.99 130.128C359.99 132.693 359.447 135.061 358.362 137.232C357.277 139.353 355.821 141.203 353.996 142.782C352.22 144.361 350.222 145.594 348.002 146.482C345.782 147.37 343.513 147.814 341.194 147.814ZM341.194 145.594C344.253 145.594 346.719 144.903 348.594 143.522C350.469 142.091 351.85 140.217 352.738 137.898C353.626 135.53 354.07 132.94 354.07 130.128C354.07 125.441 353.059 121.667 351.036 118.806C349.063 115.945 345.782 114.514 341.194 114.514C337.938 114.514 335.348 115.229 333.424 116.66C331.5 118.041 330.119 119.916 329.28 122.284C328.491 124.603 328.096 127.217 328.096 130.128C328.096 132.989 328.565 135.604 329.502 137.972C330.489 140.291 331.944 142.141 333.868 143.522C335.792 144.903 338.234 145.594 341.194 145.594ZM386.147 147.74C383.433 147.74 380.967 147.321 378.747 146.482C376.576 145.594 374.849 144.188 373.567 142.264C372.284 140.34 371.643 137.849 371.643 134.79V122.284C371.643 120.064 371.495 118.485 371.199 117.548C370.903 116.561 370.36 115.92 369.571 115.624C368.831 115.328 367.745 115.106 366.315 114.958L365.131 114.81V113.108L374.233 113.33L383.335 113.108V114.81L382.151 114.958C380.72 115.106 379.61 115.328 378.821 115.624C378.081 115.92 377.563 116.561 377.267 117.548C376.971 118.485 376.823 120.064 376.823 122.284V134.79C376.823 138.194 377.711 140.833 379.487 142.708C381.312 144.583 383.803 145.52 386.961 145.52C389.822 145.52 392.141 144.657 393.917 142.93C395.693 141.203 396.581 138.416 396.581 134.568V122.358C396.581 120.138 396.433 118.559 396.137 117.622C395.841 116.635 395.298 115.994 394.509 115.698C393.769 115.402 392.683 115.18 391.253 115.032L390.069 114.884V113.182L397.543 113.33L405.017 113.182V114.884L403.833 115.032C402.402 115.18 401.292 115.402 400.503 115.698C399.763 115.994 399.245 116.635 398.949 117.622C398.653 118.559 398.505 120.138 398.505 122.358V134.568C398.505 138.959 397.37 142.264 395.101 144.484C392.881 146.655 389.896 147.74 386.147 147.74ZM407.578 147.222V145.742L408.614 145.594C409.897 145.446 410.884 145.249 411.574 145.002C412.265 144.755 412.734 144.188 412.98 143.3C413.276 142.412 413.424 140.981 413.424 139.008V122.284C413.424 120.064 413.276 118.485 412.98 117.548C412.684 116.561 412.142 115.92 411.352 115.624C410.612 115.328 409.527 115.106 408.096 114.958L406.912 114.81V113.108L416.014 113.33H423.34C424.179 113.33 425.412 113.404 427.04 113.552C428.668 113.651 430.444 113.971 432.368 114.514C434.342 115.007 436.216 115.846 437.992 117.03C439.768 118.165 441.224 119.768 442.358 121.84C443.493 123.912 444.06 126.576 444.06 129.832C444.06 133.335 443.37 136.221 441.988 138.49C440.656 140.71 438.954 142.437 436.882 143.67C434.81 144.903 432.64 145.767 430.37 146.26C428.15 146.753 426.128 147 424.302 147H415.718L407.578 147.222ZM422.082 145.15H424.524C424.968 145.15 425.708 145.101 426.744 145.002C427.83 144.854 429.014 144.558 430.296 144.114C431.579 143.621 432.812 142.831 433.996 141.746C435.23 140.661 436.216 139.156 436.956 137.232C437.746 135.308 438.14 132.841 438.14 129.832C438.14 126.625 437.721 124.06 436.882 122.136C436.044 120.163 434.958 118.683 433.626 117.696C432.294 116.709 430.839 116.043 429.26 115.698C427.682 115.353 426.152 115.18 424.672 115.18H418.604V139.378C418.604 141.302 418.851 142.757 419.344 143.744C419.887 144.681 420.8 145.15 422.082 145.15Z" fill="white"/>
<path d="M268.238 143.892C270.014 143.596 271.716 143.053 273.344 142.264C275.021 141.475 276.526 140.463 277.858 139.23C277.957 139.181 278.154 139.008 278.45 138.712C278.746 138.416 278.943 138.317 279.042 138.416C279.141 138.515 279.116 138.663 278.968 138.86C278.82 139.057 278.697 139.23 278.598 139.378C277.611 140.809 276.304 141.993 274.676 142.93C273.097 143.818 271.445 144.533 269.718 145.076C268.287 145.471 266.758 145.619 265.13 145.52C263.502 145.372 261.973 144.953 260.542 144.262C260.098 144.065 259.827 143.917 259.728 143.818C259.629 143.67 259.629 143.571 259.728 143.522C259.827 143.473 259.975 143.448 260.172 143.448C260.419 143.448 260.641 143.473 260.838 143.522C261.381 143.621 261.997 143.719 262.688 143.818C263.428 143.867 264.143 143.917 264.834 143.966C265.574 143.966 266.24 143.966 266.832 143.966C267.424 143.966 267.893 143.941 268.238 143.892ZM258.322 122.136C258.075 123.863 257.952 125.565 257.952 127.242C257.952 128.87 258.051 130.424 258.248 131.904C258.495 133.335 258.84 134.617 259.284 135.752C259.777 136.887 260.369 137.824 261.06 138.564C261.849 139.353 262.811 139.97 263.946 140.414C265.13 140.809 266.388 141.006 267.72 141.006C269.101 141.006 270.532 140.809 272.012 140.414C273.541 140.019 275.046 139.403 276.526 138.564C276.822 138.367 277.019 138.317 277.118 138.416C277.217 138.515 277.167 138.638 276.97 138.786C276.822 138.885 276.674 138.983 276.526 139.082C275.243 140.069 273.887 140.858 272.456 141.45C271.025 142.042 269.57 142.412 268.09 142.56C266.659 142.708 265.253 142.634 263.872 142.338C262.54 141.993 261.331 141.376 260.246 140.488C259.21 139.6 258.371 138.539 257.73 137.306C257.089 136.023 256.595 134.642 256.25 133.162C255.954 131.633 255.781 130.054 255.732 128.426C255.683 126.798 255.732 125.195 255.88 123.616C256.077 121.1 256.571 118.559 257.36 115.994C258.149 113.429 259.185 111.061 260.468 108.89C261.8 106.719 263.379 104.82 265.204 103.192C267.029 101.564 269.077 100.429 271.346 99.788C272.481 99.492 273.64 99.3687 274.824 99.418C276.008 99.4673 277.093 99.6893 278.08 100.084C279.116 100.479 280.004 101.071 280.744 101.86C281.484 102.6 281.977 103.513 282.224 104.598C282.471 105.782 282.372 106.941 281.928 108.076C281.484 109.161 280.867 110.123 280.078 110.962C279.289 111.751 278.401 112.319 277.414 112.664C276.427 113.009 275.49 113.009 274.602 112.664C274.553 112.664 274.503 112.59 274.454 112.442C274.454 112.294 274.553 112.245 274.75 112.294C275.342 112.393 276.008 112.269 276.748 111.924C277.537 111.529 278.228 111.011 278.82 110.37C279.461 109.729 279.955 108.964 280.3 108.076C280.695 107.188 280.818 106.275 280.67 105.338C280.522 104.647 280.201 104.055 279.708 103.562C279.264 103.019 278.672 102.6 277.932 102.304C277.192 101.959 276.353 101.737 275.416 101.638C274.528 101.539 273.591 101.589 272.604 101.786C270.729 102.131 268.978 102.97 267.35 104.302C265.771 105.585 264.365 107.163 263.132 109.038C261.899 110.913 260.863 113.009 260.024 115.328C259.185 117.597 258.618 119.867 258.322 122.136ZM264.168 146.63C264.711 146.679 265.253 146.704 265.796 146.704C266.388 146.704 266.684 146.778 266.684 146.926C266.684 146.975 266.585 147 266.388 147C266.191 147.049 265.969 147.074 265.722 147.074C265.525 147.074 265.303 147.074 265.056 147.074C264.809 147.074 264.661 147.074 264.612 147.074C263.083 147.074 261.578 146.852 260.098 146.408C258.618 145.964 257.237 145.347 255.954 144.558C254.721 143.719 253.611 142.708 252.624 141.524C251.637 140.34 250.897 138.983 250.404 137.454C249.417 134.445 248.85 131.509 248.702 128.648C248.554 125.787 248.677 122.975 249.072 120.212C249.269 118.633 249.639 116.857 250.182 114.884C250.774 112.861 251.539 110.814 252.476 108.742C253.463 106.67 254.671 104.623 256.102 102.6C257.582 100.577 259.333 98.7273 261.356 97.05C263.477 95.274 265.821 94.09 268.386 93.498C271.001 92.906 273.492 92.8073 275.86 93.202C278.228 93.5967 280.325 94.4353 282.15 95.718C283.975 96.9513 285.184 98.53 285.776 100.454C285.825 100.553 285.875 100.775 285.924 101.12C285.973 101.416 285.949 101.613 285.85 101.712C285.801 101.761 285.727 101.638 285.628 101.342C285.529 101.046 285.431 100.849 285.332 100.75C283.26 97.938 280.917 96.162 278.302 95.422C275.687 94.6327 273.097 94.5587 270.532 95.2C267.967 95.792 265.549 96.9267 263.28 98.604C261.011 100.232 259.21 102.057 257.878 104.08C255.559 107.583 253.783 111.307 252.55 115.254C251.366 119.201 250.823 123.271 250.922 127.464C250.971 129.388 251.169 131.411 251.514 133.532C251.909 135.653 252.649 137.676 253.734 139.6C254.819 141.573 256.299 143.226 258.174 144.558C260.098 145.841 262.096 146.531 264.168 146.63ZM253.512 118.806C253.907 116.191 254.523 113.651 255.362 111.184C256.25 108.717 257.385 106.473 258.766 104.45C260.197 102.378 261.948 100.602 264.02 99.122C266.092 97.642 268.534 96.606 271.346 96.014C272.333 95.8167 273.443 95.7427 274.676 95.792C275.909 95.792 277.143 96.014 278.376 96.458C279.609 96.8527 280.744 97.4693 281.78 98.308C282.865 99.1467 283.753 100.306 284.444 101.786C285.085 103.217 285.307 104.623 285.11 106.004C284.913 107.385 284.493 108.643 283.852 109.778C283.211 110.863 282.421 111.776 281.484 112.516C280.547 113.256 279.634 113.675 278.746 113.774C278.203 113.873 277.907 113.873 277.858 113.774C277.809 113.626 278.08 113.453 278.672 113.256C279.609 112.96 280.547 112.22 281.484 111.036C282.471 109.803 283.063 108.249 283.26 106.374C283.359 105.437 283.235 104.524 282.89 103.636C282.545 102.699 282.051 101.885 281.41 101.194C280.769 100.503 280.004 99.9113 279.116 99.418C278.228 98.9247 277.291 98.604 276.304 98.456C274.183 98.16 272.234 98.308 270.458 98.9C268.682 99.492 267.128 100.257 265.796 101.194C264.513 102.082 263.453 102.97 262.614 103.858C261.825 104.746 261.331 105.338 261.134 105.634C259.605 107.558 258.273 109.655 257.138 111.924C256.003 114.144 255.066 116.487 254.326 118.954C254.326 119.003 254.277 119.176 254.178 119.472C254.129 119.768 254.055 120.089 253.956 120.434C253.907 120.73 253.833 121.026 253.734 121.322C253.635 121.569 253.561 121.692 253.512 121.692C253.413 121.692 253.364 121.544 253.364 121.248C253.364 120.952 253.364 120.656 253.364 120.36C253.364 120.015 253.389 119.694 253.438 119.398C253.487 119.102 253.512 118.905 253.512 118.806Z" fill="#77B0DD"/>
</g>
<path d="M452.96 127.072V126.472L453.44 126.424C454 126.36 454.424 126.28 454.712 126.184C455.016 126.072 455.224 125.848 455.336 125.512C455.448 125.16 455.504 124.592 455.504 123.808V113.152C455.504 112.352 455.448 111.784 455.336 111.448C455.224 111.112 455.016 110.896 454.712 110.8C454.424 110.688 454 110.6 453.44 110.536L452.96 110.488V109.888L456.512 109.96H456.536L460.088 109.888V110.488L459.608 110.536C459.064 110.6 458.64 110.688 458.336 110.8C458.032 110.896 457.824 111.112 457.712 111.448C457.6 111.784 457.544 112.352 457.544 113.152V123.808C457.544 124.592 457.6 125.16 457.712 125.512C457.824 125.848 458.032 126.072 458.336 126.184C458.64 126.28 459.064 126.36 459.608 126.424L460.088 126.472V127.072L456.536 127H456.512L452.96 127.072ZM465.991 127.072V126.472L466.519 126.424C467.175 126.36 467.671 126.28 468.007 126.184C468.359 126.072 468.599 125.848 468.727 125.512C468.871 125.16 468.943 124.592 468.943 123.808V110.608H465.559C464.823 110.608 464.239 110.752 463.807 111.04C463.391 111.312 463.023 111.76 462.703 112.384C462.399 113.008 462.039 113.84 461.623 114.88L461.119 114.76L461.719 111.808L461.983 109.888L468.823 109.96H471.103L477.967 109.888L478.231 111.808L478.831 114.76L478.303 114.904C477.935 113.976 477.591 113.192 477.271 112.552C476.967 111.912 476.607 111.432 476.191 111.112C475.775 110.776 475.223 110.608 474.535 110.608H470.983V123.808C470.983 124.592 471.047 125.16 471.175 125.512C471.319 125.848 471.567 126.072 471.919 126.184C472.271 126.28 472.767 126.36 473.407 126.424L473.935 126.472V127.072L470.023 127L465.991 127.072Z" fill="white"/>
</g>
<defs>
<filter id="filter0_d_31_3" x="13.44" y="92.61" width="434.62" height="63.204" filterUnits="userSpaceOnUse" color-interpolation-filters="sRGB">
<feFlood flood-opacity="0" result="BackgroundImageFix"/>
<feColorMatrix in="SourceAlpha" type="matrix" values="0 0 0 0 0 0 0 0 0 0 0 0 0 0 0 0 0 0 127 0" result="hardAlpha"/>
<feOffset dy="4"/>
<feGaussianBlur stdDeviation="2"/>
<feComposite in2="hardAlpha" operator="out"/>
<feColorMatrix type="matrix" values="0 0 0 0 0 0 0 0 0 0 0 0 0 0 0 0 0 0 0.25 0"/>
<feBlend mode="normal" in2="BackgroundImageFix" result="effect1_dropShadow_31_3"/>
<feBlend mode="normal" in="SourceGraphic" in2="effect1_dropShadow_31_3" result="shape"/>
</filter>
<clipPath id="clip0_31_3">
<rect width="597" height="174" fill="white"/>
</clipPath>
</defs>
</svg>
