<svg width="478" height="121" viewBox="0 0 478 121" fill="none" xmlns="http://www.w3.org/2000/svg">
<g clip-path="url(#clip0_1_2)">
<g filter="url(#filter0_d_1_2)">
<path d="M58.26 53.34C56.4867 52.22 54.7367 51.3333 53.01 50.68C51.2833 50.0267 49.65 49.56 48.11 49.28C46.57 49 45.17 48.86 43.91 48.86C41.4833 48.86 39.5467 49.3267 38.1 50.26C36.6533 51.1933 35.93 52.5467 35.93 54.32C35.93 55.9067 36.3967 57.2133 37.33 58.24C38.31 59.22 39.57 60.0367 41.11 60.69C42.6967 61.2967 44.4233 61.88 46.29 62.44C48.2033 63 50.0933 63.63 51.96 64.33C53.8267 64.9833 55.5533 65.8467 57.14 66.92C58.7267 67.9933 59.9867 69.37 60.92 71.05C61.8533 72.6833 62.32 74.76 62.32 77.28C62.32 80.1733 61.5267 82.6933 59.94 84.84C58.3533 86.94 56.16 88.5733 53.36 89.74C50.6067 90.9067 47.4333 91.49 43.84 91.49C41.2733 91.49 38.7767 91.1633 36.35 90.51C33.9233 89.81 31.6367 88.8767 29.49 87.71C27.39 86.5433 25.5 85.19 23.82 83.65L27.39 76.86C29.07 78.4 30.8433 79.7067 32.71 80.78C34.6233 81.8533 36.5367 82.67 38.45 83.23C40.41 83.79 42.2533 84.07 43.98 84.07C46.8733 84.07 49.1133 83.51 50.7 82.39C52.3333 81.27 53.15 79.7067 53.15 77.7C53.15 76.0667 52.66 74.76 51.68 73.78C50.7467 72.7533 49.4867 71.9133 47.9 71.26C46.36 70.6067 44.6333 70.0233 42.72 69.51C40.8533 68.9967 38.9633 68.4133 37.05 67.76C35.1833 67.06 33.4567 66.1967 31.87 65.17C30.33 64.1433 29.07 62.8133 28.09 61.18C27.1567 59.5467 26.69 57.47 26.69 54.95C26.69 52.1967 27.4367 49.8167 28.93 47.81C30.4233 45.7567 32.5 44.17 35.16 43.05C37.8667 41.93 40.9933 41.37 44.54 41.37C47.7133 41.37 50.7933 41.8367 53.78 42.77C56.7667 43.7033 59.4033 44.9167 61.69 46.41L58.26 53.34ZM97.2549 69.72C97.1616 67.62 96.6716 65.8467 95.7849 64.4C94.9449 62.9067 93.7549 61.7633 92.2149 60.97C90.6749 60.13 88.9016 59.71 86.8949 59.71C84.6549 59.71 82.6949 60.2233 81.0149 61.25C79.3816 62.2767 78.0983 63.7233 77.1649 65.59C76.2316 67.41 75.7649 69.5567 75.7649 72.03C75.7649 74.69 76.2549 77 77.2349 78.96C78.2616 80.92 79.6616 82.4367 81.4349 83.51C83.2549 84.5833 85.3316 85.12 87.6649 85.12C91.8183 85.12 95.3183 83.65 98.1649 80.71L102.435 84.98C100.615 86.9867 98.3983 88.55 95.7849 89.67C93.1716 90.7433 90.2549 91.28 87.0349 91.28C83.2083 91.28 79.8716 90.4867 77.0249 88.9C74.1783 87.3133 71.9616 85.12 70.3749 82.32C68.7883 79.4733 67.9949 76.1833 67.9949 72.45C67.9949 68.7167 68.7883 65.45 70.3749 62.65C71.9616 59.8033 74.1783 57.5867 77.0249 56C79.8716 54.4133 83.1383 53.5967 86.8249 53.55C91.2116 53.55 94.7349 54.46 97.3949 56.28C100.055 58.0533 101.945 60.5733 103.065 63.84C104.185 67.1067 104.582 70.98 104.255 75.46H74.5049V69.72H97.2549ZM138.897 64.47C137.591 63.1167 136.051 62.0667 134.277 61.32C132.504 60.5733 130.497 60.2 128.257 60.2C126.111 60.2 124.197 60.7133 122.517 61.74C120.837 62.7667 119.531 64.2133 118.597 66.08C117.664 67.9 117.197 70.0233 117.197 72.45C117.197 74.8767 117.664 77.0233 118.597 78.89C119.531 80.71 120.837 82.1567 122.517 83.23C124.197 84.2567 126.111 84.77 128.257 84.77C130.591 84.77 132.691 84.3967 134.557 83.65C136.424 82.8567 137.987 81.7133 139.247 80.22L143.727 84.63C142.047 86.73 139.854 88.3633 137.147 89.53C134.487 90.6967 131.407 91.28 127.907 91.28C124.221 91.28 120.954 90.4867 118.107 88.9C115.307 87.3133 113.114 85.12 111.527 82.32C109.941 79.4733 109.147 76.1833 109.147 72.45C109.147 68.7167 109.941 65.45 111.527 62.65C113.114 59.8033 115.307 57.5867 118.107 56C120.954 54.3667 124.221 53.55 127.907 53.55C131.267 53.55 134.231 54.0633 136.797 55.09C139.411 56.07 141.581 57.47 143.307 59.29L138.897 64.47ZM159.019 74.83C159.019 77.7233 159.789 80.01 161.329 81.69C162.869 83.3233 164.992 84.14 167.699 84.14C170.919 84.0467 173.416 82.8567 175.189 80.57C177.009 78.2833 177.919 75.46 177.919 72.1H180.089C180.089 76.6733 179.459 80.36 178.199 83.16C176.939 85.96 175.142 88.0133 172.809 89.32C170.522 90.58 167.792 91.2333 164.619 91.28C161.772 91.28 159.322 90.6967 157.269 89.53C155.262 88.3633 153.699 86.7067 152.579 84.56C151.506 82.4133 150.969 79.87 150.969 76.93V53.83H159.019V74.83ZM177.919 53.83H185.969V91H177.919V53.83ZM218.821 60.83C216.161 60.69 213.851 61.1567 211.891 62.23C209.978 63.2567 208.485 64.7033 207.411 66.57C206.385 68.4367 205.871 70.5833 205.871 73.01L203.631 72.73C203.631 68.5767 204.238 65.0767 205.451 62.23C206.665 59.3833 208.415 57.2367 210.701 55.79C212.988 54.2967 215.695 53.55 218.821 53.55V60.83ZM197.891 53.83H205.941V91H197.891V53.83ZM251.2 69.72C251.107 67.62 250.617 65.8467 249.73 64.4C248.89 62.9067 247.7 61.7633 246.16 60.97C244.62 60.13 242.847 59.71 240.84 59.71C238.6 59.71 236.64 60.2233 234.96 61.25C233.327 62.2767 232.044 63.7233 231.11 65.59C230.177 67.41 229.71 69.5567 229.71 72.03C229.71 74.69 230.2 77 231.18 78.96C232.207 80.92 233.607 82.4367 235.38 83.51C237.2 84.5833 239.277 85.12 241.61 85.12C245.764 85.12 249.264 83.65 252.11 80.71L256.38 84.98C254.56 86.9867 252.344 88.55 249.73 89.67C247.117 90.7433 244.2 91.28 240.98 91.28C237.154 91.28 233.817 90.4867 230.97 88.9C228.124 87.3133 225.907 85.12 224.32 82.32C222.734 79.4733 221.94 76.1833 221.94 72.45C221.94 68.7167 222.734 65.45 224.32 62.65C225.907 59.8033 228.124 57.5867 230.97 56C233.817 54.4133 237.084 53.5967 240.77 53.55C245.157 53.55 248.68 54.46 251.34 56.28C254 58.0533 255.89 60.5733 257.01 63.84C258.13 67.1067 258.527 70.98 258.2 75.46H228.45V69.72H251.2ZM302.239 39.06H310.289V91H302.239V39.06ZM338.494 53.55C342.321 53.55 345.681 54.3433 348.574 55.93C351.514 57.5167 353.801 59.7333 355.434 62.58C357.067 65.38 357.884 68.6467 357.884 72.38C357.884 76.1133 357.067 79.4033 355.434 82.25C353.801 85.0967 351.514 87.3133 348.574 88.9C345.681 90.4867 342.321 91.28 338.494 91.28C334.667 91.28 331.284 90.4867 328.344 88.9C325.404 87.3133 323.117 85.0967 321.484 82.25C319.851 79.4033 319.034 76.1133 319.034 72.38C319.034 68.6467 319.851 65.38 321.484 62.58C323.117 59.7333 325.404 57.5167 328.344 55.93C331.284 54.3433 334.667 53.55 338.494 53.55ZM338.494 60.06C336.254 60.06 334.271 60.5967 332.544 61.67C330.817 62.6967 329.464 64.1433 328.484 66.01C327.551 67.8767 327.084 70.0233 327.084 72.45C327.084 74.9233 327.551 77.0933 328.484 78.96C329.464 80.8267 330.817 82.2967 332.544 83.37C334.271 84.3967 336.254 84.91 338.494 84.91C340.734 84.91 342.694 84.3967 344.374 83.37C346.101 82.2967 347.431 80.8267 348.364 78.96C349.344 77.0933 349.834 74.9233 349.834 72.45C349.834 70.0233 349.344 67.8767 348.364 66.01C347.431 64.1433 346.101 62.6967 344.374 61.67C342.694 60.5967 340.734 60.06 338.494 60.06ZM373.144 74.83C373.144 77.7233 373.914 80.01 375.454 81.69C376.994 83.3233 379.117 84.14 381.824 84.14C385.044 84.0467 387.541 82.8567 389.314 80.57C391.134 78.2833 392.044 75.46 392.044 72.1H394.214C394.214 76.6733 393.584 80.36 392.324 83.16C391.064 85.96 389.267 88.0133 386.934 89.32C384.647 90.58 381.917 91.2333 378.744 91.28C375.897 91.28 373.447 90.6967 371.394 89.53C369.387 88.3633 367.824 86.7067 366.704 84.56C365.631 82.4133 365.094 79.87 365.094 76.93V53.83H373.144V74.83ZM392.044 53.83H400.094V91H392.044V53.83ZM426.226 53.48C429.68 53.48 432.596 54.25 434.976 55.79C437.403 57.2833 439.246 59.4533 440.506 62.3C441.813 65.1 442.443 68.46 442.396 72.38C442.443 76.3 441.836 79.6833 440.576 82.53C439.316 85.3767 437.473 87.57 435.046 89.11C432.666 90.6033 429.773 91.35 426.366 91.35C422.82 91.35 419.693 90.5567 416.986 88.97C414.326 87.3367 412.25 85.0967 410.756 82.25C409.263 79.3567 408.516 76.0433 408.516 72.31C408.516 68.5767 409.263 65.31 410.756 62.51C412.25 59.6633 414.326 57.4467 416.986 55.86C419.646 54.2733 422.726 53.48 426.226 53.48ZM428.046 59.99C425.806 59.99 423.823 60.5267 422.096 61.6C420.37 62.6733 419.016 64.1667 418.036 66.08C417.103 67.9467 416.613 70.0933 416.566 72.52C416.613 74.9467 417.103 77.0933 418.036 78.96C419.016 80.8267 420.37 82.2967 422.096 83.37C423.823 84.4433 425.806 84.98 428.046 84.98C430.286 84.98 432.27 84.4433 433.996 83.37C435.723 82.2967 437.053 80.8267 437.986 78.96C438.966 77.0933 439.456 74.9467 439.456 72.52C439.456 70.0467 438.966 67.8767 437.986 66.01C437.053 64.1433 435.723 62.6733 433.996 61.6C432.27 60.5267 430.286 59.99 428.046 59.99ZM439.456 39.06H447.506V91H439.456V39.06Z" fill="white"/>
<path d="M280.875 87.976C282.603 87.688 284.259 87.16 285.843 86.392C287.475 85.624 288.939 84.64 290.235 83.44C290.331 83.392 290.523 83.224 290.811 82.936C291.099 82.648 291.291 82.552 291.387 82.648C291.483 82.744 291.459 82.888 291.315 83.08C291.171 83.272 291.051 83.44 290.955 83.584C289.995 84.976 288.723 86.128 287.139 87.04C285.603 87.904 283.995 88.6 282.315 89.128C280.923 89.512 279.435 89.656 277.851 89.56C276.267 89.416 274.779 89.008 273.387 88.336C272.955 88.144 272.691 88 272.595 87.904C272.499 87.76 272.499 87.664 272.595 87.616C272.691 87.568 272.835 87.544 273.027 87.544C273.267 87.544 273.483 87.568 273.675 87.616C274.203 87.712 274.803 87.808 275.475 87.904C276.195 87.952 276.891 88 277.563 88.048C278.283 88.048 278.931 88.048 279.507 88.048C280.083 88.048 280.539 88.024 280.875 87.976ZM271.227 66.808C270.987 68.488 270.867 70.144 270.867 71.776C270.867 73.36 270.963 74.872 271.155 76.312C271.395 77.704 271.731 78.952 272.163 80.056C272.643 81.16 273.219 82.072 273.891 82.792C274.659 83.56 275.595 84.16 276.699 84.592C277.851 84.976 279.075 85.168 280.371 85.168C281.715 85.168 283.107 84.976 284.547 84.592C286.035 84.208 287.499 83.608 288.939 82.792C289.227 82.6 289.419 82.552 289.515 82.648C289.611 82.744 289.563 82.864 289.371 83.008C289.227 83.104 289.083 83.2 288.939 83.296C287.691 84.256 286.371 85.024 284.979 85.6C283.587 86.176 282.171 86.536 280.731 86.68C279.339 86.824 277.971 86.752 276.627 86.464C275.331 86.128 274.155 85.528 273.099 84.664C272.091 83.8 271.275 82.768 270.651 81.568C270.027 80.32 269.547 78.976 269.211 77.536C268.923 76.048 268.755 74.512 268.707 72.928C268.659 71.344 268.707 69.784 268.851 68.248C269.043 65.8 269.523 63.328 270.291 60.832C271.059 58.336 272.067 56.032 273.315 53.92C274.611 51.808 276.147 49.96 277.923 48.376C279.699 46.792 281.691 45.688 283.899 45.064C285.003 44.776 286.131 44.656 287.283 44.704C288.435 44.752 289.491 44.968 290.451 45.352C291.459 45.736 292.323 46.312 293.043 47.08C293.763 47.8 294.243 48.688 294.483 49.744C294.723 50.896 294.627 52.024 294.195 53.128C293.763 54.184 293.163 55.12 292.395 55.936C291.627 56.704 290.763 57.256 289.803 57.592C288.843 57.928 287.931 57.928 287.067 57.592C287.019 57.592 286.971 57.52 286.923 57.376C286.923 57.232 287.019 57.184 287.211 57.232C287.787 57.328 288.435 57.208 289.155 56.872C289.923 56.488 290.595 55.984 291.171 55.36C291.795 54.736 292.275 53.992 292.611 53.128C292.995 52.264 293.115 51.376 292.971 50.464C292.827 49.792 292.515 49.216 292.035 48.736C291.603 48.208 291.027 47.8 290.307 47.512C289.587 47.176 288.771 46.96 287.859 46.864C286.995 46.768 286.083 46.816 285.123 47.008C283.299 47.344 281.595 48.16 280.011 49.456C278.475 50.704 277.107 52.24 275.907 54.064C274.707 55.888 273.699 57.928 272.883 60.184C272.067 62.392 271.515 64.6 271.227 66.808ZM276.915 90.64C277.443 90.688 277.971 90.712 278.499 90.712C279.075 90.712 279.363 90.784 279.363 90.928C279.363 90.976 279.267 91 279.075 91C278.883 91.048 278.667 91.072 278.427 91.072C278.235 91.072 278.019 91.072 277.779 91.072C277.539 91.072 277.395 91.072 277.347 91.072C275.859 91.072 274.395 90.856 272.955 90.424C271.515 89.992 270.171 89.392 268.923 88.624C267.723 87.808 266.643 86.824 265.683 85.672C264.723 84.52 264.003 83.2 263.523 81.712C262.563 78.784 262.011 75.928 261.867 73.144C261.723 70.36 261.843 67.624 262.227 64.936C262.419 63.4 262.779 61.672 263.307 59.752C263.883 57.784 264.627 55.792 265.539 53.776C266.499 51.76 267.675 49.768 269.067 47.8C270.507 45.832 272.211 44.032 274.179 42.4C276.243 40.672 278.523 39.52 281.019 38.944C283.563 38.368 285.987 38.272 288.291 38.656C290.595 39.04 292.635 39.856 294.411 41.104C296.187 42.304 297.363 43.84 297.939 45.712C297.987 45.808 298.035 46.024 298.083 46.36C298.131 46.648 298.107 46.84 298.011 46.936C297.963 46.984 297.891 46.864 297.795 46.576C297.699 46.288 297.603 46.096 297.507 46C295.491 43.264 293.211 41.536 290.667 40.816C288.123 40.048 285.603 39.976 283.107 40.6C280.611 41.176 278.259 42.28 276.051 43.912C273.843 45.496 272.091 47.272 270.795 49.24C268.539 52.648 266.811 56.272 265.611 60.112C264.459 63.952 263.931 67.912 264.027 71.992C264.075 73.864 264.267 75.832 264.603 77.896C264.987 79.96 265.707 81.928 266.763 83.8C267.819 85.72 269.259 87.328 271.083 88.624C272.955 89.872 274.899 90.544 276.915 90.64ZM266.547 63.568C266.931 61.024 267.531 58.552 268.347 56.152C269.211 53.752 270.315 51.568 271.659 49.6C273.051 47.584 274.755 45.856 276.771 44.416C278.787 42.976 281.163 41.968 283.899 41.392C284.859 41.2 285.939 41.128 287.139 41.176C288.339 41.176 289.539 41.392 290.739 41.824C291.939 42.208 293.043 42.808 294.051 43.624C295.107 44.44 295.971 45.568 296.643 47.008C297.267 48.4 297.483 49.768 297.291 51.112C297.099 52.456 296.691 53.68 296.067 54.784C295.443 55.84 294.675 56.728 293.763 57.448C292.851 58.168 291.963 58.576 291.099 58.672C290.571 58.768 290.283 58.768 290.235 58.672C290.187 58.528 290.451 58.36 291.027 58.168C291.939 57.88 292.851 57.16 293.763 56.008C294.723 54.808 295.299 53.296 295.491 51.472C295.587 50.56 295.467 49.672 295.131 48.808C294.795 47.896 294.315 47.104 293.691 46.432C293.067 45.76 292.323 45.184 291.459 44.704C290.595 44.224 289.683 43.912 288.723 43.768C286.659 43.48 284.763 43.624 283.035 44.2C281.307 44.776 279.795 45.52 278.499 46.432C277.251 47.296 276.219 48.16 275.403 49.024C274.635 49.888 274.155 50.464 273.963 50.752C272.475 52.624 271.179 54.664 270.075 56.872C268.971 59.032 268.059 61.312 267.339 63.712C267.339 63.76 267.291 63.928 267.195 64.216C267.147 64.504 267.075 64.816 266.979 65.152C266.931 65.44 266.859 65.728 266.763 66.016C266.667 66.256 266.595 66.376 266.547 66.376C266.451 66.376 266.403 66.232 266.403 65.944C266.403 65.656 266.403 65.368 266.403 65.08C266.403 64.744 266.427 64.432 266.475 64.144C266.523 63.856 266.547 63.664 266.547 63.568Z" fill="#53A2DF"/>
</g>
</g>
<defs>
<filter id="filter0_d_1_2" x="19.82" y="38.08" width="431.686" height="61.41" filterUnits="userSpaceOnUse" color-interpolation-filters="sRGB">
<feFlood flood-opacity="0" result="BackgroundImageFix"/>
<feColorMatrix in="SourceAlpha" type="matrix" values="0 0 0 0 0 0 0 0 0 0 0 0 0 0 0 0 0 0 127 0" result="hardAlpha"/>
<feOffset dy="4"/>
<feGaussianBlur stdDeviation="2"/>
<feComposite in2="hardAlpha" operator="out"/>
<feColorMatrix type="matrix" values="0 0 0 0 0 0 0 0 0 0 0 0 0 0 0 0 0 0 0.25 0"/>
<feBlend mode="normal" in2="BackgroundImageFix" result="effect1_dropShadow_1_2"/>
<feBlend mode="normal" in="SourceGraphic" in2="effect1_dropShadow_1_2" result="shape"/>
</filter>
<clipPath id="clip0_1_2">
<rect width="478" height="121" fill="white"/>
</clipPath>
</defs>
</svg>
